<?xml version="1.0"?>
<!-- Created by MetaPost 1.9991 on 2017.04.11:1656 -->
<svg version="1.1" xmlns="http://www.w3.org/2000/svg" xmlns:xlink="http://www.w3.org/1999/xlink" width="180.927094" height="394.619598" viewBox="0 0 180.927094 394.619598">
<!-- Original BoundingBox: -1.500000 -95.741119 179.427094 298.878479 -->
  <defs>
    <g transform="scale(0.009963,0.009963)" id="GLYPHcmr10_49">
      <path style="fill-rule: evenodd;" d="M294.000000 -640.000000C294.000000 -664.000000,294.000000 -666.000000,271.000000 -666.000000C209.000000 -602.000000,121.000000 -602.000000,89.000000 -602.000000L89.000000 -571.000000C109.000000 -571.000000,168.000000 -571.000000,220.000000 -597.000000L220.000000 -79.000000C220.000000 -43.000000,217.000000 -31.000000,127.000000 -31.000000L95.000000 -31.000000L95.000000 -0.000000C130.000000 -3.000000,217.000000 -3.000000,257.000000 -3.000000C297.000000 -3.000000,384.000000 -3.000000,419.000000 -0.000000L419.000000 -31.000000L387.000000 -31.000000C297.000000 -31.000000,294.000000 -42.000000,294.000000 -79.000000"></path>
    </g>
    <g transform="scale(0.009963,0.009963)" id="GLYPHcmr10_50">
      <path style="fill-rule: evenodd;" d="M127.000000 -77.000000L233.000000 -180.000000C389.000000 -318.000000,449.000000 -372.000000,449.000000 -472.000000C449.000000 -586.000000,359.000000 -666.000000,237.000000 -666.000000C124.000000 -666.000000,50.000000 -574.000000,50.000000 -485.000000C50.000000 -429.000000,100.000000 -429.000000,103.000000 -429.000000C120.000000 -429.000000,155.000000 -441.000000,155.000000 -482.000000C155.000000 -508.000000,137.000000 -534.000000,102.000000 -534.000000C94.000000 -534.000000,92.000000 -534.000000,89.000000 -533.000000C112.000000 -598.000000,166.000000 -635.000000,224.000000 -635.000000C315.000000 -635.000000,358.000000 -554.000000,358.000000 -472.000000C358.000000 -392.000000,308.000000 -313.000000,253.000000 -251.000000L61.000000 -37.000000C50.000000 -26.000000,50.000000 -24.000000,50.000000 -0.000000L421.000000 -0.000000L449.000000 -174.000000L424.000000 -174.000000C419.000000 -144.000000,412.000000 -100.000000,402.000000 -85.000000C395.000000 -77.000000,329.000000 -77.000000,307.000000 -77.000000"></path>
    </g>
    <g transform="scale(0.009963,0.009963)" id="GLYPHcmr10_51">
      <path style="fill-rule: evenodd;" d="M290.000000 -352.000000C372.000000 -379.000000,430.000000 -449.000000,430.000000 -528.000000C430.000000 -610.000000,342.000000 -666.000000,246.000000 -666.000000C145.000000 -666.000000,69.000000 -606.000000,69.000000 -530.000000C69.000000 -497.000000,91.000000 -478.000000,120.000000 -478.000000C151.000000 -478.000000,171.000000 -500.000000,171.000000 -529.000000C171.000000 -579.000000,124.000000 -579.000000,109.000000 -579.000000C140.000000 -628.000000,206.000000 -641.000000,242.000000 -641.000000C283.000000 -641.000000,338.000000 -619.000000,338.000000 -529.000000C338.000000 -517.000000,336.000000 -459.000000,310.000000 -415.000000C280.000000 -367.000000,246.000000 -364.000000,221.000000 -363.000000C213.000000 -362.000000,189.000000 -360.000000,182.000000 -360.000000C174.000000 -359.000000,167.000000 -358.000000,167.000000 -348.000000C167.000000 -337.000000,174.000000 -337.000000,191.000000 -337.000000L235.000000 -337.000000C317.000000 -337.000000,354.000000 -269.000000,354.000000 -171.000000C354.000000 -35.000000,285.000000 -6.000000,241.000000 -6.000000C198.000000 -6.000000,123.000000 -23.000000,88.000000 -82.000000C123.000000 -77.000000,154.000000 -99.000000,154.000000 -137.000000C154.000000 -173.000000,127.000000 -193.000000,98.000000 -193.000000C74.000000 -193.000000,42.000000 -179.000000,42.000000 -135.000000C42.000000 -44.000000,135.000000 22.000000,244.000000 22.000000C366.000000 22.000000,457.000000 -69.000000,457.000000 -171.000000C457.000000 -253.000000,394.000000 -331.000000,290.000000 -352.000000"></path>
    </g>
    <g transform="scale(0.009963,0.009963)" id="GLYPHcmr10_52">
      <path style="fill-rule: evenodd;" d="M294.000000 -165.000000L294.000000 -78.000000C294.000000 -42.000000,292.000000 -31.000000,218.000000 -31.000000L197.000000 -31.000000L197.000000 -0.000000C238.000000 -3.000000,290.000000 -3.000000,332.000000 -3.000000C374.000000 -3.000000,427.000000 -3.000000,468.000000 -0.000000L468.000000 -31.000000L447.000000 -31.000000C373.000000 -31.000000,371.000000 -42.000000,371.000000 -78.000000L371.000000 -165.000000L471.000000 -165.000000L471.000000 -196.000000L371.000000 -196.000000L371.000000 -651.000000C371.000000 -671.000000,371.000000 -677.000000,355.000000 -677.000000C346.000000 -677.000000,343.000000 -677.000000,335.000000 -665.000000L28.000000 -196.000000L28.000000 -165.000000M300.000000 -196.000000L56.000000 -196.000000L300.000000 -569.000000"></path>
    </g>
  </defs>
  <path d="M90.663544 321.910278L90.663544 172.471039L90.663544 23.031799" style="stroke:rgb(60.000610%,60.000610%,60.000610%); stroke-width: 47.820557;stroke-miterlimit: 10.000000;fill: none;"></path>
  <path d="M64.096619 298.000000C81.672333 294.900970,99.654755 294.900970,117.230469 298.000000L117.230469 345.820557L64.096619 345.820557Z" style="fill: rgb(100.000000%,100.000000%,100.000000%);stroke: none;"></path>
  <path d="M117.230469 46.942078C99.654755 50.041107,81.672333 50.041107,64.096619 46.942078L64.096619 -0.878479L117.230469 -0.878479Z" style="fill: rgb(100.000000%,100.000000%,100.000000%);stroke: none;"></path>
  <path d="M1.000000 46.942078L1.000000 298.000000" style="stroke:rgb(80.000305%,80.000305%,80.000305%); stroke-width: 0.199997;stroke-linecap: round;stroke-miterlimit: 10.000000;fill: none;"></path>
  <path d="M12.955139 46.942078L12.955139 298.000000" style="stroke:rgb(80.000305%,80.000305%,80.000305%); stroke-width: 0.199997;stroke-linecap: round;stroke-miterlimit: 10.000000;fill: none;"></path>
  <path d="M24.910278 46.942078L24.910278 298.000000" style="stroke:rgb(80.000305%,80.000305%,80.000305%); stroke-width: 0.199997;stroke-linecap: round;stroke-miterlimit: 10.000000;fill: none;"></path>
  <path d="M36.865417 46.942078L36.865417 298.000000" style="stroke:rgb(80.000305%,80.000305%,80.000305%); stroke-width: 0.199997;stroke-linecap: round;stroke-miterlimit: 10.000000;fill: none;"></path>
  <path d="M48.820557 46.942078L48.820557 298.000000" style="stroke:rgb(80.000305%,80.000305%,80.000305%); stroke-width: 0.199997;stroke-linecap: round;stroke-miterlimit: 10.000000;fill: none;"></path>
  <path d="M60.775696 46.942078L60.775696 298.000000" style="stroke:rgb(80.000305%,80.000305%,80.000305%); stroke-width: 0.199997;stroke-linecap: round;stroke-miterlimit: 10.000000;fill: none;"></path>
  <path d="M72.730835 46.942078L72.730835 298.000000" style="stroke:rgb(80.000305%,80.000305%,80.000305%); stroke-width: 0.199997;stroke-linecap: round;stroke-miterlimit: 10.000000;fill: none;"></path>
  <path d="M84.685974 46.942078L84.685974 298.000000" style="stroke:rgb(80.000305%,80.000305%,80.000305%); stroke-width: 0.199997;stroke-linecap: round;stroke-miterlimit: 10.000000;fill: none;"></path>
  <path d="M96.641113 46.942078L96.641113 298.000000" style="stroke:rgb(80.000305%,80.000305%,80.000305%); stroke-width: 0.199997;stroke-linecap: round;stroke-miterlimit: 10.000000;fill: none;"></path>
  <path d="M108.596252 46.942078L108.596252 298.000000" style="stroke:rgb(80.000305%,80.000305%,80.000305%); stroke-width: 0.199997;stroke-linecap: round;stroke-miterlimit: 10.000000;fill: none;"></path>
  <path d="M120.551392 46.942078L120.551392 298.000000" style="stroke:rgb(80.000305%,80.000305%,80.000305%); stroke-width: 0.199997;stroke-linecap: round;stroke-miterlimit: 10.000000;fill: none;"></path>
  <path d="M132.506531 46.942078L132.506531 298.000000" style="stroke:rgb(80.000305%,80.000305%,80.000305%); stroke-width: 0.199997;stroke-linecap: round;stroke-miterlimit: 10.000000;fill: none;"></path>
  <path d="M144.461670 46.942078L144.461670 298.000000" style="stroke:rgb(80.000305%,80.000305%,80.000305%); stroke-width: 0.199997;stroke-linecap: round;stroke-miterlimit: 10.000000;fill: none;"></path>
  <path d="M156.416809 46.942078L156.416809 298.000000" style="stroke:rgb(80.000305%,80.000305%,80.000305%); stroke-width: 0.199997;stroke-linecap: round;stroke-miterlimit: 10.000000;fill: none;"></path>
  <path d="M168.371948 46.942078L168.371948 298.000000" style="stroke:rgb(80.000305%,80.000305%,80.000305%); stroke-width: 0.199997;stroke-linecap: round;stroke-miterlimit: 10.000000;fill: none;"></path>
  <path d="M180.327087 46.942078L180.327087 298.000000" style="stroke:rgb(80.000305%,80.000305%,80.000305%); stroke-width: 0.199997;stroke-linecap: round;stroke-miterlimit: 10.000000;fill: none;"></path>
  <path d="M1.000000 298.000000L180.327087 298.000000" style="stroke:rgb(80.000305%,80.000305%,80.000305%); stroke-width: 0.199997;stroke-linecap: round;stroke-miterlimit: 10.000000;fill: none;"></path>
  <path d="M1.000000 286.044861L180.327087 286.044861" style="stroke:rgb(80.000305%,80.000305%,80.000305%); stroke-width: 0.199997;stroke-linecap: round;stroke-miterlimit: 10.000000;fill: none;"></path>
  <path d="M1.000000 274.089722L180.327087 274.089722" style="stroke:rgb(80.000305%,80.000305%,80.000305%); stroke-width: 0.199997;stroke-linecap: round;stroke-miterlimit: 10.000000;fill: none;"></path>
  <path d="M1.000000 262.134583L180.327087 262.134583" style="stroke:rgb(80.000305%,80.000305%,80.000305%); stroke-width: 0.199997;stroke-linecap: round;stroke-miterlimit: 10.000000;fill: none;"></path>
  <path d="M1.000000 250.179443L180.327087 250.179443" style="stroke:rgb(80.000305%,80.000305%,80.000305%); stroke-width: 0.199997;stroke-linecap: round;stroke-miterlimit: 10.000000;fill: none;"></path>
  <path d="M1.000000 238.224304L180.327087 238.224304" style="stroke:rgb(80.000305%,80.000305%,80.000305%); stroke-width: 0.199997;stroke-linecap: round;stroke-miterlimit: 10.000000;fill: none;"></path>
  <path d="M1.000000 226.269165L180.327087 226.269165" style="stroke:rgb(80.000305%,80.000305%,80.000305%); stroke-width: 0.199997;stroke-linecap: round;stroke-miterlimit: 10.000000;fill: none;"></path>
  <path d="M1.000000 214.314026L180.327087 214.314026" style="stroke:rgb(80.000305%,80.000305%,80.000305%); stroke-width: 0.199997;stroke-linecap: round;stroke-miterlimit: 10.000000;fill: none;"></path>
  <path d="M1.000000 202.358887L180.327087 202.358887" style="stroke:rgb(80.000305%,80.000305%,80.000305%); stroke-width: 0.199997;stroke-linecap: round;stroke-miterlimit: 10.000000;fill: none;"></path>
  <path d="M1.000000 190.403748L180.327087 190.403748" style="stroke:rgb(80.000305%,80.000305%,80.000305%); stroke-width: 0.199997;stroke-linecap: round;stroke-miterlimit: 10.000000;fill: none;"></path>
  <path d="M1.000000 178.448608L180.327087 178.448608" style="stroke:rgb(80.000305%,80.000305%,80.000305%); stroke-width: 0.199997;stroke-linecap: round;stroke-miterlimit: 10.000000;fill: none;"></path>
  <path d="M1.000000 166.493469L180.327087 166.493469" style="stroke:rgb(80.000305%,80.000305%,80.000305%); stroke-width: 0.199997;stroke-linecap: round;stroke-miterlimit: 10.000000;fill: none;"></path>
  <path d="M1.000000 154.538330L180.327087 154.538330" style="stroke:rgb(80.000305%,80.000305%,80.000305%); stroke-width: 0.199997;stroke-linecap: round;stroke-miterlimit: 10.000000;fill: none;"></path>
  <path d="M1.000000 142.583191L180.327087 142.583191" style="stroke:rgb(80.000305%,80.000305%,80.000305%); stroke-width: 0.199997;stroke-linecap: round;stroke-miterlimit: 10.000000;fill: none;"></path>
  <path d="M1.000000 130.628052L180.327087 130.628052" style="stroke:rgb(80.000305%,80.000305%,80.000305%); stroke-width: 0.199997;stroke-linecap: round;stroke-miterlimit: 10.000000;fill: none;"></path>
  <path d="M1.000000 118.672913L180.327087 118.672913" style="stroke:rgb(80.000305%,80.000305%,80.000305%); stroke-width: 0.199997;stroke-linecap: round;stroke-miterlimit: 10.000000;fill: none;"></path>
  <path d="M1.000000 106.717773L180.327087 106.717773" style="stroke:rgb(80.000305%,80.000305%,80.000305%); stroke-width: 0.199997;stroke-linecap: round;stroke-miterlimit: 10.000000;fill: none;"></path>
  <path d="M1.000000 94.762634L180.327087 94.762634" style="stroke:rgb(80.000305%,80.000305%,80.000305%); stroke-width: 0.199997;stroke-linecap: round;stroke-miterlimit: 10.000000;fill: none;"></path>
  <path d="M1.000000 82.807495L180.327087 82.807495" style="stroke:rgb(80.000305%,80.000305%,80.000305%); stroke-width: 0.199997;stroke-linecap: round;stroke-miterlimit: 10.000000;fill: none;"></path>
  <path d="M1.000000 70.852356L180.327087 70.852356" style="stroke:rgb(80.000305%,80.000305%,80.000305%); stroke-width: 0.199997;stroke-linecap: round;stroke-miterlimit: 10.000000;fill: none;"></path>
  <path d="M1.000000 58.897217L180.327087 58.897217" style="stroke:rgb(80.000305%,80.000305%,80.000305%); stroke-width: 0.199997;stroke-linecap: round;stroke-miterlimit: 10.000000;fill: none;"></path>
  <path d="M1.000000 46.942078L180.327087 46.942078" style="stroke:rgb(80.000305%,80.000305%,80.000305%); stroke-width: 0.199997;stroke-linecap: round;stroke-miterlimit: 10.000000;fill: none;"></path>
  <g transform="translate(1.000000 298.000000)" style="fill: rgb(0.000000%,0.000000%,0.000000%);">
    <use xlink:href="#GLYPHcmr10_49"></use>
  </g>
  <path d="M1.000000 298.000000l0 0" style="stroke:rgb(0.000000%,0.000000%,0.000000%); stroke-width: 3.000000;stroke-linecap: round;stroke-miterlimit: 10.000000;fill: none;"></path>
  <g transform="translate(88.172867 331.330643)" style="fill: rgb(0.000000%,0.000000%,0.000000%);">
    <use xlink:href="#GLYPHcmr10_50"></use>
  </g>
  <path d="M90.663544 321.910278l0 0" style="stroke:rgb(0.000000%,0.000000%,0.000000%); stroke-width: 3.000000;stroke-linecap: round;stroke-miterlimit: 10.000000;fill: none;"></path>
  <g transform="translate(1.000000 298.000000)" style="fill: rgb(0.000000%,0.000000%,0.000000%);">
    <use xlink:href="#GLYPHcmr10_51"></use>
  </g>
  <path d="M1.000000 298.000000l0 0" style="stroke:rgb(0.000000%,0.000000%,0.000000%); stroke-width: 3.000000;stroke-linecap: round;stroke-miterlimit: 10.000000;fill: none;"></path>
  <g transform="translate(88.172867 32.452164)" style="fill: rgb(0.000000%,0.000000%,0.000000%);">
    <use xlink:href="#GLYPHcmr10_52"></use>
  </g>
  <path d="M90.663544 23.031799l0 0" style="stroke:rgb(0.000000%,0.000000%,0.000000%); stroke-width: 3.000000;stroke-linecap: round;stroke-miterlimit: 10.000000;fill: none;"></path>
  <path d="M1.000000 393.641113L1.000000 23.031799L180.327087 23.031799L180.327087 393.641113Z" style="stroke:rgb(100.000000%,0.000000%,0.000000%); stroke-width: 0.199997;stroke-linecap: round;stroke-miterlimit: 10.000000;fill: none;"></path>
</svg>
