<?xml version="1.0"?>
<!-- Created by MetaPost 1.9991 on 2017.04.11:1656 -->
<svg version="1.1" xmlns="http://www.w3.org/2000/svg" xmlns:xlink="http://www.w3.org/1999/xlink" width="215.392517" height="394.619598" viewBox="0 0 215.392517 394.619598">
<!-- Original BoundingBox: -0.100006 -95.741119 215.292511 298.878479 -->
  <defs>
    <g transform="scale(0.009963,0.009963)" id="GLYPHcmr10_49">
      <path style="fill-rule: evenodd;" d="M294.000000 -640.000000C294.000000 -664.000000,294.000000 -666.000000,271.000000 -666.000000C209.000000 -602.000000,121.000000 -602.000000,89.000000 -602.000000L89.000000 -571.000000C109.000000 -571.000000,168.000000 -571.000000,220.000000 -597.000000L220.000000 -79.000000C220.000000 -43.000000,217.000000 -31.000000,127.000000 -31.000000L95.000000 -31.000000L95.000000 -0.000000C130.000000 -3.000000,217.000000 -3.000000,257.000000 -3.000000C297.000000 -3.000000,384.000000 -3.000000,419.000000 -0.000000L419.000000 -31.000000L387.000000 -31.000000C297.000000 -31.000000,294.000000 -42.000000,294.000000 -79.000000"></path>
    </g>
    <g transform="scale(0.009963,0.009963)" id="GLYPHcmr10_50">
      <path style="fill-rule: evenodd;" d="M127.000000 -77.000000L233.000000 -180.000000C389.000000 -318.000000,449.000000 -372.000000,449.000000 -472.000000C449.000000 -586.000000,359.000000 -666.000000,237.000000 -666.000000C124.000000 -666.000000,50.000000 -574.000000,50.000000 -485.000000C50.000000 -429.000000,100.000000 -429.000000,103.000000 -429.000000C120.000000 -429.000000,155.000000 -441.000000,155.000000 -482.000000C155.000000 -508.000000,137.000000 -534.000000,102.000000 -534.000000C94.000000 -534.000000,92.000000 -534.000000,89.000000 -533.000000C112.000000 -598.000000,166.000000 -635.000000,224.000000 -635.000000C315.000000 -635.000000,358.000000 -554.000000,358.000000 -472.000000C358.000000 -392.000000,308.000000 -313.000000,253.000000 -251.000000L61.000000 -37.000000C50.000000 -26.000000,50.000000 -24.000000,50.000000 -0.000000L421.000000 -0.000000L449.000000 -174.000000L424.000000 -174.000000C419.000000 -144.000000,412.000000 -100.000000,402.000000 -85.000000C395.000000 -77.000000,329.000000 -77.000000,307.000000 -77.000000"></path>
    </g>
    <g transform="scale(0.009963,0.009963)" id="GLYPHcmr10_51">
      <path style="fill-rule: evenodd;" d="M290.000000 -352.000000C372.000000 -379.000000,430.000000 -449.000000,430.000000 -528.000000C430.000000 -610.000000,342.000000 -666.000000,246.000000 -666.000000C145.000000 -666.000000,69.000000 -606.000000,69.000000 -530.000000C69.000000 -497.000000,91.000000 -478.000000,120.000000 -478.000000C151.000000 -478.000000,171.000000 -500.000000,171.000000 -529.000000C171.000000 -579.000000,124.000000 -579.000000,109.000000 -579.000000C140.000000 -628.000000,206.000000 -641.000000,242.000000 -641.000000C283.000000 -641.000000,338.000000 -619.000000,338.000000 -529.000000C338.000000 -517.000000,336.000000 -459.000000,310.000000 -415.000000C280.000000 -367.000000,246.000000 -364.000000,221.000000 -363.000000C213.000000 -362.000000,189.000000 -360.000000,182.000000 -360.000000C174.000000 -359.000000,167.000000 -358.000000,167.000000 -348.000000C167.000000 -337.000000,174.000000 -337.000000,191.000000 -337.000000L235.000000 -337.000000C317.000000 -337.000000,354.000000 -269.000000,354.000000 -171.000000C354.000000 -35.000000,285.000000 -6.000000,241.000000 -6.000000C198.000000 -6.000000,123.000000 -23.000000,88.000000 -82.000000C123.000000 -77.000000,154.000000 -99.000000,154.000000 -137.000000C154.000000 -173.000000,127.000000 -193.000000,98.000000 -193.000000C74.000000 -193.000000,42.000000 -179.000000,42.000000 -135.000000C42.000000 -44.000000,135.000000 22.000000,244.000000 22.000000C366.000000 22.000000,457.000000 -69.000000,457.000000 -171.000000C457.000000 -253.000000,394.000000 -331.000000,290.000000 -352.000000"></path>
    </g>
    <g transform="scale(0.009963,0.009963)" id="GLYPHcmr10_52">
      <path style="fill-rule: evenodd;" d="M294.000000 -165.000000L294.000000 -78.000000C294.000000 -42.000000,292.000000 -31.000000,218.000000 -31.000000L197.000000 -31.000000L197.000000 -0.000000C238.000000 -3.000000,290.000000 -3.000000,332.000000 -3.000000C374.000000 -3.000000,427.000000 -3.000000,468.000000 -0.000000L468.000000 -31.000000L447.000000 -31.000000C373.000000 -31.000000,371.000000 -42.000000,371.000000 -78.000000L371.000000 -165.000000L471.000000 -165.000000L471.000000 -196.000000L371.000000 -196.000000L371.000000 -651.000000C371.000000 -671.000000,371.000000 -677.000000,355.000000 -677.000000C346.000000 -677.000000,343.000000 -677.000000,335.000000 -665.000000L28.000000 -196.000000L28.000000 -165.000000M300.000000 -196.000000L56.000000 -196.000000L300.000000 -569.000000"></path>
    </g>
    <g transform="scale(0.009963,0.009963)" id="GLYPHcmr10_53">
      <path style="fill-rule: evenodd;" d="M449.000000 -201.000000C449.000000 -320.000000,367.000000 -420.000000,259.000000 -420.000000C211.000000 -420.000000,168.000000 -404.000000,132.000000 -369.000000L132.000000 -564.000000C152.000000 -558.000000,185.000000 -551.000000,217.000000 -551.000000C340.000000 -551.000000,410.000000 -642.000000,410.000000 -655.000000C410.000000 -661.000000,407.000000 -666.000000,400.000000 -666.000000C399.000000 -666.000000,397.000000 -666.000000,392.000000 -663.000000C372.000000 -654.000000,323.000000 -634.000000,256.000000 -634.000000C216.000000 -634.000000,170.000000 -641.000000,123.000000 -662.000000C115.000000 -665.000000,113.000000 -665.000000,111.000000 -665.000000C101.000000 -665.000000,101.000000 -657.000000,101.000000 -641.000000L101.000000 -345.000000C101.000000 -327.000000,101.000000 -319.000000,115.000000 -319.000000C122.000000 -319.000000,124.000000 -322.000000,128.000000 -328.000000C139.000000 -344.000000,176.000000 -398.000000,257.000000 -398.000000C309.000000 -398.000000,334.000000 -352.000000,342.000000 -334.000000C358.000000 -297.000000,360.000000 -258.000000,360.000000 -208.000000C360.000000 -173.000000,360.000000 -113.000000,336.000000 -71.000000C312.000000 -32.000000,275.000000 -6.000000,229.000000 -6.000000C156.000000 -6.000000,99.000000 -59.000000,82.000000 -118.000000C85.000000 -117.000000,88.000000 -116.000000,99.000000 -116.000000C132.000000 -116.000000,149.000000 -141.000000,149.000000 -165.000000C149.000000 -189.000000,132.000000 -214.000000,99.000000 -214.000000C85.000000 -214.000000,50.000000 -207.000000,50.000000 -161.000000C50.000000 -75.000000,119.000000 22.000000,231.000000 22.000000C347.000000 22.000000,449.000000 -74.000000,449.000000 -201.000000"></path>
    </g>
    <g transform="scale(0.009963,0.009963)" id="GLYPHcmr10_54">
      <path style="fill-rule: evenodd;" d="M132.000000 -328.000000L132.000000 -352.000000C132.000000 -605.000000,256.000000 -641.000000,307.000000 -641.000000C331.000000 -641.000000,373.000000 -635.000000,395.000000 -601.000000C380.000000 -601.000000,340.000000 -601.000000,340.000000 -556.000000C340.000000 -525.000000,364.000000 -510.000000,386.000000 -510.000000C402.000000 -510.000000,432.000000 -519.000000,432.000000 -558.000000C432.000000 -618.000000,388.000000 -666.000000,305.000000 -666.000000C177.000000 -666.000000,42.000000 -537.000000,42.000000 -316.000000C42.000000 -49.000000,158.000000 22.000000,251.000000 22.000000C362.000000 22.000000,457.000000 -72.000000,457.000000 -204.000000C457.000000 -331.000000,368.000000 -427.000000,257.000000 -427.000000C189.000000 -427.000000,152.000000 -376.000000,132.000000 -328.000000M251.000000 -6.000000C188.000000 -6.000000,158.000000 -66.000000,152.000000 -81.000000C134.000000 -128.000000,134.000000 -208.000000,134.000000 -226.000000C134.000000 -304.000000,166.000000 -404.000000,256.000000 -404.000000C272.000000 -404.000000,318.000000 -404.000000,349.000000 -342.000000C367.000000 -305.000000,367.000000 -254.000000,367.000000 -205.000000C367.000000 -157.000000,367.000000 -107.000000,350.000000 -71.000000C320.000000 -11.000000,274.000000 -6.000000,251.000000 -6.000000"></path>
    </g>
  </defs>
  <path d="M47.820557 321.910278C46.232452 276.258850,45.435455 230.583328,45.429932 184.904297C45.424377 138.906494,46.221375 92.912079,47.820557 46.942078L47.820557 46.942078C64.119461 91.208878,82.470810 134.692719,102.815002 177.252289C122.508728 218.451096,144.049561 258.741226,167.371948 298.000000L167.371948 298.000000C168.971130 252.029999,169.768127 206.035583,169.762573 160.037781C169.757050 114.358749,168.960052 68.683228,167.371948 23.031799" style="stroke:rgb(60.000610%,60.000610%,60.000610%); stroke-width: 47.820557;stroke-linejoin: bevel;stroke-miterlimit: 10.000000;fill: none;"></path>
  <path d="M21.253632 298.000000C38.829346 294.900970,56.811768 294.900970,74.387482 298.000000L74.387482 345.820557L21.253632 345.820557Z" style="fill: rgb(100.000000%,100.000000%,100.000000%);stroke: none;"></path>
  <path d="M74.387482 46.942078C56.811768 50.041107,38.829346 50.041107,21.253632 46.942078L21.253632 -0.878479L74.387482 -0.878479Z" style="fill: rgb(100.000000%,100.000000%,100.000000%);stroke: none;"></path>
  <path d="M140.805023 298.000000C158.380737 294.900970,176.363159 294.900970,193.938873 298.000000L193.938873 345.820557L140.805023 345.820557Z" style="fill: rgb(100.000000%,100.000000%,100.000000%);stroke: none;"></path>
  <path d="M193.938873 46.942078C176.363159 50.041107,158.380737 50.041107,140.805023 46.942078L140.805023 -0.878479L193.938873 -0.878479Z" style="fill: rgb(100.000000%,100.000000%,100.000000%);stroke: none;"></path>
  <path d="M0.000000 46.942078L0.000000 298.000000" style="stroke:rgb(80.000305%,80.000305%,80.000305%); stroke-width: 0.199997;stroke-linecap: round;stroke-linejoin: bevel;stroke-miterlimit: 10.000000;fill: none;"></path>
  <path d="M11.955139 46.942078L11.955139 298.000000" style="stroke:rgb(80.000305%,80.000305%,80.000305%); stroke-width: 0.199997;stroke-linecap: round;stroke-linejoin: bevel;stroke-miterlimit: 10.000000;fill: none;"></path>
  <path d="M23.910278 46.942078L23.910278 298.000000" style="stroke:rgb(80.000305%,80.000305%,80.000305%); stroke-width: 0.199997;stroke-linecap: round;stroke-linejoin: bevel;stroke-miterlimit: 10.000000;fill: none;"></path>
  <path d="M35.865417 46.942078L35.865417 298.000000" style="stroke:rgb(80.000305%,80.000305%,80.000305%); stroke-width: 0.199997;stroke-linecap: round;stroke-linejoin: bevel;stroke-miterlimit: 10.000000;fill: none;"></path>
  <path d="M47.820557 46.942078L47.820557 298.000000" style="stroke:rgb(80.000305%,80.000305%,80.000305%); stroke-width: 0.199997;stroke-linecap: round;stroke-linejoin: bevel;stroke-miterlimit: 10.000000;fill: none;"></path>
  <path d="M59.775696 46.942078L59.775696 298.000000" style="stroke:rgb(80.000305%,80.000305%,80.000305%); stroke-width: 0.199997;stroke-linecap: round;stroke-linejoin: bevel;stroke-miterlimit: 10.000000;fill: none;"></path>
  <path d="M71.730835 46.942078L71.730835 298.000000" style="stroke:rgb(80.000305%,80.000305%,80.000305%); stroke-width: 0.199997;stroke-linecap: round;stroke-linejoin: bevel;stroke-miterlimit: 10.000000;fill: none;"></path>
  <path d="M83.685974 46.942078L83.685974 298.000000" style="stroke:rgb(80.000305%,80.000305%,80.000305%); stroke-width: 0.199997;stroke-linecap: round;stroke-linejoin: bevel;stroke-miterlimit: 10.000000;fill: none;"></path>
  <path d="M95.641113 46.942078L95.641113 298.000000" style="stroke:rgb(80.000305%,80.000305%,80.000305%); stroke-width: 0.199997;stroke-linecap: round;stroke-linejoin: bevel;stroke-miterlimit: 10.000000;fill: none;"></path>
  <path d="M107.596252 46.942078L107.596252 298.000000" style="stroke:rgb(80.000305%,80.000305%,80.000305%); stroke-width: 0.199997;stroke-linecap: round;stroke-linejoin: bevel;stroke-miterlimit: 10.000000;fill: none;"></path>
  <path d="M119.551392 46.942078L119.551392 298.000000" style="stroke:rgb(80.000305%,80.000305%,80.000305%); stroke-width: 0.199997;stroke-linecap: round;stroke-linejoin: bevel;stroke-miterlimit: 10.000000;fill: none;"></path>
  <path d="M131.506531 46.942078L131.506531 298.000000" style="stroke:rgb(80.000305%,80.000305%,80.000305%); stroke-width: 0.199997;stroke-linecap: round;stroke-linejoin: bevel;stroke-miterlimit: 10.000000;fill: none;"></path>
  <path d="M143.461670 46.942078L143.461670 298.000000" style="stroke:rgb(80.000305%,80.000305%,80.000305%); stroke-width: 0.199997;stroke-linecap: round;stroke-linejoin: bevel;stroke-miterlimit: 10.000000;fill: none;"></path>
  <path d="M155.416809 46.942078L155.416809 298.000000" style="stroke:rgb(80.000305%,80.000305%,80.000305%); stroke-width: 0.199997;stroke-linecap: round;stroke-linejoin: bevel;stroke-miterlimit: 10.000000;fill: none;"></path>
  <path d="M167.371948 46.942078L167.371948 298.000000" style="stroke:rgb(80.000305%,80.000305%,80.000305%); stroke-width: 0.199997;stroke-linecap: round;stroke-linejoin: bevel;stroke-miterlimit: 10.000000;fill: none;"></path>
  <path d="M179.327087 46.942078L179.327087 298.000000" style="stroke:rgb(80.000305%,80.000305%,80.000305%); stroke-width: 0.199997;stroke-linecap: round;stroke-linejoin: bevel;stroke-miterlimit: 10.000000;fill: none;"></path>
  <path d="M191.282227 46.942078L191.282227 298.000000" style="stroke:rgb(80.000305%,80.000305%,80.000305%); stroke-width: 0.199997;stroke-linecap: round;stroke-linejoin: bevel;stroke-miterlimit: 10.000000;fill: none;"></path>
  <path d="M203.237366 46.942078L203.237366 298.000000" style="stroke:rgb(80.000305%,80.000305%,80.000305%); stroke-width: 0.199997;stroke-linecap: round;stroke-linejoin: bevel;stroke-miterlimit: 10.000000;fill: none;"></path>
  <path d="M215.192505 46.942078L215.192505 298.000000" style="stroke:rgb(80.000305%,80.000305%,80.000305%); stroke-width: 0.199997;stroke-linecap: round;stroke-linejoin: bevel;stroke-miterlimit: 10.000000;fill: none;"></path>
  <path d="M0.000000 298.000000L215.192505 298.000000" style="stroke:rgb(80.000305%,80.000305%,80.000305%); stroke-width: 0.199997;stroke-linecap: round;stroke-linejoin: bevel;stroke-miterlimit: 10.000000;fill: none;"></path>
  <path d="M0.000000 286.044861L215.192505 286.044861" style="stroke:rgb(80.000305%,80.000305%,80.000305%); stroke-width: 0.199997;stroke-linecap: round;stroke-linejoin: bevel;stroke-miterlimit: 10.000000;fill: none;"></path>
  <path d="M0.000000 274.089722L215.192505 274.089722" style="stroke:rgb(80.000305%,80.000305%,80.000305%); stroke-width: 0.199997;stroke-linecap: round;stroke-linejoin: bevel;stroke-miterlimit: 10.000000;fill: none;"></path>
  <path d="M0.000000 262.134583L215.192505 262.134583" style="stroke:rgb(80.000305%,80.000305%,80.000305%); stroke-width: 0.199997;stroke-linecap: round;stroke-linejoin: bevel;stroke-miterlimit: 10.000000;fill: none;"></path>
  <path d="M0.000000 250.179443L215.192505 250.179443" style="stroke:rgb(80.000305%,80.000305%,80.000305%); stroke-width: 0.199997;stroke-linecap: round;stroke-linejoin: bevel;stroke-miterlimit: 10.000000;fill: none;"></path>
  <path d="M0.000000 238.224304L215.192505 238.224304" style="stroke:rgb(80.000305%,80.000305%,80.000305%); stroke-width: 0.199997;stroke-linecap: round;stroke-linejoin: bevel;stroke-miterlimit: 10.000000;fill: none;"></path>
  <path d="M0.000000 226.269165L215.192505 226.269165" style="stroke:rgb(80.000305%,80.000305%,80.000305%); stroke-width: 0.199997;stroke-linecap: round;stroke-linejoin: bevel;stroke-miterlimit: 10.000000;fill: none;"></path>
  <path d="M0.000000 214.314026L215.192505 214.314026" style="stroke:rgb(80.000305%,80.000305%,80.000305%); stroke-width: 0.199997;stroke-linecap: round;stroke-linejoin: bevel;stroke-miterlimit: 10.000000;fill: none;"></path>
  <path d="M0.000000 202.358887L215.192505 202.358887" style="stroke:rgb(80.000305%,80.000305%,80.000305%); stroke-width: 0.199997;stroke-linecap: round;stroke-linejoin: bevel;stroke-miterlimit: 10.000000;fill: none;"></path>
  <path d="M0.000000 190.403748L215.192505 190.403748" style="stroke:rgb(80.000305%,80.000305%,80.000305%); stroke-width: 0.199997;stroke-linecap: round;stroke-linejoin: bevel;stroke-miterlimit: 10.000000;fill: none;"></path>
  <path d="M0.000000 178.448608L215.192505 178.448608" style="stroke:rgb(80.000305%,80.000305%,80.000305%); stroke-width: 0.199997;stroke-linecap: round;stroke-linejoin: bevel;stroke-miterlimit: 10.000000;fill: none;"></path>
  <path d="M0.000000 166.493469L215.192505 166.493469" style="stroke:rgb(80.000305%,80.000305%,80.000305%); stroke-width: 0.199997;stroke-linecap: round;stroke-linejoin: bevel;stroke-miterlimit: 10.000000;fill: none;"></path>
  <path d="M0.000000 154.538330L215.192505 154.538330" style="stroke:rgb(80.000305%,80.000305%,80.000305%); stroke-width: 0.199997;stroke-linecap: round;stroke-linejoin: bevel;stroke-miterlimit: 10.000000;fill: none;"></path>
  <path d="M0.000000 142.583191L215.192505 142.583191" style="stroke:rgb(80.000305%,80.000305%,80.000305%); stroke-width: 0.199997;stroke-linecap: round;stroke-linejoin: bevel;stroke-miterlimit: 10.000000;fill: none;"></path>
  <path d="M0.000000 130.628052L215.192505 130.628052" style="stroke:rgb(80.000305%,80.000305%,80.000305%); stroke-width: 0.199997;stroke-linecap: round;stroke-linejoin: bevel;stroke-miterlimit: 10.000000;fill: none;"></path>
  <path d="M0.000000 118.672913L215.192505 118.672913" style="stroke:rgb(80.000305%,80.000305%,80.000305%); stroke-width: 0.199997;stroke-linecap: round;stroke-linejoin: bevel;stroke-miterlimit: 10.000000;fill: none;"></path>
  <path d="M0.000000 106.717773L215.192505 106.717773" style="stroke:rgb(80.000305%,80.000305%,80.000305%); stroke-width: 0.199997;stroke-linecap: round;stroke-linejoin: bevel;stroke-miterlimit: 10.000000;fill: none;"></path>
  <path d="M0.000000 94.762634L215.192505 94.762634" style="stroke:rgb(80.000305%,80.000305%,80.000305%); stroke-width: 0.199997;stroke-linecap: round;stroke-linejoin: bevel;stroke-miterlimit: 10.000000;fill: none;"></path>
  <path d="M0.000000 82.807495L215.192505 82.807495" style="stroke:rgb(80.000305%,80.000305%,80.000305%); stroke-width: 0.199997;stroke-linecap: round;stroke-linejoin: bevel;stroke-miterlimit: 10.000000;fill: none;"></path>
  <path d="M0.000000 70.852356L215.192505 70.852356" style="stroke:rgb(80.000305%,80.000305%,80.000305%); stroke-width: 0.199997;stroke-linecap: round;stroke-linejoin: bevel;stroke-miterlimit: 10.000000;fill: none;"></path>
  <path d="M0.000000 58.897217L215.192505 58.897217" style="stroke:rgb(80.000305%,80.000305%,80.000305%); stroke-width: 0.199997;stroke-linecap: round;stroke-linejoin: bevel;stroke-miterlimit: 10.000000;fill: none;"></path>
  <path d="M0.000000 46.942078L215.192505 46.942078" style="stroke:rgb(80.000305%,80.000305%,80.000305%); stroke-width: 0.199997;stroke-linecap: round;stroke-linejoin: bevel;stroke-miterlimit: 10.000000;fill: none;"></path>
  <g transform="translate(45.329880 331.330643)" style="fill: rgb(0.000000%,0.000000%,0.000000%);">
    <use xlink:href="#GLYPHcmr10_49"></use>
  </g>
  <path d="M47.820557 321.910278l0 0" style="stroke:rgb(0.000000%,0.000000%,0.000000%); stroke-width: 3.000000;stroke-linecap: round;stroke-linejoin: bevel;stroke-miterlimit: 10.000000;fill: none;"></path>
  <g transform="translate(45.329880 56.362442)" style="fill: rgb(0.000000%,0.000000%,0.000000%);">
    <use xlink:href="#GLYPHcmr10_50"></use>
  </g>
  <path d="M47.820557 46.942078l0 0" style="stroke:rgb(0.000000%,0.000000%,0.000000%); stroke-width: 3.000000;stroke-linecap: round;stroke-linejoin: bevel;stroke-miterlimit: 10.000000;fill: none;"></path>
  <g transform="translate(164.881271 307.420364)" style="fill: rgb(0.000000%,0.000000%,0.000000%);">
    <use xlink:href="#GLYPHcmr10_51"></use>
  </g>
  <path d="M167.371948 298.000000l0 0" style="stroke:rgb(0.000000%,0.000000%,0.000000%); stroke-width: 3.000000;stroke-linecap: round;stroke-linejoin: bevel;stroke-miterlimit: 10.000000;fill: none;"></path>
  <g transform="translate(164.881271 32.452164)" style="fill: rgb(0.000000%,0.000000%,0.000000%);">
    <use xlink:href="#GLYPHcmr10_52"></use>
  </g>
  <path d="M167.371948 23.031799l0 0" style="stroke:rgb(0.000000%,0.000000%,0.000000%); stroke-width: 3.000000;stroke-linecap: round;stroke-linejoin: bevel;stroke-miterlimit: 10.000000;fill: none;"></path>
  <g transform="translate(45.329880 32.452164)" style="fill: rgb(0.000000%,0.000000%,0.000000%);">
    <use xlink:href="#GLYPHcmr10_53"></use>
  </g>
  <path d="M47.820557 23.031799l0 0" style="stroke:rgb(0.000000%,0.000000%,0.000000%); stroke-width: 3.000000;stroke-linecap: round;stroke-linejoin: bevel;stroke-miterlimit: 10.000000;fill: none;"></path>
  <g transform="translate(164.881271 331.330643)" style="fill: rgb(0.000000%,0.000000%,0.000000%);">
    <use xlink:href="#GLYPHcmr10_54"></use>
  </g>
  <path d="M167.371948 321.910278l0 0" style="stroke:rgb(0.000000%,0.000000%,0.000000%); stroke-width: 3.000000;stroke-linecap: round;stroke-linejoin: bevel;stroke-miterlimit: 10.000000;fill: none;"></path>
  <path d="M0.000000 393.641113L0.000000 23.031799L215.192505 23.031799L215.192505 393.641113Z" style="stroke:rgb(100.000000%,0.000000%,0.000000%); stroke-width: 0.199997;stroke-linecap: round;stroke-linejoin: bevel;stroke-miterlimit: 10.000000;fill: none;"></path>
</svg>
