<?xml version="1.0"?>
<!-- Created by MetaPost 1.9991 on 2017.04.10:1254 -->
<svg version="1.1" xmlns="http://www.w3.org/2000/svg" xmlns:xlink="http://www.w3.org/1999/xlink" width="263.213074" height="396.661865" viewBox="0 0 263.213074 396.661865">
<!-- Original BoundingBox: -0.100006 -95.741119 263.113068 300.920746 -->
  <path d="M35.865417 323.910278C38.738358 274.060623,42.165604 224.244461,46.146484 174.471039C50.134460 124.608887,54.677811 74.792725,59.775696 25.031799L59.775696 25.031799C71.391434 57.605637,83.107483 90.143616,94.923645 122.645294C107.013245 155.899078,119.207596 189.114670,131.506531 222.291595L131.506531 222.291595C143.805466 189.114670,155.999817 155.899078,168.089417 122.645294C179.905579 90.143616,191.621628 57.605637,203.237366 25.031799L203.237366 25.031799C208.335251 74.792725,212.878601 124.608887,216.866577 174.471039C220.847458 224.244461,224.274704 274.060623,227.147644 323.910278" style="stroke:rgb(0.000000%,0.000000%,0.000000%); stroke-width: 47.820557;stroke-miterlimit: 10.000000;fill: none;"></path>
  <path d="M11.289871 297.957733C29.056671 296.270126,46.981750 297.704086,64.254288 302.194763L60.440964 349.862823L7.476547 345.625793Z" style="fill: rgb(100.000000%,100.000000%,100.000000%);stroke: none;"></path>
  <path d="M198.758774 302.194763C216.031311 297.704086,233.956390 296.270126,251.723190 297.957733L255.536514 345.625793L202.572098 349.862823Z" style="fill: rgb(100.000000%,100.000000%,100.000000%);stroke: none;"></path>
  <path d="M231.626236 46.747314C214.353699 51.237991,196.428619 52.671951,178.661819 50.984344L174.848495 3.316284L227.812912 -0.920746Z" style="fill: rgb(100.000000%,100.000000%,100.000000%);stroke: none;"></path>
  <path d="M84.351242 50.984344C66.584442 52.671951,48.659363 51.237991,31.386826 46.747314L35.200150 -0.920746L88.164566 3.316284Z" style="fill: rgb(100.000000%,100.000000%,100.000000%);stroke: none;"></path>
  <path d="M0.000000 395.641113L0.000000 25.031799L263.013062 25.031799L263.013062 395.641113Z" style="stroke:rgb(100.000000%,0.000000%,0.000000%); stroke-width: 0.199997;stroke-linecap: round;stroke-miterlimit: 10.000000;fill: none;"></path>
</svg>
