<?xml version="1.0"?>
<!-- Created by MetaPost 1.9991 on 2017.04.10:1254 -->
<svg version="1.1" xmlns="http://www.w3.org/2000/svg" xmlns:xlink="http://www.w3.org/1999/xlink" width="211.307465" height="370.809326" viewBox="0 0 211.307465 370.809326">
<!-- Original BoundingBox: -0.100006 -95.741119 211.207458 275.068207 -->
  <path d="M47.820557 298.910278C47.541855 257.147644,47.402252 215.384201,47.401718 173.620651C47.401184 131.697540,47.540802 89.774536,47.820557 47.852356L47.820557 47.852356C71.102844 47.581085,94.386520 47.445679,117.670395 47.446106C140.879913 47.446533,164.089233 47.581955,187.297180 47.852356" style="stroke:rgb(0.000000%,0.000000%,0.000000%); stroke-width: 47.820557;stroke-miterlimit: 10.000000;fill: none;"></path>
  <path d="M47.812424 143.493469C71.245773 143.413101,94.679260 143.373245,118.112747 143.373886C141.174271 143.374512,164.235794 143.414383,187.297180 143.493469" style="stroke:rgb(0.000000%,0.000000%,0.000000%); stroke-width: 47.820557;stroke-miterlimit: 10.000000;fill: none;"></path>
  <path d="M21.253632 275.000000C38.829346 271.900970,56.811768 271.900970,74.387482 275.000000L74.387482 322.820557L21.253632 322.820557Z" style="fill: rgb(100.000000%,100.000000%,100.000000%);stroke: none;"></path>
  <path d="M163.386902 74.419281C160.287872 56.843567,160.287872 38.861145,163.386902 21.285431L211.207458 21.285431L211.207458 74.419281Z" style="fill: rgb(100.000000%,100.000000%,100.000000%);stroke: none;"></path>
  <path d="M163.386902 170.060394C160.287872 152.484680,160.287872 134.502258,163.386902 116.926544L211.207458 116.926544L211.207458 170.060394Z" style="fill: rgb(100.000000%,100.000000%,100.000000%);stroke: none;"></path>
  <path d="M0.000000 370.641113L0.000000 0.031799L179.327087 0.031799L179.327087 370.641113Z" style="stroke:rgb(100.000000%,0.000000%,0.000000%); stroke-width: 0.199997;stroke-linecap: round;stroke-miterlimit: 10.000000;fill: none;"></path>
</svg>
