<?xml version="1.0"?>
<!-- Created by MetaPost 1.9991 on 2017.04.10:1254 -->
<svg version="1.1" xmlns="http://www.w3.org/2000/svg" xmlns:xlink="http://www.w3.org/1999/xlink" width="270.413712" height="403.151566" viewBox="0 0 270.413712 403.151566">
<!-- Original BoundingBox: -33.837585 -95.741119 236.576126 307.410446 -->
  <path d="M33.000000 32.031799C48.816589 73.862610,64.685089 115.673767,80.605484 157.465179C96.565247 199.359940,112.577133 241.234818,128.641113 283.089722L140.596252 283.089722C156.660233 241.234818,172.672119 199.359940,188.631882 157.465179C204.552277 115.673767,220.420776 73.862610,236.237366 32.031799" style="stroke:rgb(0.000000%,0.000000%,0.000000%); stroke-width: 47.820557;stroke-miterlimit: 10.000000;fill: none;"></path>
  <path d="M66.837585 43.543503C51.903748 53.315414,35.375305 60.399063,17.999939 64.474045L-0.837585 20.520096L48.000061 -0.410446Z" style="fill: rgb(100.000000%,100.000000%,100.000000%);stroke: none;"></path>
  <path d="M252.551865 63.833710C235.024216 60.472733,218.219742 54.070938,202.898605 44.917908L219.922867 0.229889L269.576126 19.145691Z" style="fill: rgb(100.000000%,100.000000%,100.000000%);stroke: none;"></path>
  <path d="M33.000000 402.641113L33.000000 32.031799L236.237366 32.031799L236.237366 402.641113Z" style="stroke:rgb(100.000000%,0.000000%,0.000000%); stroke-width: 0.199997;stroke-linecap: round;stroke-miterlimit: 10.000000;fill: none;"></path>
</svg>
