<?xml version="1.0"?>
<!-- Created by MetaPost 1.9991 on 2017.04.10:1254 -->
<svg version="1.1" xmlns="http://www.w3.org/2000/svg" xmlns:xlink="http://www.w3.org/1999/xlink" width="211.307465" height="394.619598" viewBox="0 0 211.307465 394.619598">
<!-- Original BoundingBox: -0.100006 -95.741119 211.207458 298.878479 -->
  <path d="M187.297180 274.089722C164.261505 275.433884,141.191757 276.111786,118.116898 276.122528C94.669937 276.133453,71.227707 275.455566,47.820557 274.089722L47.820557 274.089722C47.540802 232.167542,47.401184 190.244537,47.401718 148.321426C47.402252 106.557877,47.541870 64.794434,47.820557 23.031799" style="stroke:rgb(0.000000%,0.000000%,0.000000%); stroke-width: 47.820557;stroke-miterlimit: 10.000000;fill: none;"></path>
  <path d="M163.386902 300.656647C160.287872 283.080933,160.287872 265.098511,163.386902 247.522797L211.207458 247.522797L211.207458 300.656647Z" style="fill: rgb(100.000000%,100.000000%,100.000000%);stroke: none;"></path>
  <path d="M74.387482 46.942078C56.811768 50.041107,38.829346 50.041107,21.253632 46.942078L21.253632 -0.878479L74.387482 -0.878479Z" style="fill: rgb(100.000000%,100.000000%,100.000000%);stroke: none;"></path>
  <path d="M0.000000 393.641113L0.000000 23.031799L179.327087 23.031799L179.327087 393.641113Z" style="stroke:rgb(100.000000%,0.000000%,0.000000%); stroke-width: 0.199997;stroke-linecap: round;stroke-miterlimit: 10.000000;fill: none;"></path>
</svg>
