<?xml version="1.0"?>
<!-- Created by MetaPost 1.9991 on 2017.04.10:1254 -->
<svg version="1.1" xmlns="http://www.w3.org/2000/svg" xmlns:xlink="http://www.w3.org/1999/xlink" width="363.445343" height="401.204285" viewBox="0 0 363.445343 401.204285">
<!-- Original BoundingBox: -32.283432 -95.741119 331.161911 305.463165 -->
  <path d="M32.000000 30.031799C44.175705 71.880539,56.479675 113.691879,68.911743 155.465179C81.385529 197.378693,93.988220 239.253738,106.719620 281.089722L118.674759 281.089722C128.992111 247.473160,138.414124 213.588303,146.930817 179.471039C155.335815 145.801178,162.856171 111.916626,169.484100 77.852356L181.439240 77.852356C193.899200 111.392639,205.406631 145.279114,215.947678 179.471039C226.307510 213.075165,235.729828 246.961182,244.203720 281.089722L256.158859 281.089722C268.890274 239.253738,281.492966 197.378693,293.966751 155.465179C306.398819 113.691879,318.702774 71.880539,330.878479 30.031799" style="stroke:rgb(0.000000%,0.000000%,0.000000%); stroke-width: 47.820557;stroke-miterlimit: 10.000000;fill: none;"></path>
  <path d="M64.283432 45.370453C48.321976 53.354156,31.086716 58.483612,13.357285 60.526764L-0.283432 14.693146L50.642715 -0.463165Z" style="fill: rgb(100.000000%,100.000000%,100.000000%);stroke: none;"></path>
  <path d="M349.521194 60.526764C331.791763 58.483612,314.556503 53.354156,298.595047 45.370453L312.235764 -0.463165L363.161911 14.693146Z" style="fill: rgb(100.000000%,100.000000%,100.000000%);stroke: none;"></path>
  <path d="M32.000000 400.641113L32.000000 30.031799L330.878479 30.031799L330.878479 400.641113Z" style="stroke:rgb(100.000000%,0.000000%,0.000000%); stroke-width: 0.199997;stroke-linecap: round;stroke-miterlimit: 10.000000;fill: none;"></path>
</svg>
