<?xml version="1.0"?>
<!-- Created by MetaPost 1.999 on 2016.06.13:1602 -->
<svg version="1.1" xmlns="http://www.w3.org/2000/svg" xmlns:xlink="http://www.w3.org/1999/xlink" width="957.411133" height="1196.513916" viewBox="0 0 957.411133 1196.513916">
<!-- Original BoundingBox: -120.051392 -239.602783 837.359741 956.911133 -->
  <g transform="matrix(1.000000,-0.000000,-0.000000,0.899994,0.000000,0.000000)">
    <path d="M209.663544 597.304210C209.663544 479.217129,209.674042 321.789656,252.703033 256.980068C295.732010 192.170498,395.102509 192.154662,478.654175 192.154662C562.205841 192.154662,661.576340 192.170498,704.605316 256.980068C747.634308 321.789656,747.644806 479.217129,747.644806 597.304210" style="stroke:rgb(0.000000%,0.000000%,0.000000%); stroke-width: 119.551392;stroke-miterlimit: 10.000000;fill: none;"></path>
  </g>
  <g transform="matrix(1.000000,-0.000000,-0.000000,0.899994,0.000000,0.000000)">
    <path d="M209.663544 597.304210C209.663544 715.391290,209.674042 872.818764,252.703033 937.628351C295.732010 1002.437922,395.102509 1002.453757,478.654175 1002.453757C562.205841 1002.453757,661.576340 1002.437922,704.605316 937.628351C747.634308 872.818764,747.644806 715.391290,747.644806 597.304210" style="stroke:rgb(0.000000%,0.000000%,0.000000%); stroke-width: 119.551392;stroke-miterlimit: 10.000000;fill: none;"></path>
  </g>
  <g transform="matrix(1.000000,-0.000000,-0.000000,0.899994,0.000000,0.000000)">
    <path d="M478.654175 796.557885L717.756958 1155.214095" style="stroke:rgb(0.000000%,0.000000%,0.000000%); stroke-width: 119.551392;stroke-miterlimit: 10.000000;fill: none;"></path>
  </g>
  <path d="M0.448608 1195.102783L956.859741 1195.102783L956.859741 -0.411133L0.448608 -0.411133Z" style="stroke:rgb(100.000000%,100.000000%,100.000000%); stroke-width: 1.000000;stroke-linecap: round;stroke-miterlimit: 10.000000;fill: none;"></path>
</svg>
