<?xml version="1.0"?>
<!-- Created by MetaPost 1.999 on 2016.06.13:1507 -->
<svg version="1.1" xmlns="http://www.w3.org/2000/svg" xmlns:xlink="http://www.w3.org/1999/xlink" width="957.411133" height="1196.513916" viewBox="0 0 957.411133 1196.513916">
<!-- Original BoundingBox: -120.051392 -239.602783 837.359741 956.911133 -->
  <g transform="matrix(1.000000,-0.000000,-0.000000,0.899994,0.000000,0.000000)">
    <path d="M478.654175 192.154662C557.438095 192.154662,661.576340 192.163868,704.605316 229.880919C747.634293 267.597969,747.644806 355.379820,747.644806 427.938382C747.644806 500.496944,747.634293 588.278795,704.605316 625.995845C661.576340 663.712895,557.438095 663.722102,478.654175 663.722102" style="stroke:rgb(0.000000%,0.000000%,0.000000%); stroke-width: 119.551392;stroke-linecap: round;stroke-miterlimit: 10.000000;fill: none;"></path>
  </g>
  <g transform="matrix(1.000000,-0.000000,-0.000000,0.899994,0.000000,0.000000)">
    <path d="M239.551392 1062.229453L239.551392 192.154662L478.654175 192.154662" style="stroke:rgb(0.000000%,0.000000%,0.000000%); stroke-width: 119.551392;stroke-miterlimit: 10.000000;fill: none;"></path>
  </g>
  <g transform="matrix(1.000000,-0.000000,-0.000000,0.899994,0.000000,0.000000)">
    <path d="M478.654175 663.722102L239.551392 663.722102" style="stroke:rgb(0.000000%,0.000000%,0.000000%); stroke-width: 119.551392;stroke-miterlimit: 10.000000;fill: none;"></path>
  </g>
  <g transform="matrix(1.000000,-0.000000,-0.000000,0.899994,0.000000,0.000000)">
    <path d="M478.654175 663.722102L777.532654 1035.662703" style="stroke:rgb(0.000000%,0.000000%,0.000000%); stroke-width: 119.551392;stroke-miterlimit: 10.000000;fill: none;"></path>
  </g>
  <path d="M0.448608 1195.102783L956.859741 1195.102783L956.859741 -0.411133L0.448608 -0.411133Z" style="stroke:rgb(100.000000%,100.000000%,100.000000%); stroke-width: 1.000000;stroke-linecap: round;stroke-miterlimit: 10.000000;fill: none;"></path>
</svg>
