<?xml version="1.0"?>
<!-- Created by MetaPost 1.9991 on 2017.07.28:1115 -->
<svg version="1.1" xmlns="http://www.w3.org/2000/svg" xmlns:xlink="http://www.w3.org/1999/xlink" width="239.302795" height="538.181274" viewBox="0 0 239.302795 538.181274">
<!-- Original BoundingBox: -0.100006 -143.561676 239.202789 394.619598 -->
  <path d="M123.496613 370.669662C122.182526 370.734421,120.867081 370.768295,119.551392 370.768295C118.235703 370.768295,116.920258 370.734421,115.606171 370.669662C67.195526 368.283768,28.889008 328.979828,26.899063 280.426178C26.735825 276.443375,26.846283 272.456482,26.899063 268.471039C26.951874 264.484467,26.947006 260.495224,27.197937 256.515900C30.248398 208.140457,67.646347 168.656723,115.606171 166.272415C116.920227 166.207092,118.235703 166.173782,119.551392 166.173782C120.867081 166.173782,122.182556 166.207092,123.496613 166.272415C171.456421 168.656708,208.854370 208.140442,211.904846 256.515900C212.155777 260.495224,212.150909 264.484467,212.203720 268.471039C212.256500 272.456482,212.366959 276.443375,212.203720 280.426178C210.213745 328.979828,171.907242 368.283752,123.496613 370.669662Z" style="stroke:rgb(0.000000%,0.000000%,0.000000%); stroke-width: 53.798126;stroke-miterlimit: 10.000000;fill: none;"></path>
  <path d="M0.000000 394.000000L0.000000 394.000000L0.000000 394.000000L0.000000 394.000000L0.000000 394.000000L0.000000 394.000000L0.000000 394.000000L0.000000 394.000000L0.000000 394.000000L0.000000 394.000000Z" style="fill: rgb(100.000000%,100.000000%,100.000000%);stroke: none;"></path>
  <path d="M176.225327 186.535355C196.658508 203.103958,210.125412 228.297134,211.904846 256.515900C212.155777 260.495224,212.150909 264.484467,212.203720 268.471039C212.256500 272.456482,212.366959 276.443375,212.203720 280.426178C210.835617 313.806808,192.302277 342.815506,165.121445 358.461426" style="stroke:rgb(100.000000%,100.000000%,100.000000%); stroke-width: 53.798126;stroke-miterlimit: 10.000000;fill: none;"></path>
  <path d="M0.000000 537.461670L0.000000 -0.519592L239.102783 -0.519592L239.102783 537.461670Z" style="stroke:rgb(100.000000%,0.000000%,0.000000%); stroke-width: 0.199997;stroke-miterlimit: 10.000000;fill: none;"></path>
</svg>
