<?xml version="1.0"?>
<!-- Created by MetaPost 1.9991 on 2017.07.28:1115 -->
<svg version="1.1" xmlns="http://www.w3.org/2000/svg" xmlns:xlink="http://www.w3.org/1999/xlink" width="245.080353" height="538.181274" viewBox="0 0 245.080353 538.181274">
<!-- Original BoundingBox: -26.899063 -143.561676 218.181290 394.619598 -->
  <path d="M26.000000 268.471039L121.641113 268.471039L217.282227 268.471039" style="stroke:rgb(0.000000%,0.000000%,0.000000%); stroke-width: 53.798126;stroke-miterlimit: 10.000000;fill: none;"></path>
  <path d="M52.899063 232.605621C55.731247 232.463638,58.003433 234.916122,57.646011 237.729248C57.348022 240.074646,55.255096 241.768890,52.899063 241.571976L52.899063 241.571976C48.177292 259.193863,48.177292 277.748215,52.899063 295.370102L52.899063 295.370102C55.255112 295.173172,57.348022 296.867416,57.646011 299.212830C58.003433 302.025955,55.731247 304.478439,52.899063 304.336456L26.000000 304.336456L26.000000 232.605621Z" style="fill: rgb(100.000000%,100.000000%,100.000000%);stroke: none;"></path>
  <path d="M190.383163 304.336456C187.550980 304.478439,185.278793 302.025955,185.636215 299.212830C185.934204 296.867432,188.027130 295.173187,190.383163 295.370102L190.383163 295.370102C195.104935 277.748215,195.104935 259.193863,190.383163 241.571976L190.383163 241.571976C188.027115 241.768906,185.934204 240.074661,185.636215 237.729248C185.278793 234.916122,187.550980 232.463638,190.383163 232.605621L217.282227 232.605621L217.282227 304.336456Z" style="fill: rgb(100.000000%,100.000000%,100.000000%);stroke: none;"></path>
  <path d="M26.000000 537.461670L26.000000 -0.519592L217.282227 -0.519592L217.282227 537.461670Z" style="stroke:rgb(100.000000%,0.000000%,0.000000%); stroke-width: 0.199997;stroke-linecap: round;stroke-miterlimit: 10.000000;fill: none;"></path>
</svg>
