<?xml version="1.0"?>
<!-- Created by MetaPost 1.9991 on 2017.07.28:1115 -->
<svg version="1.1" xmlns="http://www.w3.org/2000/svg" xmlns:xlink="http://www.w3.org/1999/xlink" width="179.527100" height="538.181274" viewBox="0 0 179.527100 538.181274">
<!-- Original BoundingBox: -0.100006 -143.561676 179.427094 394.619598 -->
  <path d="M125.528961 420.899063C126.711807 379.514938,127.309662 338.116165,127.322342 296.715134C127.335281 254.417374,126.737427 212.121628,125.528961 169.841141L112.079422 169.841141C99.838303 175.920639,87.658371 182.122604,75.541489 188.446106C59.210068 196.969070,42.994431 205.712143,26.899063 214.672913" style="stroke:rgb(0.000000%,0.000000%,0.000000%); stroke-width: 53.798126;stroke-miterlimit: 10.000000;fill: none;"></path>
  <path d="M89.663544 394.000000C89.521561 391.167816,91.974045 388.895630,94.787170 389.253052C97.132568 389.551041,98.826813 391.643967,98.629898 394.000000L98.629898 394.000000C116.251785 398.721771,134.806137 398.721771,152.428024 394.000000L152.428024 394.000000C152.231094 391.643951,153.925339 389.551041,156.270752 389.253052C159.083878 388.895630,161.536362 391.167816,161.394379 394.000000L161.394379 420.899063L89.663544 420.899063Z" style="fill: rgb(100.000000%,100.000000%,100.000000%);stroke: none;"></path>
  <path d="M36.545944 170.891190C39.065521 169.589966,42.148895 170.882416,42.987579 173.591293C43.686844 175.849777,42.482590 178.258224,40.256241 179.053894L40.256241 179.053894C43.249680 197.050217,50.927536 213.941544,62.518082 228.030090L62.518082 228.030090C64.581451 226.875885,67.187866 227.552216,68.429688 229.564102C69.919159 231.977173,68.865479 235.150085,66.228378 236.192795L41.740280 247.323715L12.057846 182.022110Z" style="fill: rgb(100.000000%,100.000000%,100.000000%);stroke: none;"></path>
  <path d="M161.394379 142.942078C161.536362 145.774261,159.083878 148.046448,156.270752 147.689026C153.925354 147.391037,152.231110 145.298111,152.428024 142.942078L152.428024 142.942078C134.806137 138.220306,116.251785 138.220306,98.629898 142.942078L98.629898 142.942078C98.826828 145.298126,97.132584 147.391037,94.787170 147.689026C91.974045 148.046448,89.521561 145.774261,89.663544 142.942078L89.663544 116.043015L161.394379 116.043015Z" style="fill: rgb(100.000000%,100.000000%,100.000000%);stroke: none;"></path>
  <path d="M0.000000 537.461670L0.000000 -0.519592L179.327087 -0.519592L179.327087 537.461670Z" style="stroke:rgb(100.000000%,0.000000%,0.000000%); stroke-width: 0.199997;stroke-linecap: round;stroke-miterlimit: 10.000000;fill: none;"></path>
</svg>
