<?xml version="1.0"?>
<!-- Created by MetaPost 1.9991 on 2017.07.28:1115 -->
<svg version="1.1" xmlns="http://www.w3.org/2000/svg" xmlns:xlink="http://www.w3.org/1999/xlink" width="268.990631" height="538.181274" viewBox="0 0 268.990631 538.181274">
<!-- Original BoundingBox: -26.899063 -143.561676 242.091568 394.619598 -->
  <path d="M26.000000 142.942078C61.234650 134.674881,97.304718 130.496078,133.496246 130.488419C169.754669 130.480743,205.892731 134.659637,241.192505 142.942078L241.192505 156.391617L133.496246 268.571045L26.000000 380.550461L26.000000 394.000000C61.215393 402.399078,97.293106 406.645874,133.496246 406.653671C169.766281 406.661469,205.912048 402.414566,241.192505 394.000000" style="stroke:rgb(0.000000%,0.000000%,0.000000%); stroke-width: 53.798126;stroke-miterlimit: 10.000000;fill: none;"></path>
  <path d="M52.899063 107.076660C55.731247 106.934677,58.003433 109.387161,57.646011 112.200287C57.348022 114.545685,55.255096 116.239929,52.899063 116.043015L52.899063 116.043015C48.177292 133.664902,48.177292 152.219254,52.899063 169.841141L52.899063 169.841141C55.255112 169.644211,57.348022 171.338455,57.646011 173.683868C58.003433 176.496994,55.731247 178.949478,52.899063 178.807495L26.000000 178.807495L26.000000 107.076660Z" style="fill: rgb(100.000000%,100.000000%,100.000000%);stroke: none;"></path>
  <path d="M223.259796 178.807495C220.427612 178.949478,218.155426 176.496994,218.512848 173.683868C218.810837 171.338470,220.903763 169.644226,223.259796 169.841141L223.259796 169.841141C227.981567 152.219254,227.981567 133.664902,223.259796 116.043015L223.259796 116.043015C220.903748 116.239944,218.810837 114.545700,218.512848 112.200287C218.155426 109.387161,220.427612 106.934677,223.259796 107.076660L250.158859 107.076660L250.158859 178.807495Z" style="fill: rgb(100.000000%,100.000000%,100.000000%);stroke: none;"></path>
  <path d="M43.932709 358.134583C46.764893 357.992599,49.037079 360.445084,48.679657 363.258209C48.381668 365.603607,46.288742 367.297852,43.932709 367.100937L43.932709 367.100937C39.210938 384.722824,39.210938 403.277176,43.932709 420.899063L43.932709 420.899063C46.288757 420.702133,48.381668 422.396378,48.679657 424.741791C49.037079 427.554916,46.764893 430.007401,43.932709 429.865417L17.033646 429.865417L17.033646 358.134583Z" style="fill: rgb(100.000000%,100.000000%,100.000000%);stroke: none;"></path>
  <path d="M214.293442 429.865417C211.461258 430.007401,209.189072 427.554916,209.546494 424.741791C209.844482 422.396393,211.937408 420.702148,214.293442 420.899063L214.293442 420.899063C219.015213 403.277176,219.015213 384.722824,214.293442 367.100937L214.293442 367.100937C211.937393 367.297867,209.844482 365.603622,209.546494 363.258209C209.189072 360.445084,211.461258 357.992599,214.293442 358.134583L241.192505 358.134583L241.192505 429.865417Z" style="fill: rgb(100.000000%,100.000000%,100.000000%);stroke: none;"></path>
  <path d="M26.000000 537.461670L26.000000 -0.519592L241.192505 -0.519592L241.192505 537.461670Z" style="stroke:rgb(100.000000%,0.000000%,0.000000%); stroke-width: 0.199997;stroke-linecap: round;stroke-miterlimit: 10.000000;fill: none;"></path>
</svg>
