<?xml version="1.0"?>
<!-- Created by MetaPost 1.9991 on 2017.07.28:1115 -->
<svg version="1.1" xmlns="http://www.w3.org/2000/svg" xmlns:xlink="http://www.w3.org/1999/xlink" width="215.292511" height="538.181274" viewBox="0 0 215.292511 538.181274">
<!-- Original BoundingBox: -0.100006 -143.561676 215.192505 394.619598 -->
  <path d="M188.293442 367.100937C170.062775 378.933640,149.028946 385.738586,127.322128 386.826614C101.351532 388.128357,75.629501 381.227417,53.798126 367.100937L53.798126 367.100937C51.355118 324.405273,50.159027 281.647385,50.211365 238.881912C50.261520 197.910187,51.457565 156.947861,53.798126 116.043015" style="stroke:rgb(0.000000%,0.000000%,0.000000%); stroke-width: 53.798126;stroke-miterlimit: 10.000000;fill: none;"></path>
  <path d="M161.394379 402.966354C158.562195 403.108337,156.290009 400.655853,156.647430 397.842728C156.945419 395.497330,159.038345 393.803085,161.394379 394.000000L161.394379 394.000000C166.116150 376.378113,166.116150 357.823761,161.394379 340.201874L161.394379 340.201874C159.038330 340.398804,156.945419 338.704559,156.647430 336.359146C156.290009 333.546021,158.562195 331.093536,161.394379 331.235519L188.293442 331.235519L188.293442 402.966354Z" style="fill: rgb(100.000000%,100.000000%,100.000000%);stroke: none;"></path>
  <path d="M89.663544 142.942078C89.805527 145.774261,87.353043 148.046448,84.539917 147.689026C82.194519 147.391037,80.500275 145.298111,80.697189 142.942078L80.697189 142.942078C63.075302 138.220306,44.520950 138.220306,26.899063 142.942078L26.899063 142.942078C27.095993 145.298126,25.401749 147.391037,23.056335 147.689026C20.243210 148.046448,17.790726 145.774261,17.932709 142.942078L17.932709 116.043015L89.663544 116.043015Z" style="fill: rgb(100.000000%,100.000000%,100.000000%);stroke: none;"></path>
  <path d="M0.000000 537.461670L0.000000 -0.519592L179.327087 -0.519592L179.327087 537.461670Z" style="stroke:rgb(100.000000%,0.000000%,0.000000%); stroke-width: 0.199997;stroke-linecap: round;stroke-miterlimit: 10.000000;fill: none;"></path>
</svg>
