<?xml version="1.0"?>
<!-- Created by MetaPost 1.9991 on 2017.07.28:1115 -->
<svg version="1.1" xmlns="http://www.w3.org/2000/svg" xmlns:xlink="http://www.w3.org/1999/xlink" width="239.302795" height="538.181274" viewBox="0 0 239.302795 538.181274">
<!-- Original BoundingBox: -0.100006 -143.561676 239.202789 394.619598 -->
  <path d="M176.225327 186.535355C161.629898 174.700378,143.480103 167.265884,123.496613 166.272415C122.182556 166.207092,120.867081 166.173782,119.551392 166.173782C118.235703 166.173782,116.920227 166.207092,115.606171 166.272415C67.646347 168.656723,30.248398 208.140457,27.197937 256.515900C26.947006 260.495224,26.951874 264.484467,26.899063 268.471039C26.846283 272.456482,26.735825 276.443375,26.899063 280.426178C28.889008 328.979828,67.195526 368.283768,115.606171 370.669662C116.920258 370.734421,118.235703 370.768295,119.551392 370.768295C120.867081 370.768295,122.182526 370.734421,123.496613 370.669662" style="stroke:rgb(0.000000%,0.000000%,0.000000%); stroke-width: 53.798126;stroke-miterlimit: 10.000000;fill: none;"></path>
  <path d="M119.551392 370.768295C120.867081 370.768295,122.182526 370.734421,123.496613 370.669662C166.828766 368.534042,202.065536 336.819839,210.408737 295.369293L92.652328 295.370102" style="stroke:rgb(0.000000%,0.000000%,0.000000%); stroke-width: 53.798126;stroke-miterlimit: 10.000000;fill: none;"></path>
  <path d="M119.551392 259.504684C122.383575 259.362701,124.655762 261.815186,124.298340 264.628311C124.000351 266.973709,121.907425 268.667953,119.551392 268.471039L119.551392 268.471039C114.829620 286.092926,114.829620 304.647278,119.551392 322.269165L119.551392 322.269165C121.907440 322.072235,124.000351 323.766479,124.298340 326.111893C124.655762 328.925018,122.383575 331.377502,119.551392 331.235519L92.652328 331.235519L92.652328 259.504684Z" style="fill: rgb(100.000000%,100.000000%,100.000000%);stroke: none;"></path>
  <path d="M0.000000 537.461670L0.000000 -0.519592L239.102783 -0.519592L239.102783 537.461670Z" style="stroke:rgb(100.000000%,0.000000%,0.000000%); stroke-width: 0.199997;stroke-miterlimit: 10.000000;fill: none;"></path>
</svg>
