<?xml version="1.0"?>
<!-- Created by MetaPost 1.9991 on 2017.07.28:1115 -->
<svg version="1.1" xmlns="http://www.w3.org/2000/svg" xmlns:xlink="http://www.w3.org/1999/xlink" width="255.236450" height="538.181274" viewBox="0 0 255.236450 538.181274">
<!-- Original BoundingBox: -31.977112 -143.561676 223.259338 394.619598 -->
  <path d="M126.641113 420.899063L126.641113 372.033005L126.641113 304.336456" style="stroke:rgb(0.000000%,0.000000%,0.000000%); stroke-width: 53.798126;stroke-miterlimit: 10.000000;fill: none;"></path>
  <path d="M31.000000 116.043015C46.119385 146.739609,61.422348 177.345459,76.908051 207.858887C93.282074 240.122650,109.860092 272.282501,126.641113 304.336456" style="stroke:rgb(0.000000%,0.000000%,0.000000%); stroke-width: 53.798126;stroke-miterlimit: 10.000000;fill: none;"></path>
  <path d="M222.282227 116.043015C207.162842 146.739609,191.859879 177.345459,176.374176 207.858887C160.000153 240.122650,143.422134 272.282501,126.641113 304.336456" style="stroke:rgb(0.000000%,0.000000%,0.000000%); stroke-width: 53.798126;stroke-miterlimit: 10.000000;fill: none;"></path>
  <path d="M75.158768 123.783630C76.567963 126.244461,75.410355 129.380981,72.740356 130.336258C70.514282 131.132721,68.055893 130.033981,67.164490 127.844193L67.164490 127.844193C49.314743 131.614670,32.771927 140.017288,19.198822 152.207504L19.198822 152.207504C20.441376 154.218948,19.878616 156.852219,17.922424 158.180069C15.576157 159.772705,12.360565 158.857498,11.204544 156.268066L-0.977112 132.285233L62.977112 99.800797Z" style="fill: rgb(100.000000%,100.000000%,100.000000%);stroke: none;"></path>
  <path d="M242.077682 156.268066C240.921661 158.857498,237.706070 159.772705,235.359802 158.180069C233.403625 156.852234,232.840866 154.218948,234.083405 152.207504L234.083405 152.207504C220.510300 140.017288,203.967484 131.614670,186.117737 127.844193L186.117737 127.844193C185.226349 130.033981,182.767960 131.132736,180.541870 130.336258C177.871872 129.380981,176.714264 126.244461,178.123459 123.783630L190.305115 99.800797L254.259338 132.285233Z" style="fill: rgb(100.000000%,100.000000%,100.000000%);stroke: none;"></path>
  <path d="M90.775696 394.000000C90.633713 391.167816,93.086197 388.895630,95.899323 389.253052C98.244720 389.551041,99.938965 391.643967,99.742050 394.000000L99.742050 394.000000C117.363937 398.721771,135.918289 398.721771,153.540176 394.000000L153.540176 394.000000C153.343246 391.643951,155.037491 389.551041,157.382904 389.253052C160.196030 388.895630,162.648514 391.167816,162.506531 394.000000L162.506531 420.899063L90.775696 420.899063Z" style="fill: rgb(100.000000%,100.000000%,100.000000%);stroke: none;"></path>
  <path d="M31.000000 537.461670L31.000000 -0.519592L222.282227 -0.519592L222.282227 537.461670Z" style="stroke:rgb(100.000000%,0.000000%,0.000000%); stroke-width: 0.199997;stroke-linecap: round;stroke-miterlimit: 10.000000;fill: none;"></path>
</svg>
