<?xml version="1.0"?>
<!-- Created by MetaPost 1.9991 on 2017.07.28:1115 -->
<svg version="1.1" xmlns="http://www.w3.org/2000/svg" xmlns:xlink="http://www.w3.org/1999/xlink" width="239.302795" height="538.181274" viewBox="0 0 239.302795 538.181274">
<!-- Original BoundingBox: -0.100006 -143.561676 239.202789 394.619598 -->
  <path d="M53.789871 115.713013L53.798126 116.043015L53.798126 116.373016C53.665588 142.645172,52.973862 192.564819,53.789871 218.826096C53.793289 218.936081,53.796738 219.046066,53.798126 219.156097C53.799515 219.266098,53.798828 219.376099,53.798126 219.486099C53.663498 240.776459,53.125443 281.230469,53.789871 302.512054C53.793304 302.622040,53.796783 302.732025,53.798126 302.842056C53.799469 302.952057,53.798660 303.062057,53.798126 303.172058C53.616699 340.672150,82.615372 372.107986,119.221390 370.776550C119.331360 370.772552,119.450714 370.768204,119.551392 370.768295C119.632690 370.768372,119.771408 370.772934,119.881393 370.776550C146.563934 371.654770,180.150314 331.051254,185.304657 303.172058C185.325058 303.061752,185.344437 302.947189,185.304657 302.842056C185.251373 302.701233,185.191269 302.540741,185.312912 302.512054C185.747513 302.409592,185.736389 303.285492,185.304657 303.172058C185.183792 303.140305,185.248047 302.981430,185.304657 302.842056C185.346954 302.737915,185.330154 302.622894,185.312912 302.512054C182.030426 281.398270,185.425919 240.822403,185.304657 219.486099C185.304031 219.376099,185.303314 219.266098,185.304657 219.156097C185.306000 219.046066,185.309418 218.936081,185.312912 218.826096C186.153397 192.379913,192.386993 141.978378,185.304657 116.373016C185.273880 116.261749,185.245285 116.141418,185.304657 116.043015C185.410141 115.868179,185.436234 115.680740,185.312912 115.713013C185.184708 115.746567,185.178284 116.003082,185.304657 116.043015L185.304657 116.043015" style="stroke:rgb(0.000000%,0.000000%,0.000000%); stroke-width: 53.798126;stroke-miterlimit: 10.000000;fill: none;"></path>
  <path d="M89.663544 142.942078C89.805527 145.774261,87.353043 148.046448,84.539917 147.689026C82.194519 147.391037,80.500275 145.298111,80.697189 142.942078L80.697189 142.942078C63.075302 138.220306,44.520950 138.220306,26.899063 142.942078L26.899063 142.942078C27.095993 145.298126,25.401749 147.391037,23.056335 147.689026C20.243210 148.046448,17.790726 145.774261,17.932709 142.942078L17.932709 116.043015L89.663544 116.043015Z" style="fill: rgb(100.000000%,100.000000%,100.000000%);stroke: none;"></path>
  <path d="M221.170074 142.942078C221.312057 145.774261,218.859573 148.046448,216.046448 147.689026C213.701050 147.391037,212.006805 145.298111,212.203720 142.942078L212.203720 142.942078C194.581833 138.220306,176.027481 138.220306,158.405594 142.942078L158.405594 142.942078C158.602524 145.298126,156.908279 147.391037,154.562866 147.689026C151.749741 148.046448,149.297256 145.774261,149.439240 142.942078L149.439240 116.043015L221.170074 116.043015Z" style="fill: rgb(100.000000%,100.000000%,100.000000%);stroke: none;"></path>
  <path d="M0.000000 537.461670L0.000000 -0.519592L239.102783 -0.519592L239.102783 537.461670Z" style="stroke:rgb(100.000000%,0.000000%,0.000000%); stroke-width: 0.199997;stroke-miterlimit: 10.000000;fill: none;"></path>
</svg>
