<?xml version="1.0"?>
<!-- Created by MetaPost 1.9991 on 2017.07.28:1115 -->
<svg version="1.1" xmlns="http://www.w3.org/2000/svg" xmlns:xlink="http://www.w3.org/1999/xlink" width="263.213074" height="538.181274" viewBox="0 0 263.213074 538.181274">
<!-- Original BoundingBox: -0.100006 -143.561676 263.113068 394.619598 -->
  <path d="M53.798126 420.899063C43.663879 376.172073,38.452408 330.470749,38.256683 284.610428C38.053284 236.951355,43.267212 189.423569,53.798126 142.942078" style="stroke:rgb(0.000000%,0.000000%,0.000000%); stroke-width: 53.798126;stroke-miterlimit: 10.000000;fill: none;"></path>
  <path d="M53.798126 142.942078C63.605515 165.314362,73.969910 187.438309,84.881607 209.293259C99.461884 238.495956,115.012161 267.204193,131.506531 295.370102L131.506531 295.370102C148.000900 267.204193,163.551178 238.495956,178.131454 209.293243C189.043152 187.438309,199.407547 165.314346,209.214935 142.942078" style="stroke:rgb(0.000000%,0.000000%,0.000000%); stroke-width: 53.798126;stroke-linecap: round;stroke-miterlimit: 10.000000;fill: none;"></path>
  <path d="M209.214935 142.942078C219.745850 189.423569,224.959793 236.951355,224.756378 284.610443C224.560654 330.470764,219.349182 376.172073,209.214935 420.899063" style="stroke:rgb(0.000000%,0.000000%,0.000000%); stroke-width: 53.798126;stroke-miterlimit: 10.000000;fill: none;"></path>
  <path d="M17.932709 394.000000C17.790726 391.167816,20.243210 388.895630,23.056335 389.253052C25.401733 389.551041,27.095978 391.643967,26.899063 394.000000L26.899063 394.000000C44.520950 398.721771,63.075302 398.721771,80.697189 394.000000L80.697189 394.000000C80.500259 391.643951,82.194504 389.551041,84.539917 389.253052C87.353043 388.895630,89.805527 391.167816,89.663544 394.000000L89.663544 426.279205L17.932709 426.279205Z" style="fill: rgb(100.000000%,100.000000%,100.000000%);stroke: none;"></path>
  <path d="M245.080353 142.942078C245.222336 145.774261,242.769852 148.046448,239.956726 147.689026C237.611328 147.391037,235.917084 145.298111,236.113998 142.942078L236.113998 142.942078C218.492111 138.220306,199.937759 138.220306,182.315872 142.942078L182.315872 142.942078C182.512802 145.298126,180.818558 147.391037,178.473145 147.689026C175.660019 148.046448,173.207535 145.774261,173.349518 142.942078L173.349518 110.662872L245.080353 110.662872Z" style="fill: rgb(100.000000%,100.000000%,100.000000%);stroke: none;"></path>
  <path d="M173.349518 394.000000C173.207535 391.167816,175.660019 388.895630,178.473145 389.253052C180.818542 389.551041,182.512787 391.643967,182.315872 394.000000L182.315872 394.000000C199.937759 398.721771,218.492111 398.721771,236.113998 394.000000L236.113998 394.000000C235.917068 391.643951,237.611313 389.551041,239.956726 389.253052C242.769852 388.895630,245.222336 391.167816,245.080353 394.000000L245.080353 426.279205L173.349518 426.279205Z" style="fill: rgb(100.000000%,100.000000%,100.000000%);stroke: none;"></path>
  <path d="M89.663544 142.942078C89.805527 145.774261,87.353043 148.046448,84.539917 147.689026C82.194519 147.391037,80.500275 145.298111,80.697189 142.942078L80.697189 142.942078C63.075302 138.220306,44.520950 138.220306,26.899063 142.942078L26.899063 142.942078C27.095993 145.298126,25.401749 147.391037,23.056335 147.689026C20.243210 148.046448,17.790726 145.774261,17.932709 142.942078L17.932709 110.662872L89.663544 110.662872Z" style="fill: rgb(100.000000%,100.000000%,100.000000%);stroke: none;"></path>
  <path d="M0.000000 537.461670L0.000000 -0.519592L263.013062 -0.519592L263.013062 537.461670Z" style="stroke:rgb(100.000000%,0.000000%,0.000000%); stroke-width: 0.199997;stroke-linecap: round;stroke-miterlimit: 10.000000;fill: none;"></path>
</svg>
