<?xml version="1.0"?>
<!-- Created by MetaPost 1.9991 on 2017.07.28:1115 -->
<svg version="1.1" xmlns="http://www.w3.org/2000/svg" xmlns:xlink="http://www.w3.org/1999/xlink" width="248.169144" height="538.181274" viewBox="0 0 248.169144 538.181274">
<!-- Original BoundingBox: -0.100006 -143.561676 248.069138 394.619598 -->
  <path d="M53.798126 420.899063C45.047409 370.561386,40.647675 319.563660,40.647675 268.471039C40.647675 217.378418,45.047409 166.380692,53.798126 116.043015" style="stroke:rgb(0.000000%,0.000000%,0.000000%); stroke-width: 53.798126;stroke-miterlimit: 10.000000;fill: none;"></path>
  <path d="M62.764481 268.471039C86.523834 239.393829,112.720871 212.396896,141.070587 187.774048C163.541138 168.257477,187.306458 150.283646,212.203720 133.975723" style="stroke:rgb(0.000000%,0.000000%,0.000000%); stroke-width: 53.798126;stroke-miterlimit: 10.000000;fill: none;"></path>
  <path d="M62.764481 268.471039C88.464630 297.557281,116.449081 324.542252,146.450394 349.168030C170.196732 368.659592,195.153214 386.628296,221.170074 402.966354" style="stroke:rgb(0.000000%,0.000000%,0.000000%); stroke-width: 53.798126;stroke-miterlimit: 10.000000;fill: none;"></path>
  <path d="M17.932709 394.000000C17.790726 391.167816,20.243210 388.895630,23.056335 389.253052C25.401733 389.551041,27.095978 391.643967,26.899063 394.000000L26.899063 394.000000C44.520950 398.721771,63.075302 398.721771,80.697189 394.000000L80.697189 394.000000C80.500259 391.643951,82.194504 389.551041,84.539917 389.253052C87.353043 388.895630,89.805527 391.167816,89.663544 394.000000L89.663544 420.899063L17.932709 420.899063Z" style="fill: rgb(100.000000%,100.000000%,100.000000%);stroke: none;"></path>
  <path d="M89.663544 142.942078C89.805527 145.774261,87.353043 148.046448,84.539917 147.689026C82.194519 147.391037,80.500275 145.298111,80.697189 142.942078L80.697189 142.942078C63.075302 138.220306,44.520950 138.220306,26.899063 142.942078L26.899063 142.942078C27.095993 145.298126,25.401749 147.391037,23.056335 147.689026C20.243210 148.046448,17.790726 145.774261,17.932709 142.942078L17.932709 116.043015L89.663544 116.043015Z" style="fill: rgb(100.000000%,100.000000%,100.000000%);stroke: none;"></path>
  <path d="M216.202164 178.628952C214.191971 180.629120,210.862442 180.326187,209.246246 177.996078C207.898758 176.053391,208.321045 173.393982,210.204025 171.964249L210.204025 171.964249C201.925385 155.707199,189.513245 141.915726,174.215195 131.976028L174.215195 131.976028C172.595688 133.698502,169.906631 133.839249,168.116150 132.295242C165.968613 130.443344,166.016922 127.100403,168.217056 125.311325L188.211166 107.316910L236.196274 160.634537Z" style="fill: rgb(100.000000%,100.000000%,100.000000%);stroke: none;"></path>
  <path d="M177.451721 412.896576C175.200836 411.171738,175.056076 407.831573,177.149292 405.918457C178.894455 404.323441,181.586472 404.386536,183.255020 406.061523L183.255020 406.061523C198.259872 395.684479,210.268845 381.540527,218.074905 365.051300L218.074905 365.051300C216.151413 363.676514,215.652557 361.030396,216.943451 359.049622C218.491714 356.673828,221.811127 356.274948,223.878204 358.216248L244.383316 375.626190L197.956833 430.306519Z" style="fill: rgb(100.000000%,100.000000%,100.000000%);stroke: none;"></path>
  <path d="M0.000000 537.461670L0.000000 -0.519592L239.102783 -0.519592L239.102783 537.461670Z" style="stroke:rgb(100.000000%,0.000000%,0.000000%); stroke-width: 0.199997;stroke-linecap: round;stroke-miterlimit: 10.000000;fill: none;"></path>
</svg>
