<?xml version="1.0"?>
<!-- Created by MetaPost 1.9991 on 2017.07.28:1115 -->
<svg version="1.1" xmlns="http://www.w3.org/2000/svg" xmlns:xlink="http://www.w3.org/1999/xlink" width="215.392517" height="538.181274" viewBox="0 0 215.392517 538.181274">
<!-- Original BoundingBox: -0.100006 -143.561676 215.292511 394.619598 -->
  <path d="M53.798126 268.471024L107.596252 268.471024C145.416199 268.471024,185.554184 279.199097,188.168442 312.785980C188.293411 314.391479,188.293442 316.118179,188.293442 317.785980C188.293442 319.453781,188.293411 321.180481,188.168442 322.785980C185.554199 356.372864,145.416214 367.100937,107.596252 367.100937L53.798126 367.100937C49.225906 316.935349,48.147385 266.512527,50.570374 216.197311C51.315506 200.723999,52.391663 185.268402,53.798126 169.841141" style="stroke:rgb(0.000000%,0.000000%,0.000000%); stroke-width: 53.798126;stroke-miterlimit: 10.000000;fill: none;"></path>
  <path d="M53.798126 367.100937C49.225906 316.935349,48.147385 266.512527,50.570374 216.197311C51.315506 200.723999,52.391663 185.268402,53.798126 169.841141L53.798126 169.841141L107.596252 169.841141C145.416183 169.841141,185.554169 180.569214,188.168442 214.156082C188.293411 215.761581,188.293442 217.488281,188.293442 219.156082C188.293442 220.823883,188.293411 222.550583,188.168442 224.156082C185.554199 257.742966,145.416214 268.471024,107.596252 268.471024L53.798126 268.471024" style="stroke:rgb(0.000000%,0.000000%,0.000000%); stroke-width: 53.798126;stroke-miterlimit: 10.000000;fill: none;"></path>
  <path d="M0.000000 537.461670L0.000000 -0.519592L215.192505 -0.519592L215.192505 537.461670Z" style="stroke:rgb(100.000000%,0.000000%,0.000000%); stroke-width: 0.199997;stroke-linecap: round;stroke-miterlimit: 10.000000;fill: none;"></path>
</svg>
