<?xml version="1.0"?>
<!-- Created by MetaPost 1.9991 on 2017.07.28:1115 -->
<svg version="1.1" xmlns="http://www.w3.org/2000/svg" xmlns:xlink="http://www.w3.org/1999/xlink" width="191.482239" height="538.181274" viewBox="0 0 191.482239 538.181274">
<!-- Original BoundingBox: -0.100006 -143.561676 191.382233 394.619598 -->
  <path d="M95.641113 295.370102L95.641113 367.101486L95.641113 420.899063" style="stroke:rgb(0.000000%,0.000000%,0.000000%); stroke-width: 53.798126;stroke-miterlimit: 10.000000;fill: none;"></path>
  <path d="M131.506531 322.269165C131.648514 325.101349,129.196030 327.373535,126.382904 327.016113C124.037506 326.718124,122.343262 324.625198,122.540176 322.269165L122.540176 322.269165C104.918289 317.547394,86.363937 317.547394,68.742050 322.269165L68.742050 322.269165C68.938980 324.625214,67.244736 326.718124,64.899323 327.016113C62.086197 327.373535,59.633713 325.101349,59.775696 322.269165L59.775696 295.370102L131.506531 295.370102Z" style="fill: rgb(100.000000%,100.000000%,100.000000%);stroke: none;"></path>
  <path d="M59.775696 394.000000C59.633713 391.167816,62.086197 388.895630,64.899323 389.253052C67.244720 389.551041,68.938965 391.643967,68.742050 394.000000L68.742050 394.000000C86.363937 398.721771,104.918289 398.721771,122.540176 394.000000L122.540176 394.000000C122.343246 391.643951,124.037491 389.551041,126.382904 389.253052C129.196030 388.895630,131.648514 391.167816,131.506531 394.000000L131.506531 420.899063L59.775696 420.899063Z" style="fill: rgb(100.000000%,100.000000%,100.000000%);stroke: none;"></path>
  <path d="M0.000000 537.461670L0.000000 -0.519592L191.282227 -0.519592L191.282227 537.461670Z" style="stroke:rgb(100.000000%,0.000000%,0.000000%); stroke-width: 0.199997;stroke-linecap: round;stroke-miterlimit: 10.000000;fill: none;"></path>
</svg>
