<?xml version="1.0"?>
<!-- Created by MetaPost 1.9991 on 2017.04.13:1731 -->
<svg version="1.1" xmlns="http://www.w3.org/2000/svg" xmlns:xlink="http://www.w3.org/1999/xlink" width="247.437225" height="375.198105" viewBox="0 0 247.437225 375.198105">
<!-- Original BoundingBox: -16.122360 -95.741119 231.314865 279.456985 -->
  <defs>
    <g transform="scale(0.009963,0.009963)" id="GLYPHcmr10_49">
      <path style="fill-rule: evenodd;" d="M294.000000 -640.000000C294.000000 -664.000000,294.000000 -666.000000,271.000000 -666.000000C209.000000 -602.000000,121.000000 -602.000000,89.000000 -602.000000L89.000000 -571.000000C109.000000 -571.000000,168.000000 -571.000000,220.000000 -597.000000L220.000000 -79.000000C220.000000 -43.000000,217.000000 -31.000000,127.000000 -31.000000L95.000000 -31.000000L95.000000 -0.000000C130.000000 -3.000000,217.000000 -3.000000,257.000000 -3.000000C297.000000 -3.000000,384.000000 -3.000000,419.000000 -0.000000L419.000000 -31.000000L387.000000 -31.000000C297.000000 -31.000000,294.000000 -42.000000,294.000000 -79.000000"></path>
    </g>
    <g transform="scale(0.009963,0.009963)" id="GLYPHcmr10_50">
      <path style="fill-rule: evenodd;" d="M127.000000 -77.000000L233.000000 -180.000000C389.000000 -318.000000,449.000000 -372.000000,449.000000 -472.000000C449.000000 -586.000000,359.000000 -666.000000,237.000000 -666.000000C124.000000 -666.000000,50.000000 -574.000000,50.000000 -485.000000C50.000000 -429.000000,100.000000 -429.000000,103.000000 -429.000000C120.000000 -429.000000,155.000000 -441.000000,155.000000 -482.000000C155.000000 -508.000000,137.000000 -534.000000,102.000000 -534.000000C94.000000 -534.000000,92.000000 -534.000000,89.000000 -533.000000C112.000000 -598.000000,166.000000 -635.000000,224.000000 -635.000000C315.000000 -635.000000,358.000000 -554.000000,358.000000 -472.000000C358.000000 -392.000000,308.000000 -313.000000,253.000000 -251.000000L61.000000 -37.000000C50.000000 -26.000000,50.000000 -24.000000,50.000000 -0.000000L421.000000 -0.000000L449.000000 -174.000000L424.000000 -174.000000C419.000000 -144.000000,412.000000 -100.000000,402.000000 -85.000000C395.000000 -77.000000,329.000000 -77.000000,307.000000 -77.000000"></path>
    </g>
    <g transform="scale(0.009963,0.009963)" id="GLYPHcmr10_51">
      <path style="fill-rule: evenodd;" d="M290.000000 -352.000000C372.000000 -379.000000,430.000000 -449.000000,430.000000 -528.000000C430.000000 -610.000000,342.000000 -666.000000,246.000000 -666.000000C145.000000 -666.000000,69.000000 -606.000000,69.000000 -530.000000C69.000000 -497.000000,91.000000 -478.000000,120.000000 -478.000000C151.000000 -478.000000,171.000000 -500.000000,171.000000 -529.000000C171.000000 -579.000000,124.000000 -579.000000,109.000000 -579.000000C140.000000 -628.000000,206.000000 -641.000000,242.000000 -641.000000C283.000000 -641.000000,338.000000 -619.000000,338.000000 -529.000000C338.000000 -517.000000,336.000000 -459.000000,310.000000 -415.000000C280.000000 -367.000000,246.000000 -364.000000,221.000000 -363.000000C213.000000 -362.000000,189.000000 -360.000000,182.000000 -360.000000C174.000000 -359.000000,167.000000 -358.000000,167.000000 -348.000000C167.000000 -337.000000,174.000000 -337.000000,191.000000 -337.000000L235.000000 -337.000000C317.000000 -337.000000,354.000000 -269.000000,354.000000 -171.000000C354.000000 -35.000000,285.000000 -6.000000,241.000000 -6.000000C198.000000 -6.000000,123.000000 -23.000000,88.000000 -82.000000C123.000000 -77.000000,154.000000 -99.000000,154.000000 -137.000000C154.000000 -173.000000,127.000000 -193.000000,98.000000 -193.000000C74.000000 -193.000000,42.000000 -179.000000,42.000000 -135.000000C42.000000 -44.000000,135.000000 22.000000,244.000000 22.000000C366.000000 22.000000,457.000000 -69.000000,457.000000 -171.000000C457.000000 -253.000000,394.000000 -331.000000,290.000000 -352.000000"></path>
    </g>
    <g transform="scale(0.009963,0.009963)" id="GLYPHcmr10_52">
      <path style="fill-rule: evenodd;" d="M294.000000 -165.000000L294.000000 -78.000000C294.000000 -42.000000,292.000000 -31.000000,218.000000 -31.000000L197.000000 -31.000000L197.000000 -0.000000C238.000000 -3.000000,290.000000 -3.000000,332.000000 -3.000000C374.000000 -3.000000,427.000000 -3.000000,468.000000 -0.000000L468.000000 -31.000000L447.000000 -31.000000C373.000000 -31.000000,371.000000 -42.000000,371.000000 -78.000000L371.000000 -165.000000L471.000000 -165.000000L471.000000 -196.000000L371.000000 -196.000000L371.000000 -651.000000C371.000000 -671.000000,371.000000 -677.000000,355.000000 -677.000000C346.000000 -677.000000,343.000000 -677.000000,335.000000 -665.000000L28.000000 -196.000000L28.000000 -165.000000M300.000000 -196.000000L56.000000 -196.000000L300.000000 -569.000000"></path>
    </g>
    <g transform="scale(0.009963,0.009963)" id="GLYPHcmr10_53">
      <path style="fill-rule: evenodd;" d="M449.000000 -201.000000C449.000000 -320.000000,367.000000 -420.000000,259.000000 -420.000000C211.000000 -420.000000,168.000000 -404.000000,132.000000 -369.000000L132.000000 -564.000000C152.000000 -558.000000,185.000000 -551.000000,217.000000 -551.000000C340.000000 -551.000000,410.000000 -642.000000,410.000000 -655.000000C410.000000 -661.000000,407.000000 -666.000000,400.000000 -666.000000C399.000000 -666.000000,397.000000 -666.000000,392.000000 -663.000000C372.000000 -654.000000,323.000000 -634.000000,256.000000 -634.000000C216.000000 -634.000000,170.000000 -641.000000,123.000000 -662.000000C115.000000 -665.000000,113.000000 -665.000000,111.000000 -665.000000C101.000000 -665.000000,101.000000 -657.000000,101.000000 -641.000000L101.000000 -345.000000C101.000000 -327.000000,101.000000 -319.000000,115.000000 -319.000000C122.000000 -319.000000,124.000000 -322.000000,128.000000 -328.000000C139.000000 -344.000000,176.000000 -398.000000,257.000000 -398.000000C309.000000 -398.000000,334.000000 -352.000000,342.000000 -334.000000C358.000000 -297.000000,360.000000 -258.000000,360.000000 -208.000000C360.000000 -173.000000,360.000000 -113.000000,336.000000 -71.000000C312.000000 -32.000000,275.000000 -6.000000,229.000000 -6.000000C156.000000 -6.000000,99.000000 -59.000000,82.000000 -118.000000C85.000000 -117.000000,88.000000 -116.000000,99.000000 -116.000000C132.000000 -116.000000,149.000000 -141.000000,149.000000 -165.000000C149.000000 -189.000000,132.000000 -214.000000,99.000000 -214.000000C85.000000 -214.000000,50.000000 -207.000000,50.000000 -161.000000C50.000000 -75.000000,119.000000 22.000000,231.000000 22.000000C347.000000 22.000000,449.000000 -74.000000,449.000000 -201.000000"></path>
    </g>
    <g transform="scale(0.009963,0.009963)" id="GLYPHcmr10_54">
      <path style="fill-rule: evenodd;" d="M132.000000 -328.000000L132.000000 -352.000000C132.000000 -605.000000,256.000000 -641.000000,307.000000 -641.000000C331.000000 -641.000000,373.000000 -635.000000,395.000000 -601.000000C380.000000 -601.000000,340.000000 -601.000000,340.000000 -556.000000C340.000000 -525.000000,364.000000 -510.000000,386.000000 -510.000000C402.000000 -510.000000,432.000000 -519.000000,432.000000 -558.000000C432.000000 -618.000000,388.000000 -666.000000,305.000000 -666.000000C177.000000 -666.000000,42.000000 -537.000000,42.000000 -316.000000C42.000000 -49.000000,158.000000 22.000000,251.000000 22.000000C362.000000 22.000000,457.000000 -72.000000,457.000000 -204.000000C457.000000 -331.000000,368.000000 -427.000000,257.000000 -427.000000C189.000000 -427.000000,152.000000 -376.000000,132.000000 -328.000000M251.000000 -6.000000C188.000000 -6.000000,158.000000 -66.000000,152.000000 -81.000000C134.000000 -128.000000,134.000000 -208.000000,134.000000 -226.000000C134.000000 -304.000000,166.000000 -404.000000,256.000000 -404.000000C272.000000 -404.000000,318.000000 -404.000000,349.000000 -342.000000C367.000000 -305.000000,367.000000 -254.000000,367.000000 -205.000000C367.000000 -157.000000,367.000000 -107.000000,350.000000 -71.000000C320.000000 -11.000000,274.000000 -6.000000,251.000000 -6.000000"></path>
    </g>
    <g transform="scale(0.009963,0.009963)" id="GLYPHcmr10_55">
      <path style="fill-rule: evenodd;" d="M476.000000 -609.000000C485.000000 -621.000000,485.000000 -623.000000,485.000000 -644.000000L242.000000 -644.000000C120.000000 -644.000000,118.000000 -657.000000,114.000000 -676.000000L89.000000 -676.000000L56.000000 -470.000000L81.000000 -470.000000C84.000000 -486.000000,93.000000 -549.000000,106.000000 -561.000000C113.000000 -567.000000,191.000000 -567.000000,204.000000 -567.000000L411.000000 -567.000000C400.000000 -551.000000,321.000000 -442.000000,299.000000 -409.000000C209.000000 -274.000000,176.000000 -135.000000,176.000000 -33.000000C176.000000 -23.000000,176.000000 22.000000,222.000000 22.000000C268.000000 22.000000,268.000000 -23.000000,268.000000 -33.000000L268.000000 -84.000000C268.000000 -139.000000,271.000000 -194.000000,279.000000 -248.000000C283.000000 -271.000000,297.000000 -357.000000,341.000000 -419.000000"></path>
    </g>
    <g transform="scale(0.009963,0.009963)" id="GLYPHcmr10_56">
      <path style="fill-rule: evenodd;" d="M163.000000 -457.000000C117.000000 -487.000000,113.000000 -521.000000,113.000000 -538.000000C113.000000 -599.000000,178.000000 -641.000000,249.000000 -641.000000C322.000000 -641.000000,386.000000 -589.000000,386.000000 -517.000000C386.000000 -460.000000,347.000000 -412.000000,287.000000 -377.000000M309.000000 -362.000000C381.000000 -399.000000,430.000000 -451.000000,430.000000 -517.000000C430.000000 -609.000000,341.000000 -666.000000,250.000000 -666.000000C150.000000 -666.000000,69.000000 -592.000000,69.000000 -499.000000C69.000000 -481.000000,71.000000 -436.000000,113.000000 -389.000000C124.000000 -377.000000,161.000000 -352.000000,186.000000 -335.000000C128.000000 -306.000000,42.000000 -250.000000,42.000000 -151.000000C42.000000 -45.000000,144.000000 22.000000,249.000000 22.000000C362.000000 22.000000,457.000000 -61.000000,457.000000 -168.000000C457.000000 -204.000000,446.000000 -249.000000,408.000000 -291.000000C389.000000 -312.000000,373.000000 -322.000000,309.000000 -362.000000M209.000000 -320.000000L332.000000 -242.000000C360.000000 -223.000000,407.000000 -193.000000,407.000000 -132.000000C407.000000 -58.000000,332.000000 -6.000000,250.000000 -6.000000C164.000000 -6.000000,92.000000 -68.000000,92.000000 -151.000000C92.000000 -209.000000,124.000000 -273.000000,209.000000 -320.000000"></path>
    </g>
  </defs>
  <path d="M33.932709 305.899063C42.406464 265.313599,53.031693 225.207260,65.763412 185.749832C80.161209 141.129028,97.227997 97.413971,116.871475 54.841141L130.321030 54.841141C149.964508 97.413971,167.031311 141.129028,181.429108 185.749832C194.160828 225.207260,204.786057 265.313583,213.259796 305.899063" style="stroke:rgb(60.000610%,60.000610%,60.000610%); stroke-width: 53.798126;stroke-miterlimit: 10.000000;fill: none;"></path>
  <path d="M66.393631 207.269165L180.798874 207.269165" style="stroke:rgb(60.000610%,60.000610%,60.000610%); stroke-width: 53.798126;stroke-miterlimit: 10.000000;fill: none;"></path>
  <path d="M8.315613 269.107132C9.069214 266.373367,12.110687 264.985184,14.669693 266.207016C16.803223 267.225693,17.755417 269.744446,16.829376 271.919785L16.829376 271.919785C32.080612 281.931030,49.698410 287.751343,67.911987 288.795731L67.911987 288.795731C68.464066 286.496826,70.729324 285.041031,73.049820 285.493820C75.833069 286.036880,77.449005 288.963699,76.425751 291.608383L67.987778 317.149689L-0.122360 294.648438Z" style="fill: rgb(100.000000%,100.000000%,100.000000%);stroke: none;"></path>
  <path d="M170.766754 291.608383C169.743500 288.963699,171.359436 286.036880,174.142685 285.493820C176.463165 285.041031,178.728439 286.496857,179.280518 288.795731L179.280518 288.795731C197.494095 287.751343,215.111893 281.931030,230.363129 271.919785L230.363129 271.919785C229.437057 269.744446,230.389267 267.225693,232.522812 266.207016C235.081818 264.985184,238.123291 266.373367,238.876892 269.107132L247.314865 294.648438L179.204727 317.149689Z" style="fill: rgb(100.000000%,100.000000%,100.000000%);stroke: none;"></path>
  <path d="M159.461670 27.942078C159.603653 30.774261,157.151169 33.046448,154.338043 32.689026C151.992645 32.391037,150.298401 30.298111,150.495316 27.942078L150.495316 27.942078C132.873428 23.220306,114.319077 23.220306,96.697189 27.942078L96.697189 27.942078C96.894119 30.298126,95.199875 32.391037,92.854462 32.689026C90.041336 33.046448,87.588852 30.774261,87.730835 27.942078L87.730835 1.043015L159.461670 1.043015Z" style="fill: rgb(100.000000%,100.000000%,100.000000%);stroke: none;"></path>
  <path d="M16.000000 27.942078L16.000000 279.000000" style="stroke:rgb(80.000305%,80.000305%,80.000305%); stroke-width: 0.199997;stroke-linecap: round;stroke-miterlimit: 10.000000;fill: none;"></path>
  <path d="M27.955139 27.942078L27.955139 279.000000" style="stroke:rgb(80.000305%,80.000305%,80.000305%); stroke-width: 0.199997;stroke-linecap: round;stroke-miterlimit: 10.000000;fill: none;"></path>
  <path d="M39.910278 27.942078L39.910278 279.000000" style="stroke:rgb(80.000305%,80.000305%,80.000305%); stroke-width: 0.199997;stroke-linecap: round;stroke-miterlimit: 10.000000;fill: none;"></path>
  <path d="M51.865417 27.942078L51.865417 279.000000" style="stroke:rgb(80.000305%,80.000305%,80.000305%); stroke-width: 0.199997;stroke-linecap: round;stroke-miterlimit: 10.000000;fill: none;"></path>
  <path d="M63.820557 27.942078L63.820557 279.000000" style="stroke:rgb(80.000305%,80.000305%,80.000305%); stroke-width: 0.199997;stroke-linecap: round;stroke-miterlimit: 10.000000;fill: none;"></path>
  <path d="M75.775696 27.942078L75.775696 279.000000" style="stroke:rgb(80.000305%,80.000305%,80.000305%); stroke-width: 0.199997;stroke-linecap: round;stroke-miterlimit: 10.000000;fill: none;"></path>
  <path d="M87.730835 27.942078L87.730835 279.000000" style="stroke:rgb(80.000305%,80.000305%,80.000305%); stroke-width: 0.199997;stroke-linecap: round;stroke-miterlimit: 10.000000;fill: none;"></path>
  <path d="M99.685974 27.942078L99.685974 279.000000" style="stroke:rgb(80.000305%,80.000305%,80.000305%); stroke-width: 0.199997;stroke-linecap: round;stroke-miterlimit: 10.000000;fill: none;"></path>
  <path d="M111.641113 27.942078L111.641113 279.000000" style="stroke:rgb(80.000305%,80.000305%,80.000305%); stroke-width: 0.199997;stroke-linecap: round;stroke-miterlimit: 10.000000;fill: none;"></path>
  <path d="M123.596252 27.942078L123.596252 279.000000" style="stroke:rgb(80.000305%,80.000305%,80.000305%); stroke-width: 0.199997;stroke-linecap: round;stroke-miterlimit: 10.000000;fill: none;"></path>
  <path d="M135.551392 27.942078L135.551392 279.000000" style="stroke:rgb(80.000305%,80.000305%,80.000305%); stroke-width: 0.199997;stroke-linecap: round;stroke-miterlimit: 10.000000;fill: none;"></path>
  <path d="M147.506531 27.942078L147.506531 279.000000" style="stroke:rgb(80.000305%,80.000305%,80.000305%); stroke-width: 0.199997;stroke-linecap: round;stroke-miterlimit: 10.000000;fill: none;"></path>
  <path d="M159.461670 27.942078L159.461670 279.000000" style="stroke:rgb(80.000305%,80.000305%,80.000305%); stroke-width: 0.199997;stroke-linecap: round;stroke-miterlimit: 10.000000;fill: none;"></path>
  <path d="M171.416809 27.942078L171.416809 279.000000" style="stroke:rgb(80.000305%,80.000305%,80.000305%); stroke-width: 0.199997;stroke-linecap: round;stroke-miterlimit: 10.000000;fill: none;"></path>
  <path d="M183.371948 27.942078L183.371948 279.000000" style="stroke:rgb(80.000305%,80.000305%,80.000305%); stroke-width: 0.199997;stroke-linecap: round;stroke-miterlimit: 10.000000;fill: none;"></path>
  <path d="M195.327087 27.942078L195.327087 279.000000" style="stroke:rgb(80.000305%,80.000305%,80.000305%); stroke-width: 0.199997;stroke-linecap: round;stroke-miterlimit: 10.000000;fill: none;"></path>
  <path d="M207.282227 27.942078L207.282227 279.000000" style="stroke:rgb(80.000305%,80.000305%,80.000305%); stroke-width: 0.199997;stroke-linecap: round;stroke-miterlimit: 10.000000;fill: none;"></path>
  <path d="M219.237366 27.942078L219.237366 279.000000" style="stroke:rgb(80.000305%,80.000305%,80.000305%); stroke-width: 0.199997;stroke-linecap: round;stroke-miterlimit: 10.000000;fill: none;"></path>
  <path d="M231.192505 27.942078L231.192505 279.000000" style="stroke:rgb(80.000305%,80.000305%,80.000305%); stroke-width: 0.199997;stroke-linecap: round;stroke-miterlimit: 10.000000;fill: none;"></path>
  <path d="M16.000000 279.000000L231.192505 279.000000" style="stroke:rgb(80.000305%,80.000305%,80.000305%); stroke-width: 0.199997;stroke-linecap: round;stroke-miterlimit: 10.000000;fill: none;"></path>
  <path d="M16.000000 267.044861L231.192505 267.044861" style="stroke:rgb(80.000305%,80.000305%,80.000305%); stroke-width: 0.199997;stroke-linecap: round;stroke-miterlimit: 10.000000;fill: none;"></path>
  <path d="M16.000000 255.089722L231.192505 255.089722" style="stroke:rgb(80.000305%,80.000305%,80.000305%); stroke-width: 0.199997;stroke-linecap: round;stroke-miterlimit: 10.000000;fill: none;"></path>
  <path d="M16.000000 243.134583L231.192505 243.134583" style="stroke:rgb(80.000305%,80.000305%,80.000305%); stroke-width: 0.199997;stroke-linecap: round;stroke-miterlimit: 10.000000;fill: none;"></path>
  <path d="M16.000000 231.179443L231.192505 231.179443" style="stroke:rgb(80.000305%,80.000305%,80.000305%); stroke-width: 0.199997;stroke-linecap: round;stroke-miterlimit: 10.000000;fill: none;"></path>
  <path d="M16.000000 219.224304L231.192505 219.224304" style="stroke:rgb(80.000305%,80.000305%,80.000305%); stroke-width: 0.199997;stroke-linecap: round;stroke-miterlimit: 10.000000;fill: none;"></path>
  <path d="M16.000000 207.269165L231.192505 207.269165" style="stroke:rgb(80.000305%,80.000305%,80.000305%); stroke-width: 0.199997;stroke-linecap: round;stroke-miterlimit: 10.000000;fill: none;"></path>
  <path d="M16.000000 195.314026L231.192505 195.314026" style="stroke:rgb(80.000305%,80.000305%,80.000305%); stroke-width: 0.199997;stroke-linecap: round;stroke-miterlimit: 10.000000;fill: none;"></path>
  <path d="M16.000000 183.358887L231.192505 183.358887" style="stroke:rgb(80.000305%,80.000305%,80.000305%); stroke-width: 0.199997;stroke-linecap: round;stroke-miterlimit: 10.000000;fill: none;"></path>
  <path d="M16.000000 171.403748L231.192505 171.403748" style="stroke:rgb(80.000305%,80.000305%,80.000305%); stroke-width: 0.199997;stroke-linecap: round;stroke-miterlimit: 10.000000;fill: none;"></path>
  <path d="M16.000000 159.448608L231.192505 159.448608" style="stroke:rgb(80.000305%,80.000305%,80.000305%); stroke-width: 0.199997;stroke-linecap: round;stroke-miterlimit: 10.000000;fill: none;"></path>
  <path d="M16.000000 147.493469L231.192505 147.493469" style="stroke:rgb(80.000305%,80.000305%,80.000305%); stroke-width: 0.199997;stroke-linecap: round;stroke-miterlimit: 10.000000;fill: none;"></path>
  <path d="M16.000000 135.538330L231.192505 135.538330" style="stroke:rgb(80.000305%,80.000305%,80.000305%); stroke-width: 0.199997;stroke-linecap: round;stroke-miterlimit: 10.000000;fill: none;"></path>
  <path d="M16.000000 123.583191L231.192505 123.583191" style="stroke:rgb(80.000305%,80.000305%,80.000305%); stroke-width: 0.199997;stroke-linecap: round;stroke-miterlimit: 10.000000;fill: none;"></path>
  <path d="M16.000000 111.628052L231.192505 111.628052" style="stroke:rgb(80.000305%,80.000305%,80.000305%); stroke-width: 0.199997;stroke-linecap: round;stroke-miterlimit: 10.000000;fill: none;"></path>
  <path d="M16.000000 99.672913L231.192505 99.672913" style="stroke:rgb(80.000305%,80.000305%,80.000305%); stroke-width: 0.199997;stroke-linecap: round;stroke-miterlimit: 10.000000;fill: none;"></path>
  <path d="M16.000000 87.717773L231.192505 87.717773" style="stroke:rgb(80.000305%,80.000305%,80.000305%); stroke-width: 0.199997;stroke-linecap: round;stroke-miterlimit: 10.000000;fill: none;"></path>
  <path d="M16.000000 75.762634L231.192505 75.762634" style="stroke:rgb(80.000305%,80.000305%,80.000305%); stroke-width: 0.199997;stroke-linecap: round;stroke-miterlimit: 10.000000;fill: none;"></path>
  <path d="M16.000000 63.807495L231.192505 63.807495" style="stroke:rgb(80.000305%,80.000305%,80.000305%); stroke-width: 0.199997;stroke-linecap: round;stroke-miterlimit: 10.000000;fill: none;"></path>
  <path d="M16.000000 51.852356L231.192505 51.852356" style="stroke:rgb(80.000305%,80.000305%,80.000305%); stroke-width: 0.199997;stroke-linecap: round;stroke-miterlimit: 10.000000;fill: none;"></path>
  <path d="M16.000000 39.897217L231.192505 39.897217" style="stroke:rgb(80.000305%,80.000305%,80.000305%); stroke-width: 0.199997;stroke-linecap: round;stroke-miterlimit: 10.000000;fill: none;"></path>
  <path d="M16.000000 27.942078L231.192505 27.942078" style="stroke:rgb(80.000305%,80.000305%,80.000305%); stroke-width: 0.199997;stroke-linecap: round;stroke-miterlimit: 10.000000;fill: none;"></path>
  <g transform="translate(31.442032 315.319427)" style="fill: rgb(0.000000%,0.000000%,0.000000%);">
    <use xlink:href="#GLYPHcmr10_49"></use>
  </g>
  <path d="M33.932709 305.899063l0 0" style="stroke:rgb(0.000000%,0.000000%,0.000000%); stroke-width: 3.000000;stroke-linecap: round;stroke-miterlimit: 10.000000;fill: none;"></path>
  <g transform="translate(114.380798 64.261505)" style="fill: rgb(0.000000%,0.000000%,0.000000%);">
    <use xlink:href="#GLYPHcmr10_50"></use>
  </g>
  <path d="M116.871475 54.841141l0 0" style="stroke:rgb(0.000000%,0.000000%,0.000000%); stroke-width: 3.000000;stroke-linecap: round;stroke-miterlimit: 10.000000;fill: none;"></path>
  <g transform="translate(127.830353 64.261505)" style="fill: rgb(0.000000%,0.000000%,0.000000%);">
    <use xlink:href="#GLYPHcmr10_51"></use>
  </g>
  <path d="M130.321030 54.841141l0 0" style="stroke:rgb(0.000000%,0.000000%,0.000000%); stroke-width: 3.000000;stroke-linecap: round;stroke-miterlimit: 10.000000;fill: none;"></path>
  <g transform="translate(210.769119 315.319427)" style="fill: rgb(0.000000%,0.000000%,0.000000%);">
    <use xlink:href="#GLYPHcmr10_52"></use>
  </g>
  <path d="M213.259796 305.899063l0 0" style="stroke:rgb(0.000000%,0.000000%,0.000000%); stroke-width: 3.000000;stroke-linecap: round;stroke-miterlimit: 10.000000;fill: none;"></path>
  <g transform="translate(63.902954 216.689529)" style="fill: rgb(0.000000%,0.000000%,0.000000%);">
    <use xlink:href="#GLYPHcmr10_53"></use>
  </g>
  <path d="M66.393631 207.269165l0 0" style="stroke:rgb(0.000000%,0.000000%,0.000000%); stroke-width: 3.000000;stroke-linecap: round;stroke-miterlimit: 10.000000;fill: none;"></path>
  <g transform="translate(178.308197 216.689529)" style="fill: rgb(0.000000%,0.000000%,0.000000%);">
    <use xlink:href="#GLYPHcmr10_54"></use>
  </g>
  <path d="M180.798874 207.269165l0 0" style="stroke:rgb(0.000000%,0.000000%,0.000000%); stroke-width: 3.000000;stroke-linecap: round;stroke-miterlimit: 10.000000;fill: none;"></path>
  <g transform="translate(121.105576 315.319427)" style="fill: rgb(0.000000%,0.000000%,0.000000%);">
    <use xlink:href="#GLYPHcmr10_55"></use>
  </g>
  <path d="M123.596252 305.899063l0 0" style="stroke:rgb(0.000000%,0.000000%,0.000000%); stroke-width: 3.000000;stroke-linecap: round;stroke-miterlimit: 10.000000;fill: none;"></path>
  <g transform="translate(121.105576 10.463379)" style="fill: rgb(0.000000%,0.000000%,0.000000%);">
    <use xlink:href="#GLYPHcmr10_56"></use>
  </g>
  <path d="M123.596252 1.043015l0 0" style="stroke:rgb(0.000000%,0.000000%,0.000000%); stroke-width: 3.000000;stroke-linecap: round;stroke-miterlimit: 10.000000;fill: none;"></path>
  <path d="M16.000000 374.641113L16.000000 4.031799L231.192505 4.031799L231.192505 374.641113Z" style="stroke:rgb(100.000000%,0.000000%,0.000000%); stroke-width: 0.199997;stroke-linecap: round;stroke-miterlimit: 10.000000;fill: none;"></path>
</svg>
