<?xml version="1.0"?>
<!-- Created by MetaPost 1.9991 on 2017.07.28:1115 -->
<svg version="1.1" xmlns="http://www.w3.org/2000/svg" xmlns:xlink="http://www.w3.org/1999/xlink" width="277.956985" height="538.181274" viewBox="0 0 277.956985 538.181274">
<!-- Original BoundingBox: -26.899063 -143.561676 251.057922 394.619598 -->
  <path d="M151.528961 133.975723C133.274277 160.173553,114.742752 186.177399,95.937454 211.982849C78.827515 235.461868,61.491791 258.775528,43.932709 281.920563L43.932709 295.370102C78.520538 296.272644,113.118713 296.721024,147.718307 296.715134C181.869537 296.709320,216.019257 296.260941,250.158859 295.370102" style="stroke:rgb(0.000000%,0.000000%,0.000000%); stroke-width: 53.798126;stroke-miterlimit: 10.000000;fill: none;"></path>
  <path d="M142.562607 214.672913C142.868820 249.865067,143.018280 285.058411,143.010956 320.251892C143.003967 353.801437,142.854523 387.350784,142.562607 420.899063" style="stroke:rgb(0.000000%,0.000000%,0.000000%); stroke-width: 53.798126;stroke-miterlimit: 10.000000;fill: none;"></path>
  <path d="M166.449661 176.251648C164.996796 178.686905,161.695816 179.217072,159.553436 177.359222C157.767242 175.810287,157.518494 173.129074,158.989243 171.277985L158.989243 171.277985C146.946198 157.574341,131.508118 147.282196,114.226700 141.436005L114.226700 141.436005C113.083649 143.505585,110.513016 144.307175,108.396240 143.254120C105.857315 141.991058,105.077118 138.740097,106.766281 136.462341L121.687271 114.081070L181.370651 153.870377Z" style="fill: rgb(100.000000%,100.000000%,100.000000%);stroke: none;"></path>
  <path d="M106.697189 394.000000C106.555206 391.167816,109.007690 388.895630,111.820816 389.253052C114.166214 389.551041,115.860458 391.643967,115.663544 394.000000L115.663544 394.000000C133.285431 398.721771,151.839783 398.721771,169.461670 394.000000L169.461670 394.000000C169.264740 391.643951,170.958984 389.551041,173.304398 389.253052C176.117523 388.895630,178.570007 391.167816,178.428024 394.000000L178.428024 420.899063L106.697189 420.899063Z" style="fill: rgb(100.000000%,100.000000%,100.000000%);stroke: none;"></path>
  <path d="M223.259796 331.235519C220.427612 331.377502,218.155426 328.925018,218.512848 326.111893C218.810837 323.766495,220.903763 322.072250,223.259796 322.269165L223.259796 322.269165C227.981567 304.647278,227.981567 286.092926,223.259796 268.471039L223.259796 268.471039C220.903748 268.667969,218.810837 266.973724,218.512848 264.628311C218.155426 261.815186,220.427612 259.362701,223.259796 259.504684L250.158859 259.504684L250.158859 331.235519Z" style="fill: rgb(100.000000%,100.000000%,100.000000%);stroke: none;"></path>
  <path d="M26.000000 259.504684C28.832184 259.362701,31.104370 261.815186,30.746948 264.628311C30.448959 266.973709,28.356033 268.667953,26.000000 268.471039L26.000000 268.471039C21.278229 286.092926,21.278229 304.647278,26.000000 322.269165L26.000000 322.269165C28.356049 322.072235,30.448959 323.766479,30.746948 326.111893C31.104370 328.925018,28.832184 331.377502,26.000000 331.235519L-0.899063 331.235519L-0.899063 259.504684Z" style="fill: rgb(100.000000%,100.000000%,100.000000%);stroke: none;"></path>
  <path d="M26.000000 537.461670L26.000000 -0.519592L241.192505 -0.519592L241.192505 537.461670Z" style="stroke:rgb(100.000000%,0.000000%,0.000000%); stroke-width: 0.199997;stroke-linecap: round;stroke-miterlimit: 10.000000;fill: none;"></path>
</svg>
