<?xml version="1.0"?>
<!-- Created by MetaPost 1.9991 on 2017.07.28:1115 -->
<svg version="1.1" xmlns="http://www.w3.org/2000/svg" xmlns:xlink="http://www.w3.org/1999/xlink" width="268.990631" height="538.181274" viewBox="0 0 268.990631 538.181274">
<!-- Original BoundingBox: -26.899063 -143.561676 242.091568 394.619598 -->
  <path d="M26.000000 142.942078C61.257614 134.601257,97.365494 130.388412,133.596252 130.388412C169.827011 130.388412,205.934891 134.601257,241.192505 142.942078L241.192505 156.391617C207.848984 194.749222,175.264908 233.760452,143.459290 273.402573C109.375031 315.884781,76.192093 359.082336,43.932709 402.966354" style="stroke:rgb(0.000000%,0.000000%,0.000000%); stroke-width: 53.798126;stroke-miterlimit: 10.000000;fill: none;"></path>
  <path d="M223.259796 178.807495C220.427612 178.949478,218.155426 176.496994,218.512848 173.683868C218.810837 171.338470,220.903763 169.644226,223.259796 169.841141L223.259796 169.841141C227.981567 152.219254,227.981567 133.664902,223.259796 116.043015L223.259796 116.043015C220.903748 116.239944,218.810837 114.545700,218.512848 112.200287C218.155426 109.387161,220.427612 106.934677,223.259796 107.076660L250.158859 107.076660L250.158859 178.807495Z" style="fill: rgb(100.000000%,100.000000%,100.000000%);stroke: none;"></path>
  <path d="M31.616425 359.859558C33.215042 357.517365,36.542191 357.189377,38.567368 359.174332C40.255829 360.829269,40.340668 363.520676,38.759842 365.278687L38.759842 365.278687C49.945282 379.690887,64.727386 390.904877,81.620377 397.793488L81.620377 397.793488C82.887451 395.797424,85.502167 395.153992,87.550827 396.334122C90.008041 397.749588,90.588638 401.042053,88.763794 403.212616L72.506393 424.642883L15.359024 381.289825Z" style="fill: rgb(100.000000%,100.000000%,100.000000%);stroke: none;"></path>
  <path d="M52.899063 107.076660C55.731247 106.934677,58.003433 109.387161,57.646011 112.200287C57.348022 114.545685,55.255096 116.239929,52.899063 116.043015L52.899063 116.043015C48.177292 133.664902,48.177292 152.219254,52.899063 169.841141L52.899063 169.841141C55.255112 169.644211,57.348022 171.338455,57.646011 173.683868C58.003433 176.496994,55.731247 178.949478,52.899063 178.807495L26.000000 178.807495L26.000000 107.076660Z" style="fill: rgb(100.000000%,100.000000%,100.000000%);stroke: none;"></path>
  <path d="M26.000000 537.461670L26.000000 -0.519592L241.192505 -0.519592L241.192505 537.461670Z" style="stroke:rgb(100.000000%,0.000000%,0.000000%); stroke-width: 0.199997;stroke-linecap: round;stroke-miterlimit: 10.000000;fill: none;"></path>
</svg>
