<?xml version="1.0"?>
<!-- Created by MetaPost 1.9991 on 2017.07.28:1115 -->
<svg version="1.1" xmlns="http://www.w3.org/2000/svg" xmlns:xlink="http://www.w3.org/1999/xlink" width="242.191574" height="538.181274" viewBox="0 0 242.191574 538.181274">
<!-- Original BoundingBox: -0.100006 -143.561676 242.091568 394.619598 -->
  <path d="M53.798126 420.899063C51.673950 379.627991,50.597687 338.309662,50.570374 296.983978C50.542358 254.582199,51.618637 212.186874,53.798126 169.841141L53.798126 169.841141L107.596252 169.841141C147.342728 169.841141,185.723343 190.793015,188.168442 227.605621C188.278961 229.269684,188.293442 230.938004,188.293442 232.605621C188.293442 234.273239,188.278961 235.941559,188.168442 237.605621C185.723358 274.418228,147.342743 295.370102,107.596252 295.370102L53.798126 295.370102" style="stroke:rgb(0.000000%,0.000000%,0.000000%); stroke-width: 53.798126;stroke-miterlimit: 10.000000;fill: none;"></path>
  <path d="M91.456650 295.370102C99.391418 343.639786,133.993240 383.244156,180.761169 397.585800C191.923721 401.008865,203.517807 402.820663,215.192505 402.966354" style="stroke:rgb(0.000000%,0.000000%,0.000000%); stroke-width: 53.798126;stroke-miterlimit: 10.000000;fill: none;"></path>
  <path d="M17.932709 394.000000C17.790726 391.167816,20.243210 388.895630,23.056335 389.253052C25.401733 389.551041,27.095978 391.643967,26.899063 394.000000L26.899063 394.000000C44.520950 398.721771,63.075302 398.721771,80.697189 394.000000L80.697189 394.000000C80.500259 391.643951,82.194504 389.551041,84.539917 389.253052C87.353043 388.895630,89.805527 391.167816,89.663544 394.000000L89.663544 420.899063L17.932709 420.899063Z" style="fill: rgb(100.000000%,100.000000%,100.000000%);stroke: none;"></path>
  <path d="M171.360306 412.380234C169.129959 410.628967,169.024597 407.287354,171.140213 405.399094C172.904068 403.824753,175.595123 403.919586,177.243805 405.614151L177.243805 405.614151C192.369904 395.414825,204.544769 381.413574,212.544708 365.017654L212.544708 365.017654C210.637604 363.620270,210.169983 360.968475,211.484116 359.003067C213.060303 356.645721,216.384171 356.286011,218.428207 358.251572L238.726456 375.902023L191.658554 430.030685Z" style="fill: rgb(100.000000%,100.000000%,100.000000%);stroke: none;"></path>
  <path d="M0.000000 537.461670L0.000000 -0.519592L215.192505 -0.519592L215.192505 537.461670Z" style="stroke:rgb(100.000000%,0.000000%,0.000000%); stroke-width: 0.199997;stroke-linecap: round;stroke-miterlimit: 10.000000;fill: none;"></path>
</svg>
