<?xml version="1.0"?>
<!-- Created by MetaPost 1.9991 on 2017.07.28:1115 -->
<svg version="1.1" xmlns="http://www.w3.org/2000/svg" xmlns:xlink="http://www.w3.org/1999/xlink" width="239.302795" height="538.181274" viewBox="0 0 239.302795 538.181274">
<!-- Original BoundingBox: -0.100006 -143.561676 239.202789 394.619598 -->
  <path d="M123.551392 370.668289C122.219070 370.734192,120.885345 370.768295,119.551392 370.768295C118.217438 370.768295,116.883713 370.734192,115.551392 370.668289C67.160507 368.274796,28.887451 328.966125,26.899063 280.426178C26.735916 276.443375,26.846283 272.456482,26.899063 268.471039C26.951874 264.484467,26.947098 260.495239,27.197937 256.515900C30.246429 208.154221,67.610916 168.665787,115.551392 166.273788C116.883698 166.207306,118.217438 166.173782,119.551392 166.173782C120.885345 166.173782,122.219086 166.207306,123.551392 166.273788C171.491852 168.665909,208.856308 208.154266,211.904846 256.515900C212.155685 260.495239,212.150909 264.484467,212.203720 268.471039C212.256500 272.456482,212.366867 276.443375,212.203720 280.426178C210.215347 328.966171,171.942291 368.274918,123.551392 370.668289Z" style="stroke:rgb(0.000000%,0.000000%,0.000000%); stroke-width: 53.798126;stroke-miterlimit: 10.000000;fill: none;"></path>
  <path d="M119.551392 278.701385L119.551392 394.758087L119.551392 468.719620" style="stroke:rgb(0.000000%,0.000000%,0.000000%); stroke-width: 53.798126;stroke-miterlimit: 10.000000;fill: none;"></path>
  <path d="M83.685974 441.820557C83.543991 438.988373,85.996475 436.716187,88.809601 437.073608C91.154999 437.371597,92.849243 439.464523,92.652328 441.820557L92.652328 441.820557C110.274216 446.542328,128.828568 446.542328,146.450455 441.820557L146.450455 441.820557C146.253525 439.464508,147.947769 437.371597,150.293182 437.073608C153.106308 436.716187,155.558792 438.988373,155.416809 441.820557L155.416809 468.719620L83.685974 468.719620Z" style="fill: rgb(100.000000%,100.000000%,100.000000%);stroke: none;"></path>
  <path d="M155.416809 305.600449C155.558792 308.432632,153.106308 310.704819,150.293182 310.347397C147.947784 310.049408,146.253540 307.956482,146.450455 305.600449L146.450455 305.600449C128.828568 300.878677,110.274216 300.878677,92.652328 305.600449L92.652328 305.600449C92.849258 307.956497,91.155014 310.049408,88.809601 310.347397C85.996475 310.704819,83.543991 308.432632,83.685974 305.600449L83.685974 278.701385L155.416809 278.701385Z" style="fill: rgb(100.000000%,100.000000%,100.000000%);stroke: none;"></path>
  <path d="M0.000000 537.461670L0.000000 -0.519592L239.102783 -0.519592L239.102783 537.461670Z" style="stroke:rgb(100.000000%,0.000000%,0.000000%); stroke-width: 0.199997;stroke-linecap: round;stroke-miterlimit: 10.000000;fill: none;"></path>
</svg>
