<?xml version="1.0"?>
<!-- Created by MetaPost 1.9991 on 2017.07.28:1115 -->
<svg version="1.1" xmlns="http://www.w3.org/2000/svg" xmlns:xlink="http://www.w3.org/1999/xlink" width="247.437225" height="538.181274" viewBox="0 0 247.437225 538.181274">
<!-- Original BoundingBox: -16.122360 -143.561676 231.314865 394.619598 -->
  <path d="M33.932709 420.899063C42.406464 380.313599,53.031693 340.207260,65.763412 300.749832C80.161209 256.129028,97.227997 212.413971,116.871475 169.841141L130.321030 169.841141C149.964508 212.413971,167.031311 256.129028,181.429108 300.749832C194.160828 340.207260,204.786057 380.313583,213.259796 420.899063" style="stroke:rgb(0.000000%,0.000000%,0.000000%); stroke-width: 53.798126;stroke-miterlimit: 10.000000;fill: none;"></path>
  <path d="M66.393631 322.269165L180.798874 322.269165" style="stroke:rgb(0.000000%,0.000000%,0.000000%); stroke-width: 53.798126;stroke-miterlimit: 10.000000;fill: none;"></path>
  <path d="M8.315613 384.107132C9.069214 381.373367,12.110687 379.985184,14.669693 381.207016C16.803223 382.225693,17.755417 384.744446,16.829376 386.919785L16.829376 386.919785C32.080612 396.931030,49.698410 402.751343,67.911987 403.795731L67.911987 403.795731C68.464066 401.496826,70.729324 400.041031,73.049820 400.493820C75.833069 401.036880,77.449005 403.963699,76.425751 406.608383L67.987778 432.149689L-0.122360 409.648438Z" style="fill: rgb(100.000000%,100.000000%,100.000000%);stroke: none;"></path>
  <path d="M170.766754 406.608383C169.743500 403.963699,171.359436 401.036880,174.142685 400.493820C176.463165 400.041031,178.728439 401.496857,179.280518 403.795731L179.280518 403.795731C197.494095 402.751343,215.111893 396.931030,230.363129 386.919785L230.363129 386.919785C229.437057 384.744446,230.389267 382.225693,232.522812 381.207016C235.081818 379.985184,238.123291 381.373367,238.876892 384.107132L247.314865 409.648438L179.204727 432.149689Z" style="fill: rgb(100.000000%,100.000000%,100.000000%);stroke: none;"></path>
  <path d="M159.461670 142.942078C159.603653 145.774261,157.151169 148.046448,154.338043 147.689026C151.992645 147.391037,150.298401 145.298111,150.495316 142.942078L150.495316 142.942078C132.873428 138.220306,114.319077 138.220306,96.697189 142.942078L96.697189 142.942078C96.894119 145.298126,95.199875 147.391037,92.854462 147.689026C90.041336 148.046448,87.588852 145.774261,87.730835 142.942078L87.730835 116.043015L159.461670 116.043015Z" style="fill: rgb(100.000000%,100.000000%,100.000000%);stroke: none;"></path>
  <path d="M16.000000 537.461670L16.000000 -0.519592L231.192505 -0.519592L231.192505 537.461670Z" style="stroke:rgb(100.000000%,0.000000%,0.000000%); stroke-width: 0.199997;stroke-linecap: round;stroke-miterlimit: 10.000000;fill: none;"></path>
</svg>
