<?xml version="1.0"?>
<!-- Created by MetaPost 1.9991 on 2017.04.13:1731 -->
<svg version="1.1" xmlns="http://www.w3.org/2000/svg" xmlns:xlink="http://www.w3.org/1999/xlink" width="179.527100" height="375.198105" viewBox="0 0 179.527100 375.198105">
<!-- Original BoundingBox: -0.100006 -95.741119 179.427094 279.456985 -->
  <defs>
    <g transform="scale(0.009963,0.009963)" id="GLYPHcmr10_49">
      <path style="fill-rule: evenodd;" d="M294.000000 -640.000000C294.000000 -664.000000,294.000000 -666.000000,271.000000 -666.000000C209.000000 -602.000000,121.000000 -602.000000,89.000000 -602.000000L89.000000 -571.000000C109.000000 -571.000000,168.000000 -571.000000,220.000000 -597.000000L220.000000 -79.000000C220.000000 -43.000000,217.000000 -31.000000,127.000000 -31.000000L95.000000 -31.000000L95.000000 -0.000000C130.000000 -3.000000,217.000000 -3.000000,257.000000 -3.000000C297.000000 -3.000000,384.000000 -3.000000,419.000000 -0.000000L419.000000 -31.000000L387.000000 -31.000000C297.000000 -31.000000,294.000000 -42.000000,294.000000 -79.000000"></path>
    </g>
    <g transform="scale(0.009963,0.009963)" id="GLYPHcmr10_50">
      <path style="fill-rule: evenodd;" d="M127.000000 -77.000000L233.000000 -180.000000C389.000000 -318.000000,449.000000 -372.000000,449.000000 -472.000000C449.000000 -586.000000,359.000000 -666.000000,237.000000 -666.000000C124.000000 -666.000000,50.000000 -574.000000,50.000000 -485.000000C50.000000 -429.000000,100.000000 -429.000000,103.000000 -429.000000C120.000000 -429.000000,155.000000 -441.000000,155.000000 -482.000000C155.000000 -508.000000,137.000000 -534.000000,102.000000 -534.000000C94.000000 -534.000000,92.000000 -534.000000,89.000000 -533.000000C112.000000 -598.000000,166.000000 -635.000000,224.000000 -635.000000C315.000000 -635.000000,358.000000 -554.000000,358.000000 -472.000000C358.000000 -392.000000,308.000000 -313.000000,253.000000 -251.000000L61.000000 -37.000000C50.000000 -26.000000,50.000000 -24.000000,50.000000 -0.000000L421.000000 -0.000000L449.000000 -174.000000L424.000000 -174.000000C419.000000 -144.000000,412.000000 -100.000000,402.000000 -85.000000C395.000000 -77.000000,329.000000 -77.000000,307.000000 -77.000000"></path>
    </g>
    <g transform="scale(0.009963,0.009963)" id="GLYPHcmr10_51">
      <path style="fill-rule: evenodd;" d="M290.000000 -352.000000C372.000000 -379.000000,430.000000 -449.000000,430.000000 -528.000000C430.000000 -610.000000,342.000000 -666.000000,246.000000 -666.000000C145.000000 -666.000000,69.000000 -606.000000,69.000000 -530.000000C69.000000 -497.000000,91.000000 -478.000000,120.000000 -478.000000C151.000000 -478.000000,171.000000 -500.000000,171.000000 -529.000000C171.000000 -579.000000,124.000000 -579.000000,109.000000 -579.000000C140.000000 -628.000000,206.000000 -641.000000,242.000000 -641.000000C283.000000 -641.000000,338.000000 -619.000000,338.000000 -529.000000C338.000000 -517.000000,336.000000 -459.000000,310.000000 -415.000000C280.000000 -367.000000,246.000000 -364.000000,221.000000 -363.000000C213.000000 -362.000000,189.000000 -360.000000,182.000000 -360.000000C174.000000 -359.000000,167.000000 -358.000000,167.000000 -348.000000C167.000000 -337.000000,174.000000 -337.000000,191.000000 -337.000000L235.000000 -337.000000C317.000000 -337.000000,354.000000 -269.000000,354.000000 -171.000000C354.000000 -35.000000,285.000000 -6.000000,241.000000 -6.000000C198.000000 -6.000000,123.000000 -23.000000,88.000000 -82.000000C123.000000 -77.000000,154.000000 -99.000000,154.000000 -137.000000C154.000000 -173.000000,127.000000 -193.000000,98.000000 -193.000000C74.000000 -193.000000,42.000000 -179.000000,42.000000 -135.000000C42.000000 -44.000000,135.000000 22.000000,244.000000 22.000000C366.000000 22.000000,457.000000 -69.000000,457.000000 -171.000000C457.000000 -253.000000,394.000000 -331.000000,290.000000 -352.000000"></path>
    </g>
    <g transform="scale(0.009963,0.009963)" id="GLYPHcmr10_52">
      <path style="fill-rule: evenodd;" d="M294.000000 -165.000000L294.000000 -78.000000C294.000000 -42.000000,292.000000 -31.000000,218.000000 -31.000000L197.000000 -31.000000L197.000000 -0.000000C238.000000 -3.000000,290.000000 -3.000000,332.000000 -3.000000C374.000000 -3.000000,427.000000 -3.000000,468.000000 -0.000000L468.000000 -31.000000L447.000000 -31.000000C373.000000 -31.000000,371.000000 -42.000000,371.000000 -78.000000L371.000000 -165.000000L471.000000 -165.000000L471.000000 -196.000000L371.000000 -196.000000L371.000000 -651.000000C371.000000 -671.000000,371.000000 -677.000000,355.000000 -677.000000C346.000000 -677.000000,343.000000 -677.000000,335.000000 -665.000000L28.000000 -196.000000L28.000000 -165.000000M300.000000 -196.000000L56.000000 -196.000000L300.000000 -569.000000"></path>
    </g>
  </defs>
  <path d="M125.528961 305.899063C126.711807 264.514938,127.309662 223.116165,127.322342 181.715134C127.335281 139.417374,126.737427 97.121628,125.528961 54.841141L112.079422 54.841141C99.838303 60.920639,87.658371 67.122604,75.541489 73.446106C59.210068 81.969070,42.994431 90.712143,26.899063 99.672913" style="stroke:rgb(60.000610%,60.000610%,60.000610%); stroke-width: 53.798126;stroke-miterlimit: 10.000000;fill: none;"></path>
  <path d="M89.663544 279.000000C89.521561 276.167816,91.974045 273.895630,94.787170 274.253052C97.132568 274.551041,98.826813 276.643967,98.629898 279.000000L98.629898 279.000000C116.251785 283.721771,134.806137 283.721771,152.428024 279.000000L152.428024 279.000000C152.231094 276.643951,153.925339 274.551041,156.270752 274.253052C159.083878 273.895630,161.536362 276.167816,161.394379 279.000000L161.394379 305.899063L89.663544 305.899063Z" style="fill: rgb(100.000000%,100.000000%,100.000000%);stroke: none;"></path>
  <path d="M36.545944 55.891190C39.065521 54.589966,42.148895 55.882416,42.987579 58.591293C43.686844 60.849777,42.482590 63.258224,40.256241 64.053894L40.256241 64.053894C43.249680 82.050217,50.927536 98.941544,62.518082 113.030090L62.518082 113.030090C64.581451 111.875885,67.187866 112.552216,68.429688 114.564102C69.919159 116.977173,68.865479 120.150085,66.228378 121.192795L41.740280 132.323715L12.057846 67.022110Z" style="fill: rgb(100.000000%,100.000000%,100.000000%);stroke: none;"></path>
  <path d="M161.394379 27.942078C161.536362 30.774261,159.083878 33.046448,156.270752 32.689026C153.925354 32.391037,152.231110 30.298111,152.428024 27.942078L152.428024 27.942078C134.806137 23.220306,116.251785 23.220306,98.629898 27.942078L98.629898 27.942078C98.826828 30.298126,97.132584 32.391037,94.787170 32.689026C91.974045 33.046448,89.521561 30.774261,89.663544 27.942078L89.663544 1.043015L161.394379 1.043015Z" style="fill: rgb(100.000000%,100.000000%,100.000000%);stroke: none;"></path>
  <path d="M0.000000 27.942078L0.000000 279.000000" style="stroke:rgb(80.000305%,80.000305%,80.000305%); stroke-width: 0.199997;stroke-linecap: round;stroke-miterlimit: 10.000000;fill: none;"></path>
  <path d="M11.955139 27.942078L11.955139 279.000000" style="stroke:rgb(80.000305%,80.000305%,80.000305%); stroke-width: 0.199997;stroke-linecap: round;stroke-miterlimit: 10.000000;fill: none;"></path>
  <path d="M23.910278 27.942078L23.910278 279.000000" style="stroke:rgb(80.000305%,80.000305%,80.000305%); stroke-width: 0.199997;stroke-linecap: round;stroke-miterlimit: 10.000000;fill: none;"></path>
  <path d="M35.865417 27.942078L35.865417 279.000000" style="stroke:rgb(80.000305%,80.000305%,80.000305%); stroke-width: 0.199997;stroke-linecap: round;stroke-miterlimit: 10.000000;fill: none;"></path>
  <path d="M47.820557 27.942078L47.820557 279.000000" style="stroke:rgb(80.000305%,80.000305%,80.000305%); stroke-width: 0.199997;stroke-linecap: round;stroke-miterlimit: 10.000000;fill: none;"></path>
  <path d="M59.775696 27.942078L59.775696 279.000000" style="stroke:rgb(80.000305%,80.000305%,80.000305%); stroke-width: 0.199997;stroke-linecap: round;stroke-miterlimit: 10.000000;fill: none;"></path>
  <path d="M71.730835 27.942078L71.730835 279.000000" style="stroke:rgb(80.000305%,80.000305%,80.000305%); stroke-width: 0.199997;stroke-linecap: round;stroke-miterlimit: 10.000000;fill: none;"></path>
  <path d="M83.685974 27.942078L83.685974 279.000000" style="stroke:rgb(80.000305%,80.000305%,80.000305%); stroke-width: 0.199997;stroke-linecap: round;stroke-miterlimit: 10.000000;fill: none;"></path>
  <path d="M95.641113 27.942078L95.641113 279.000000" style="stroke:rgb(80.000305%,80.000305%,80.000305%); stroke-width: 0.199997;stroke-linecap: round;stroke-miterlimit: 10.000000;fill: none;"></path>
  <path d="M107.596252 27.942078L107.596252 279.000000" style="stroke:rgb(80.000305%,80.000305%,80.000305%); stroke-width: 0.199997;stroke-linecap: round;stroke-miterlimit: 10.000000;fill: none;"></path>
  <path d="M119.551392 27.942078L119.551392 279.000000" style="stroke:rgb(80.000305%,80.000305%,80.000305%); stroke-width: 0.199997;stroke-linecap: round;stroke-miterlimit: 10.000000;fill: none;"></path>
  <path d="M131.506531 27.942078L131.506531 279.000000" style="stroke:rgb(80.000305%,80.000305%,80.000305%); stroke-width: 0.199997;stroke-linecap: round;stroke-miterlimit: 10.000000;fill: none;"></path>
  <path d="M143.461670 27.942078L143.461670 279.000000" style="stroke:rgb(80.000305%,80.000305%,80.000305%); stroke-width: 0.199997;stroke-linecap: round;stroke-miterlimit: 10.000000;fill: none;"></path>
  <path d="M155.416809 27.942078L155.416809 279.000000" style="stroke:rgb(80.000305%,80.000305%,80.000305%); stroke-width: 0.199997;stroke-linecap: round;stroke-miterlimit: 10.000000;fill: none;"></path>
  <path d="M167.371948 27.942078L167.371948 279.000000" style="stroke:rgb(80.000305%,80.000305%,80.000305%); stroke-width: 0.199997;stroke-linecap: round;stroke-miterlimit: 10.000000;fill: none;"></path>
  <path d="M179.327087 27.942078L179.327087 279.000000" style="stroke:rgb(80.000305%,80.000305%,80.000305%); stroke-width: 0.199997;stroke-linecap: round;stroke-miterlimit: 10.000000;fill: none;"></path>
  <path d="M0.000000 279.000000L179.327087 279.000000" style="stroke:rgb(80.000305%,80.000305%,80.000305%); stroke-width: 0.199997;stroke-linecap: round;stroke-miterlimit: 10.000000;fill: none;"></path>
  <path d="M0.000000 267.044861L179.327087 267.044861" style="stroke:rgb(80.000305%,80.000305%,80.000305%); stroke-width: 0.199997;stroke-linecap: round;stroke-miterlimit: 10.000000;fill: none;"></path>
  <path d="M0.000000 255.089722L179.327087 255.089722" style="stroke:rgb(80.000305%,80.000305%,80.000305%); stroke-width: 0.199997;stroke-linecap: round;stroke-miterlimit: 10.000000;fill: none;"></path>
  <path d="M0.000000 243.134583L179.327087 243.134583" style="stroke:rgb(80.000305%,80.000305%,80.000305%); stroke-width: 0.199997;stroke-linecap: round;stroke-miterlimit: 10.000000;fill: none;"></path>
  <path d="M0.000000 231.179443L179.327087 231.179443" style="stroke:rgb(80.000305%,80.000305%,80.000305%); stroke-width: 0.199997;stroke-linecap: round;stroke-miterlimit: 10.000000;fill: none;"></path>
  <path d="M0.000000 219.224304L179.327087 219.224304" style="stroke:rgb(80.000305%,80.000305%,80.000305%); stroke-width: 0.199997;stroke-linecap: round;stroke-miterlimit: 10.000000;fill: none;"></path>
  <path d="M0.000000 207.269165L179.327087 207.269165" style="stroke:rgb(80.000305%,80.000305%,80.000305%); stroke-width: 0.199997;stroke-linecap: round;stroke-miterlimit: 10.000000;fill: none;"></path>
  <path d="M0.000000 195.314026L179.327087 195.314026" style="stroke:rgb(80.000305%,80.000305%,80.000305%); stroke-width: 0.199997;stroke-linecap: round;stroke-miterlimit: 10.000000;fill: none;"></path>
  <path d="M0.000000 183.358887L179.327087 183.358887" style="stroke:rgb(80.000305%,80.000305%,80.000305%); stroke-width: 0.199997;stroke-linecap: round;stroke-miterlimit: 10.000000;fill: none;"></path>
  <path d="M0.000000 171.403748L179.327087 171.403748" style="stroke:rgb(80.000305%,80.000305%,80.000305%); stroke-width: 0.199997;stroke-linecap: round;stroke-miterlimit: 10.000000;fill: none;"></path>
  <path d="M0.000000 159.448608L179.327087 159.448608" style="stroke:rgb(80.000305%,80.000305%,80.000305%); stroke-width: 0.199997;stroke-linecap: round;stroke-miterlimit: 10.000000;fill: none;"></path>
  <path d="M0.000000 147.493469L179.327087 147.493469" style="stroke:rgb(80.000305%,80.000305%,80.000305%); stroke-width: 0.199997;stroke-linecap: round;stroke-miterlimit: 10.000000;fill: none;"></path>
  <path d="M0.000000 135.538330L179.327087 135.538330" style="stroke:rgb(80.000305%,80.000305%,80.000305%); stroke-width: 0.199997;stroke-linecap: round;stroke-miterlimit: 10.000000;fill: none;"></path>
  <path d="M0.000000 123.583191L179.327087 123.583191" style="stroke:rgb(80.000305%,80.000305%,80.000305%); stroke-width: 0.199997;stroke-linecap: round;stroke-miterlimit: 10.000000;fill: none;"></path>
  <path d="M0.000000 111.628052L179.327087 111.628052" style="stroke:rgb(80.000305%,80.000305%,80.000305%); stroke-width: 0.199997;stroke-linecap: round;stroke-miterlimit: 10.000000;fill: none;"></path>
  <path d="M0.000000 99.672913L179.327087 99.672913" style="stroke:rgb(80.000305%,80.000305%,80.000305%); stroke-width: 0.199997;stroke-linecap: round;stroke-miterlimit: 10.000000;fill: none;"></path>
  <path d="M0.000000 87.717773L179.327087 87.717773" style="stroke:rgb(80.000305%,80.000305%,80.000305%); stroke-width: 0.199997;stroke-linecap: round;stroke-miterlimit: 10.000000;fill: none;"></path>
  <path d="M0.000000 75.762634L179.327087 75.762634" style="stroke:rgb(80.000305%,80.000305%,80.000305%); stroke-width: 0.199997;stroke-linecap: round;stroke-miterlimit: 10.000000;fill: none;"></path>
  <path d="M0.000000 63.807495L179.327087 63.807495" style="stroke:rgb(80.000305%,80.000305%,80.000305%); stroke-width: 0.199997;stroke-linecap: round;stroke-miterlimit: 10.000000;fill: none;"></path>
  <path d="M0.000000 51.852356L179.327087 51.852356" style="stroke:rgb(80.000305%,80.000305%,80.000305%); stroke-width: 0.199997;stroke-linecap: round;stroke-miterlimit: 10.000000;fill: none;"></path>
  <path d="M0.000000 39.897217L179.327087 39.897217" style="stroke:rgb(80.000305%,80.000305%,80.000305%); stroke-width: 0.199997;stroke-linecap: round;stroke-miterlimit: 10.000000;fill: none;"></path>
  <path d="M0.000000 27.942078L179.327087 27.942078" style="stroke:rgb(80.000305%,80.000305%,80.000305%); stroke-width: 0.199997;stroke-linecap: round;stroke-miterlimit: 10.000000;fill: none;"></path>
  <g transform="translate(24.408386 109.093277)" style="fill: rgb(0.000000%,0.000000%,0.000000%);">
    <use xlink:href="#GLYPHcmr10_49"></use>
  </g>
  <path d="M26.899063 99.672913l0 0" style="stroke:rgb(0.000000%,0.000000%,0.000000%); stroke-width: 3.000000;stroke-linecap: round;stroke-miterlimit: 10.000000;fill: none;"></path>
  <g transform="translate(123.038284 315.319427)" style="fill: rgb(0.000000%,0.000000%,0.000000%);">
    <use xlink:href="#GLYPHcmr10_50"></use>
  </g>
  <path d="M125.528961 305.899063l0 0" style="stroke:rgb(0.000000%,0.000000%,0.000000%); stroke-width: 3.000000;stroke-linecap: round;stroke-miterlimit: 10.000000;fill: none;"></path>
  <g transform="translate(123.038284 64.261505)" style="fill: rgb(0.000000%,0.000000%,0.000000%);">
    <use xlink:href="#GLYPHcmr10_51"></use>
  </g>
  <path d="M125.528961 54.841141l0 0" style="stroke:rgb(0.000000%,0.000000%,0.000000%); stroke-width: 3.000000;stroke-linecap: round;stroke-miterlimit: 10.000000;fill: none;"></path>
  <g transform="translate(123.038284 10.463379)" style="fill: rgb(0.000000%,0.000000%,0.000000%);">
    <use xlink:href="#GLYPHcmr10_52"></use>
  </g>
  <path d="M125.528961 1.043015l0 0" style="stroke:rgb(0.000000%,0.000000%,0.000000%); stroke-width: 3.000000;stroke-linecap: round;stroke-miterlimit: 10.000000;fill: none;"></path>
  <path d="M0.000000 374.641113L0.000000 4.031799L179.327087 4.031799L179.327087 374.641113Z" style="stroke:rgb(100.000000%,0.000000%,0.000000%); stroke-width: 0.199997;stroke-linecap: round;stroke-miterlimit: 10.000000;fill: none;"></path>
</svg>
