<?xml version="1.0"?>
<!-- Created by MetaPost 1.9991 on 2017.07.28:1115 -->
<svg version="1.1" xmlns="http://www.w3.org/2000/svg" xmlns:xlink="http://www.w3.org/1999/xlink" width="215.392517" height="538.181274" viewBox="0 0 215.392517 538.181274">
<!-- Original BoundingBox: -0.100006 -143.561676 215.292511 394.619598 -->
  <path d="M53.798126 420.899063C46.771332 375.806854,43.174530 330.246658,43.038666 284.610428C42.897461 237.178299,46.495087 189.808823,53.798126 142.942078L53.798126 142.942078C51.209366 194.463165,61.480652 245.818817,83.686340 292.380951C102.241577 331.288620,128.707794 365.898560,161.394379 394.000000L161.394379 394.000000C168.697418 347.133255,172.295044 299.763763,172.153839 252.331635C172.017975 206.695419,168.421173 161.135223,161.394379 116.043015" style="stroke:rgb(0.000000%,0.000000%,0.000000%); stroke-width: 53.798126;stroke-linejoin: bevel;stroke-miterlimit: 10.000000;fill: none;"></path>
  <path d="M17.932709 394.000000C17.790726 391.167816,20.243210 388.895630,23.056335 389.253052C25.401733 389.551041,27.095978 391.643967,26.899063 394.000000L26.899063 394.000000C44.520950 398.721771,63.075302 398.721771,80.697189 394.000000L80.697189 394.000000C80.500259 391.643951,82.194504 389.551041,84.539917 389.253052C87.353043 388.895630,89.805527 391.167816,89.663544 394.000000L89.663544 420.899063L17.932709 420.899063Z" style="fill: rgb(100.000000%,100.000000%,100.000000%);stroke: none;"></path>
  <path d="M89.663544 142.942078C89.805527 145.774261,87.353043 148.046448,84.539917 147.689026C82.194519 147.391037,80.500275 145.298111,80.697189 142.942078L80.697189 142.942078C63.075302 138.220306,44.520950 138.220306,26.899063 142.942078L26.899063 142.942078C27.095993 145.298126,25.401749 147.391037,23.056335 147.689026C20.243210 148.046448,17.790726 145.774261,17.932709 142.942078L17.932709 116.043015L89.663544 116.043015Z" style="fill: rgb(100.000000%,100.000000%,100.000000%);stroke: none;"></path>
  <path d="M125.528961 394.000000C125.386978 391.167816,127.839462 388.895630,130.652588 389.253052C132.997986 389.551041,134.692230 391.643967,134.495316 394.000000L134.495316 394.000000C152.117203 398.721771,170.671555 398.721771,188.293442 394.000000L188.293442 394.000000C188.096512 391.643951,189.790756 389.551041,192.136169 389.253052C194.949295 388.895630,197.401779 391.167816,197.259796 394.000000L197.259796 420.899063L125.528961 420.899063Z" style="fill: rgb(100.000000%,100.000000%,100.000000%);stroke: none;"></path>
  <path d="M197.259796 142.942078C197.401779 145.774261,194.949295 148.046448,192.136169 147.689026C189.790771 147.391037,188.096527 145.298111,188.293442 142.942078L188.293442 142.942078C170.671555 138.220306,152.117203 138.220306,134.495316 142.942078L134.495316 142.942078C134.692245 145.298126,132.998001 147.391037,130.652588 147.689026C127.839462 148.046448,125.386978 145.774261,125.528961 142.942078L125.528961 116.043015L197.259796 116.043015Z" style="fill: rgb(100.000000%,100.000000%,100.000000%);stroke: none;"></path>
  <path d="M0.000000 537.461670L0.000000 -0.519592L215.192505 -0.519592L215.192505 537.461670Z" style="stroke:rgb(100.000000%,0.000000%,0.000000%); stroke-width: 0.199997;stroke-linecap: round;stroke-linejoin: bevel;stroke-miterlimit: 10.000000;fill: none;"></path>
</svg>
