<?xml version="1.0"?>
<!-- Created by MetaPost 1.9991 on 2017.07.28:1115 -->
<svg version="1.1" xmlns="http://www.w3.org/2000/svg" xmlns:xlink="http://www.w3.org/1999/xlink" width="143.661682" height="538.181274" viewBox="0 0 143.661682 538.181274">
<!-- Original BoundingBox: -0.100006 -143.561676 143.561676 394.619598 -->
  <path d="M71.730835 116.043015L71.730835 229.018860L71.730835 349.168228" style="stroke:rgb(0.000000%,0.000000%,0.000000%); stroke-width: 53.798126;stroke-miterlimit: 10.000000;fill: none;"></path>
  <path d="M71.730835 420.899063L71.730835 383.539886L71.730835 325.257950" style="stroke:rgb(0.000000%,0.000000%,0.000000%); stroke-width: 53.798126;stroke-miterlimit: 10.000000;fill: none;"></path>
  <path d="M107.596252 142.942078C107.738235 145.774261,105.285751 148.046448,102.472626 147.689026C100.127228 147.391037,98.432983 145.298111,98.629898 142.942078L98.629898 142.942078C81.008011 138.220306,62.453659 138.220306,44.831772 142.942078L44.831772 142.942078C45.028702 145.298126,43.334457 147.391037,40.989044 147.689026C38.175919 148.046448,35.723434 145.774261,35.865417 142.942078L35.865417 116.043015L107.596252 116.043015Z" style="fill: rgb(100.000000%,100.000000%,100.000000%);stroke: none;"></path>
  <path d="M35.865417 322.269165C35.723434 319.436981,38.175919 317.164795,40.989044 317.522217C43.334442 317.820206,45.028687 319.913132,44.831772 322.269165L44.831772 322.269165C62.453659 326.990936,81.008011 326.990936,98.629898 322.269165L98.629898 322.269165C98.432968 319.913116,100.127213 317.820206,102.472626 317.522217C105.285751 317.164795,107.738235 319.436981,107.596252 322.269165L107.596252 349.168228L35.865417 349.168228Z" style="fill: rgb(100.000000%,100.000000%,100.000000%);stroke: none;"></path>
  <path d="M107.596252 352.157013C107.738235 354.989197,105.285751 357.261383,102.472626 356.903961C100.127228 356.605972,98.432983 354.513046,98.629898 352.157013L98.629898 352.157013C81.008011 347.435242,62.453659 347.435242,44.831772 352.157013L44.831772 352.157013C45.028702 354.513062,43.334457 356.605972,40.989044 356.903961C38.175919 357.261383,35.723434 354.989197,35.865417 352.157013L35.865417 325.257950L107.596252 325.257950Z" style="fill: rgb(100.000000%,100.000000%,100.000000%);stroke: none;"></path>
  <path d="M35.865417 394.000000C35.723434 391.167816,38.175919 388.895630,40.989044 389.253052C43.334442 389.551041,45.028687 391.643967,44.831772 394.000000L44.831772 394.000000C62.453659 398.721771,81.008011 398.721771,98.629898 394.000000L98.629898 394.000000C98.432968 391.643951,100.127213 389.551041,102.472626 389.253052C105.285751 388.895630,107.738235 391.167816,107.596252 394.000000L107.596252 420.899063L35.865417 420.899063Z" style="fill: rgb(100.000000%,100.000000%,100.000000%);stroke: none;"></path>
  <path d="M0.000000 537.461670L0.000000 -0.519592L143.461670 -0.519592L143.461670 537.461670Z" style="stroke:rgb(100.000000%,0.000000%,0.000000%); stroke-width: 0.199997;stroke-linecap: round;stroke-miterlimit: 10.000000;fill: none;"></path>
</svg>
