<?xml version="1.0"?>
<!-- Created by MetaPost 1.9991 on 2017.07.28:1115 -->
<svg version="1.1" xmlns="http://www.w3.org/2000/svg" xmlns:xlink="http://www.w3.org/1999/xlink" width="337.649368" height="586.626755" viewBox="0 0 337.649368 586.626755">
<!-- Original BoundingBox: -7.928375 -143.561676 329.720993 443.065079 -->
  <path d="M25.970688 289.197876C28.047180 267.234497,33.260513 241.836517,33.899063 219.119003C33.936020 217.804199,33.934113 216.488632,33.899063 215.173782C33.864014 213.858658,33.795822 212.544205,33.800430 211.228561C35.628967 -311.018509,583.491089 441.868744,130.496613 443.000000C129.181519 443.003281,127.866379 442.982101,126.551392 443.000000C125.235992 443.017899,123.366470 443.043335,122.606171 443.000000C73.170807 440.182358,111.847336 349.273148,64.743347 344.468735C63.433090 344.335098,62.114380 344.331192,60.798126 344.370102C59.483002 344.408981,57.242874 344.475189,56.852905 344.468735" style="stroke:rgb(0.000000%,0.000000%,0.000000%); stroke-width: 53.798126;stroke-miterlimit: 10.000000;fill: none;"></path>
  <path d="M7.000000 586.461670L7.000000 48.480408L246.102783 48.480408L246.102783 586.461670Z" style="stroke:rgb(100.000000%,0.000000%,0.000000%); stroke-width: 0.199997;stroke-linecap: round;stroke-miterlimit: 10.000000;fill: none;"></path>
</svg>
