<?xml version="1.0"?>
<!-- Created by MetaPost 1.9991 on 2017.07.28:1115 -->
<svg version="1.1" xmlns="http://www.w3.org/2000/svg" xmlns:xlink="http://www.w3.org/1999/xlink" width="215.292511" height="538.181274" viewBox="0 0 215.292511 538.181274">
<!-- Original BoundingBox: -0.100006 -143.561676 215.192505 394.619598 -->
  <path d="M53.798126 420.899063C51.457565 379.994217,50.261520 339.031891,50.211365 298.060165C50.159012 255.294693,51.355118 212.536804,53.798126 169.841141L53.798126 169.841141C76.620270 162.984970,100.356583 159.658661,124.184204 159.977554C145.908646 160.268295,167.486328 163.588150,188.293442 169.841141" style="stroke:rgb(0.000000%,0.000000%,0.000000%); stroke-width: 53.798126;stroke-miterlimit: 10.000000;fill: none;"></path>
  <path d="M53.723816 262.493469C77.194626 262.075470,100.668823 261.876205,124.143341 261.895676C145.528015 261.913422,166.912155 262.112686,188.293442 262.493469" style="stroke:rgb(0.000000%,0.000000%,0.000000%); stroke-width: 53.798126;stroke-miterlimit: 10.000000;fill: none;"></path>
  <path d="M17.932709 394.000000C17.790726 391.167816,20.243210 388.895630,23.056335 389.253052C25.401733 389.551041,27.095978 391.643967,26.899063 394.000000L26.899063 394.000000C44.520950 398.721771,63.075302 398.721771,80.697189 394.000000L80.697189 394.000000C80.500259 391.643951,82.194504 389.551041,84.539917 389.253052C87.353043 388.895630,89.805527 391.167816,89.663544 394.000000L89.663544 420.899063L17.932709 420.899063Z" style="fill: rgb(100.000000%,100.000000%,100.000000%);stroke: none;"></path>
  <path d="M161.394379 205.706558C158.562195 205.848541,156.290009 203.396057,156.647430 200.582932C156.945419 198.237534,159.038345 196.543289,161.394379 196.740204L161.394379 196.740204C166.116150 179.118317,166.116150 160.563965,161.394379 142.942078L161.394379 142.942078C159.038330 143.139008,156.945419 141.444763,156.647430 139.099350C156.290009 136.286224,158.562195 133.833740,161.394379 133.975723L188.293442 133.975723L188.293442 205.706558Z" style="fill: rgb(100.000000%,100.000000%,100.000000%);stroke: none;"></path>
  <path d="M161.394379 298.358887C158.562195 298.500870,156.290009 296.048386,156.647430 293.235260C156.945419 290.889862,159.038345 289.195618,161.394379 289.392532L161.394379 289.392532C166.116150 271.770645,166.116150 253.216293,161.394379 235.594406L161.394379 235.594406C159.038330 235.791336,156.945419 234.097092,156.647430 231.751678C156.290009 228.938553,158.562195 226.486069,161.394379 226.628052L188.293442 226.628052L188.293442 298.358887Z" style="fill: rgb(100.000000%,100.000000%,100.000000%);stroke: none;"></path>
  <path d="M0.000000 537.461670L0.000000 -0.519592L179.327087 -0.519592L179.327087 537.461670Z" style="stroke:rgb(100.000000%,0.000000%,0.000000%); stroke-width: 0.199997;stroke-linecap: round;stroke-miterlimit: 10.000000;fill: none;"></path>
</svg>
