<?xml version="1.0"?>
<!-- Created by MetaPost 1.9991 on 2017.07.28:1115 -->
<svg version="1.1" xmlns="http://www.w3.org/2000/svg" xmlns:xlink="http://www.w3.org/1999/xlink" width="215.292511" height="538.181274" viewBox="0 0 215.292511 538.181274">
<!-- Original BoundingBox: -0.100006 -143.561676 215.192505 394.619598 -->
  <path d="M188.293442 367.100937C170.003510 378.964371,148.897064 385.770477,127.122131 386.826614C101.219177 388.082977,75.574463 381.184006,53.798126 367.100937L53.798126 367.100937C51.407745 334.278641,50.211365 301.380280,50.211365 268.471039C50.211365 235.561798,51.407745 202.663437,53.798126 169.841141L53.798126 169.841141C76.620270 162.984970,100.356583 159.658661,124.184204 159.977554C145.908646 160.268295,167.486328 163.588150,188.293442 169.841141" style="stroke:rgb(0.000000%,0.000000%,0.000000%); stroke-width: 53.798126;stroke-miterlimit: 10.000000;fill: none;"></path>
  <path d="M53.691437 274.448608C77.167099 274.866592,100.646149 275.065857,124.125534 275.046402C145.516144 275.028671,166.906204 274.829407,188.293442 274.448608" style="stroke:rgb(0.000000%,0.000000%,0.000000%); stroke-width: 53.798126;stroke-miterlimit: 10.000000;fill: none;"></path>
  <path d="M161.394379 402.966354C158.562195 403.108337,156.290009 400.655853,156.647430 397.842728C156.945419 395.497330,159.038345 393.803085,161.394379 394.000000L161.394379 394.000000C166.116150 376.378113,166.116150 357.823761,161.394379 340.201874L161.394379 340.201874C159.038330 340.398804,156.945419 338.704559,156.647430 336.359146C156.290009 333.546021,158.562195 331.093536,161.394379 331.235519L188.293442 331.235519L188.293442 402.966354Z" style="fill: rgb(100.000000%,100.000000%,100.000000%);stroke: none;"></path>
  <path d="M161.394379 310.314026C158.562195 310.456009,156.290009 308.003525,156.647430 305.190399C156.945419 302.845001,159.038345 301.150757,161.394379 301.347672L161.394379 301.347672C166.116150 283.725784,166.116150 265.171432,161.394379 247.549545L161.394379 247.549545C159.038330 247.746475,156.945419 246.052231,156.647430 243.706818C156.290009 240.893692,158.562195 238.441208,161.394379 238.583191L188.293442 238.583191L188.293442 310.314026Z" style="fill: rgb(100.000000%,100.000000%,100.000000%);stroke: none;"></path>
  <path d="M161.394379 205.706558C158.562195 205.848541,156.290009 203.396057,156.647430 200.582932C156.945419 198.237534,159.038345 196.543289,161.394379 196.740204L161.394379 196.740204C166.116150 179.118317,166.116150 160.563965,161.394379 142.942078L161.394379 142.942078C159.038330 143.139008,156.945419 141.444763,156.647430 139.099350C156.290009 136.286224,158.562195 133.833740,161.394379 133.975723L188.293442 133.975723L188.293442 205.706558Z" style="fill: rgb(100.000000%,100.000000%,100.000000%);stroke: none;"></path>
  <path d="M0.000000 537.461670L0.000000 -0.519592L179.327087 -0.519592L179.327087 537.461670Z" style="stroke:rgb(100.000000%,0.000000%,0.000000%); stroke-width: 0.199997;stroke-linecap: round;stroke-miterlimit: 10.000000;fill: none;"></path>
</svg>
