<?xml version="1.0"?>
<!-- Created by MetaPost 1.9991 on 2017.07.28:1115 -->
<svg version="1.1" xmlns="http://www.w3.org/2000/svg" xmlns:xlink="http://www.w3.org/1999/xlink" width="268.990631" height="538.181274" viewBox="0 0 268.990631 538.181274">
<!-- Original BoundingBox: -26.899063 -143.561676 242.091568 394.619598 -->
  <path d="M133.596252 420.899063L133.596252 298.060165L133.596252 169.841141" style="stroke:rgb(0.000000%,0.000000%,0.000000%); stroke-width: 53.798126;stroke-miterlimit: 10.000000;fill: none;"></path>
  <path d="M26.000000 169.841141C61.805191 167.212341,97.694687 165.896606,133.596252 165.896606C169.497818 165.896606,205.387314 167.212341,241.192505 169.841141" style="stroke:rgb(0.000000%,0.000000%,0.000000%); stroke-width: 53.798126;stroke-miterlimit: 10.000000;fill: none;"></path>
  <path d="M97.730835 394.000000C97.588852 391.167816,100.041336 388.895630,102.854462 389.253052C105.199860 389.551041,106.894104 391.643967,106.697189 394.000000L106.697189 394.000000C124.319077 398.721771,142.873428 398.721771,160.495316 394.000000L160.495316 394.000000C160.298386 391.643951,161.992630 389.551041,164.338043 389.253052C167.151169 388.895630,169.603653 391.167816,169.461670 394.000000L169.461670 420.899063L97.730835 420.899063Z" style="fill: rgb(100.000000%,100.000000%,100.000000%);stroke: none;"></path>
  <path d="M52.899063 133.975723C55.731247 133.833740,58.003433 136.286224,57.646011 139.099350C57.348022 141.444748,55.255096 143.138992,52.899063 142.942078L52.899063 142.942078C48.177292 160.563965,48.177292 179.118317,52.899063 196.740204L52.899063 196.740204C55.255112 196.543274,57.348022 198.237518,57.646011 200.582932C58.003433 203.396057,55.731247 205.848541,52.899063 205.706558L26.000000 205.706558L26.000000 133.975723Z" style="fill: rgb(100.000000%,100.000000%,100.000000%);stroke: none;"></path>
  <path d="M214.293442 205.706558C211.461258 205.848541,209.189072 203.396057,209.546494 200.582932C209.844482 198.237534,211.937408 196.543289,214.293442 196.740204L214.293442 196.740204C219.015213 179.118317,219.015213 160.563965,214.293442 142.942078L214.293442 142.942078C211.937393 143.139008,209.844482 141.444763,209.546494 139.099350C209.189072 136.286224,211.461258 133.833740,214.293442 133.975723L241.192505 133.975723L241.192505 205.706558Z" style="fill: rgb(100.000000%,100.000000%,100.000000%);stroke: none;"></path>
  <path d="M26.000000 537.461670L26.000000 -0.519592L241.192505 -0.519592L241.192505 537.461670Z" style="stroke:rgb(100.000000%,0.000000%,0.000000%); stroke-width: 0.199997;stroke-linecap: round;stroke-miterlimit: 10.000000;fill: none;"></path>
</svg>
