<?xml version="1.0"?>
<!-- Created by MetaPost 1.9991 on 2017.07.28:1115 -->
<svg version="1.1" xmlns="http://www.w3.org/2000/svg" xmlns:xlink="http://www.w3.org/1999/xlink" width="269.716125" height="538.181274" viewBox="0 0 269.716125 538.181274">
<!-- Original BoundingBox: -32.929901 -143.561676 236.786224 394.619598 -->
  <path d="M32.000000 116.043015C46.590683 157.708618,61.685272 199.196060,77.280457 240.496201C93.293030 282.901733,109.832123 325.106567,126.893906 367.100937L140.343460 367.100937C157.405258 325.106567,173.944351 282.901733,189.956924 240.496201C205.552109 199.196060,220.646683 157.708618,235.237366 116.043015" style="stroke:rgb(0.000000%,0.000000%,0.000000%); stroke-width: 53.798126;stroke-miterlimit: 10.000000;fill: none;"></path>
  <path d="M75.587982 126.529663C76.840515 129.073792,75.489059 132.131729,72.764572 132.918198C70.493073 133.573898,68.108231 132.323578,67.355499 130.082352L67.355499 130.082352C49.305054 132.729294,32.269348 140.080978,17.960663 151.398514L17.960663 151.398514C19.074982 153.483704,18.348679 156.076614,16.313309 157.279526C13.872055 158.722336,10.720001 157.607849,9.728180 154.951202L-0.929901 130.253784L64.929901 101.832245Z" style="fill: rgb(100.000000%,100.000000%,100.000000%);stroke: none;"></path>
  <path d="M259.275757 153.885284C258.407211 156.584732,255.309769 157.843048,252.804718 156.514099C250.716171 155.406128,249.871338 152.849350,250.888535 150.715118L250.888535 150.715118C236.074295 140.067917,218.718369 133.507828,200.565262 131.694183L200.565262 131.694183C199.916458 133.967682,197.591675 135.326401,195.292389 134.775879C192.534592 134.115601,191.043869 131.123093,192.178040 128.524017L201.688507 103.362381L268.786224 128.723648Z" style="fill: rgb(100.000000%,100.000000%,100.000000%);stroke: none;"></path>
  <path d="M97.753265 367.100937C97.611282 364.268753,100.063766 361.996567,102.876892 362.353989C105.222290 362.651978,106.916534 364.744904,106.719620 367.100937L106.719620 367.100937C124.341507 371.822708,142.895859 371.822708,160.517746 367.100937L160.517746 367.100937C160.320816 364.744888,162.015060 362.651978,164.360474 362.353989C167.173599 361.996567,169.626083 364.268753,169.484100 367.100937L169.484100 394.000000L97.753265 394.000000Z" style="fill: rgb(100.000000%,100.000000%,100.000000%);stroke: none;"></path>
  <path d="M32.000000 537.461670L32.000000 -0.519592L235.237366 -0.519592L235.237366 537.461670Z" style="stroke:rgb(100.000000%,0.000000%,0.000000%); stroke-width: 0.199997;stroke-linecap: round;stroke-miterlimit: 10.000000;fill: none;"></path>
</svg>
