<?xml version="1.0"?>
<!-- Created by MetaPost 1.9991 on 2017.07.28:1115 -->
<svg version="1.1" xmlns="http://www.w3.org/2000/svg" xmlns:xlink="http://www.w3.org/1999/xlink" width="215.392517" height="538.181274" viewBox="0 0 215.392517 538.181274">
<!-- Original BoundingBox: -0.100006 -143.561676 215.292511 394.619598 -->
  <path d="M53.798126 420.899063C51.673950 379.627991,50.597687 338.309662,50.570374 296.983978C50.542358 254.582199,51.618637 212.186874,53.798126 169.841141L53.798126 169.841141L134.495316 169.841141C164.368378 169.841141,186.448196 196.582565,188.168442 227.605621C188.260773 229.270584,188.293442 230.938126,188.293442 232.605621C188.293442 234.273117,188.260773 235.940659,188.168442 237.605621C186.448151 268.628677,164.368362 295.370102,134.495316 295.370102L53.798126 295.370102" style="stroke:rgb(0.000000%,0.000000%,0.000000%); stroke-width: 53.798126;stroke-miterlimit: 10.000000;fill: none;"></path>
  <path d="M17.932709 394.000000C17.790726 391.167816,20.243210 388.895630,23.056335 389.253052C25.401733 389.551041,27.095978 391.643967,26.899063 394.000000L26.899063 394.000000C44.520950 398.721771,63.075302 398.721771,80.697189 394.000000L80.697189 394.000000C80.500259 391.643951,82.194504 389.551041,84.539917 389.253052C87.353043 388.895630,89.805527 391.167816,89.663544 394.000000L89.663544 420.899063L17.932709 420.899063Z" style="fill: rgb(100.000000%,100.000000%,100.000000%);stroke: none;"></path>
  <path d="M0.000000 537.461670L0.000000 -0.519592L215.192505 -0.519592L215.192505 537.461670Z" style="stroke:rgb(100.000000%,0.000000%,0.000000%); stroke-width: 0.199997;stroke-linecap: round;stroke-miterlimit: 10.000000;fill: none;"></path>
</svg>
