<?xml version="1.0"?>
<!-- Created by MetaPost 1.9991 on 2017.07.28:1115 -->
<svg version="1.1" xmlns="http://www.w3.org/2000/svg" xmlns:xlink="http://www.w3.org/1999/xlink" width="191.482239" height="538.181274" viewBox="0 0 191.482239 538.181274">
<!-- Original BoundingBox: -0.100006 -143.561676 191.382233 394.619598 -->
  <path d="M164.411957 212.182327C164.426468 211.717468,164.440109 211.252609,164.442932 210.787537C164.621506 181.394424,132.481537 165.084488,99.586334 166.075150C98.271362 166.114746,96.311966 166.173752,95.641113 166.173782C94.954895 166.173813,93.010864 166.114960,91.695892 166.075150C58.723083 165.076920,26.512085 181.396561,26.839294 210.787537C26.848175 211.584763,26.889069 212.381302,26.899063 213.178528C26.909058 213.975494,26.888168 214.772568,26.899063 215.569519C27.872925 286.818085,160.098755 243.480682,164.293503 311.509430C164.367111 312.703339,164.370453 313.899979,164.383163 315.096008C164.395859 316.291580,164.417953 317.487396,164.383163 318.682587C163.482498 349.629272,132.655228 369.120422,99.586334 370.669662C98.272125 370.731232,96.956787 370.768250,95.641113 370.768295C94.325439 370.768341,93.010101 370.731400,91.695892 370.669662C58.683838 369.118912,27.930450 349.622070,26.899063 318.682587C26.871674 317.860947,26.870956 317.038895,26.880737 316.216888" style="stroke:rgb(0.000000%,0.000000%,0.000000%); stroke-width: 53.798126;stroke-miterlimit: 10.000000;fill: none;"></path>
  <path d="M0.000000 537.461670L0.000000 -0.519592L191.282227 -0.519592L191.282227 537.461670Z" style="stroke:rgb(100.000000%,0.000000%,0.000000%); stroke-width: 0.199997;stroke-miterlimit: 10.000000;fill: none;"></path>
</svg>
