<?xml version="1.0"?>
<!-- Created by MetaPost 1.9991 on 2017.07.28:1115 -->
<svg version="1.1" xmlns="http://www.w3.org/2000/svg" xmlns:xlink="http://www.w3.org/1999/xlink" width="367.628906" height="538.181274" viewBox="0 0 367.628906 538.181274">
<!-- Original BoundingBox: -34.375214 -143.561676 333.253693 394.619598 -->
  <path d="M34.000000 116.043015C43.715256 157.846085,54.679291 199.349045,66.877396 240.496201C79.513260 283.119995,93.467361 325.341858,108.719620 367.100937L122.169159 367.100937C130.386948 334.115417,139.025314 301.236115,148.082153 268.471039C157.203354 235.473114,166.748245 202.593765,176.714462 169.841141L190.164017 169.841141C200.130234 202.593765,209.675140 235.473114,218.796341 268.471039C227.853180 301.236115,236.491531 334.115417,244.709320 367.100937L258.158859 367.100937C273.411118 325.341858,287.365234 283.119995,300.001099 240.496201C312.199203 199.349045,323.163239 157.846085,332.878479 116.043015" style="stroke:rgb(0.000000%,0.000000%,0.000000%); stroke-width: 53.798126;stroke-miterlimit: 10.000000;fill: none;"></path>
  <path d="M76.048111 131.593903C76.992081 134.267914,75.289627 137.145248,72.491440 137.605118C70.158493 137.988525,67.937637 136.465836,67.454315 134.151535L67.454315 134.151535C49.217728 134.652542,31.434311 139.945145,15.891479 149.497330L15.891479 149.497330C16.752289 151.699310,15.725433 154.188538,13.562485 155.143173C10.968185 156.288193,7.969467 154.809967,7.297684 152.054962L-0.375214 126.273544L68.375214 105.812485Z" style="fill: rgb(100.000000%,100.000000%,100.000000%);stroke: none;"></path>
  <path d="M359.580795 152.054962C358.909012 154.809967,355.910294 156.288193,353.315994 155.143173C351.153061 154.188538,350.126205 151.699295,350.987000 149.497330L350.987000 149.497330C335.444168 139.945145,317.660751 134.652542,299.424164 134.151535L299.424164 134.151535C298.940857 136.465851,296.720001 137.988525,294.387039 137.605118C291.588852 137.145248,289.886398 134.267914,290.830368 131.593903L298.503265 105.812485L367.253693 126.273544Z" style="fill: rgb(100.000000%,100.000000%,100.000000%);stroke: none;"></path>
  <path d="M79.578979 367.100937C79.436996 364.268753,81.889481 361.996567,84.702606 362.353989C87.048004 362.651978,88.742249 364.744904,88.545334 367.100937L88.545334 367.100937C106.167221 371.822708,124.721573 371.822708,142.343460 367.100937L142.343460 367.100937C142.146530 364.744888,143.840775 362.651978,146.186188 362.353989C148.999313 361.996567,151.451797 364.268753,151.309814 367.100937L151.309814 394.000000L79.578979 394.000000Z" style="fill: rgb(100.000000%,100.000000%,100.000000%);stroke: none;"></path>
  <path d="M215.568680 367.100937C215.426697 364.268753,217.879181 361.996567,220.692307 362.353989C223.037704 362.651978,224.731949 364.744904,224.535034 367.100937L224.535034 367.100937C242.156921 371.822708,260.711273 371.822708,278.333160 367.100937L278.333160 367.100937C278.136230 364.744888,279.830475 362.651978,282.175888 362.353989C284.989014 361.996567,287.441498 364.268753,287.299515 367.100937L287.299515 394.000000L215.568680 394.000000Z" style="fill: rgb(100.000000%,100.000000%,100.000000%);stroke: none;"></path>
  <path d="M219.304672 142.942078C219.446655 145.774261,216.994171 148.046448,214.181046 147.689026C211.835648 147.391037,210.141403 145.298111,210.338318 142.942078L210.338318 142.942078C192.716431 138.220306,174.162079 138.220306,156.540192 142.942078L156.540192 142.942078C156.737122 145.298126,155.042877 147.391037,152.697464 147.689026C149.884338 148.046448,147.431854 145.774261,147.573837 142.942078L147.573837 116.043015L219.304672 116.043015Z" style="fill: rgb(100.000000%,100.000000%,100.000000%);stroke: none;"></path>
  <path d="M34.000000 537.461670L34.000000 -0.519592L332.878479 -0.519592L332.878479 537.461670Z" style="stroke:rgb(100.000000%,0.000000%,0.000000%); stroke-width: 0.199997;stroke-linecap: round;stroke-miterlimit: 10.000000;fill: none;"></path>
</svg>
