<?xml version="1.0"?>
<!-- Created by MetaPost 1.9991 on 2017.07.28:1115 -->
<svg version="1.1" xmlns="http://www.w3.org/2000/svg" xmlns:xlink="http://www.w3.org/1999/xlink" width="252.042633" height="538.181274" viewBox="0 0 252.042633 538.181274">
<!-- Original BoundingBox: -30.380203 -143.561676 221.662430 394.619598 -->
  <path d="M30.000000 116.043015L125.641113 268.471039L221.282227 420.899063" style="stroke:rgb(0.000000%,0.000000%,0.000000%); stroke-width: 53.798126;stroke-miterlimit: 10.000000;fill: none;"></path>
  <path d="M221.282227 116.043015L125.641113 268.471039L30.000000 420.899063" style="stroke:rgb(0.000000%,0.000000%,0.000000%); stroke-width: 53.798126;stroke-miterlimit: 10.000000;fill: none;"></path>
  <path d="M13.916489 379.051651C15.301514 376.577148,18.586578 375.955948,20.779495 377.753876C22.607803 379.252853,22.930573 381.926178,21.511536 383.817215L21.511536 383.817215C33.928757 397.182770,49.645432 407.044312,67.081848 412.410599L67.081848 412.410599C68.167267 410.310226,70.714752 409.437881,72.859848 410.432037C75.432709 411.624435,76.302460 414.852600,74.676895 417.176163L60.380203 439.961319L-0.380203 401.836807Z" style="fill: rgb(100.000000%,100.000000%,100.000000%);stroke: none;"></path>
  <path d="M74.676895 119.765915C76.302460 122.089478,75.432709 125.317642,72.859848 126.510040C70.714767 127.504196,68.167267 126.631836,67.081848 124.531479L67.081848 124.531479C49.645432 129.897766,33.928757 139.759308,21.511536 153.124863L21.511536 153.124863C22.930573 155.015915,22.607819 157.689224,20.779495 159.188202C18.586578 160.986130,15.301514 160.364929,13.916489 157.890427L-0.380203 135.105270L60.380203 96.980759Z" style="fill: rgb(100.000000%,100.000000%,100.000000%);stroke: none;"></path>
  <path d="M237.365738 157.890427C235.980713 160.364929,232.695648 160.986130,230.502731 159.188202C228.674423 157.689224,228.351654 155.015900,229.770691 153.124863L229.770691 153.124863C217.353470 139.759308,201.636795 129.897766,184.200378 124.531479L184.200378 124.531479C183.114960 126.631851,180.567474 127.504196,178.422379 126.510040C175.849518 125.317642,174.979767 122.089478,176.605331 119.765915L190.902023 96.980759L251.662430 135.105270Z" style="fill: rgb(100.000000%,100.000000%,100.000000%);stroke: none;"></path>
  <path d="M176.605331 417.176163C174.979767 414.852600,175.849518 411.624435,178.422379 410.432037C180.567459 409.437881,183.114960 410.310242,184.200378 412.410599L184.200378 412.410599C201.636795 407.044312,217.353470 397.182770,229.770691 383.817215L229.770691 383.817215C228.351654 381.926163,228.674408 379.252853,230.502731 377.753876C232.695648 375.955948,235.980713 376.577148,237.365738 379.051651L251.662430 401.836807L190.902023 439.961319Z" style="fill: rgb(100.000000%,100.000000%,100.000000%);stroke: none;"></path>
  <path d="M30.000000 537.461670L30.000000 -0.519592L221.282227 -0.519592L221.282227 537.461670Z" style="stroke:rgb(100.000000%,0.000000%,0.000000%); stroke-width: 0.199997;stroke-linecap: round;stroke-miterlimit: 10.000000;fill: none;"></path>
</svg>
