<?xml version="1.0"?>
<!-- Created by MetaPost 1.9991 on 2017.07.28:1115 -->
<svg version="1.1" xmlns="http://www.w3.org/2000/svg" xmlns:xlink="http://www.w3.org/1999/xlink" width="239.302795" height="538.181274" viewBox="0 0 239.302795 538.181274">
<!-- Original BoundingBox: -0.100006 -143.561676 239.202789 394.619598 -->
  <path d="M53.798126 420.899063C49.416336 370.207855,47.222397 319.351273,47.222397 268.471039C47.222397 217.590805,49.416336 166.734222,53.798126 116.043015" style="stroke:rgb(0.000000%,0.000000%,0.000000%); stroke-width: 53.798126;stroke-miterlimit: 10.000000;fill: none;"></path>
  <path d="M185.304657 420.899063C189.686447 370.207855,191.880386 319.351273,191.880386 268.471039C191.880386 217.590805,189.686447 166.734222,185.304657 116.043015" style="stroke:rgb(0.000000%,0.000000%,0.000000%); stroke-width: 53.798126;stroke-miterlimit: 10.000000;fill: none;"></path>
  <path d="M53.698151 268.471039L119.496399 268.471039L185.304657 268.471039" style="stroke:rgb(0.000000%,0.000000%,0.000000%); stroke-width: 53.798126;stroke-miterlimit: 10.000000;fill: none;"></path>
  <path d="M17.932709 394.000000C17.790726 391.167816,20.243210 388.895630,23.056335 389.253052C25.401733 389.551041,27.095978 391.643967,26.899063 394.000000L26.899063 394.000000C44.520950 398.721771,63.075302 398.721771,80.697189 394.000000L80.697189 394.000000C80.500259 391.643951,82.194504 389.551041,84.539917 389.253052C87.353043 388.895630,89.805527 391.167816,89.663544 394.000000L89.663544 420.899063L17.932709 420.899063Z" style="fill: rgb(100.000000%,100.000000%,100.000000%);stroke: none;"></path>
  <path d="M149.439240 394.000000C149.297256 391.167816,151.749741 388.895630,154.562866 389.253052C156.908264 389.551041,158.602509 391.643967,158.405594 394.000000L158.405594 394.000000C176.027481 398.721771,194.581833 398.721771,212.203720 394.000000L212.203720 394.000000C212.006790 391.643951,213.701035 389.551041,216.046448 389.253052C218.859573 388.895630,221.312057 391.167816,221.170074 394.000000L221.170074 420.899063L149.439240 420.899063Z" style="fill: rgb(100.000000%,100.000000%,100.000000%);stroke: none;"></path>
  <path d="M89.663544 142.942078C89.805527 145.774261,87.353043 148.046448,84.539917 147.689026C82.194519 147.391037,80.500275 145.298111,80.697189 142.942078L80.697189 142.942078C63.075302 138.220306,44.520950 138.220306,26.899063 142.942078L26.899063 142.942078C27.095993 145.298126,25.401749 147.391037,23.056335 147.689026C20.243210 148.046448,17.790726 145.774261,17.932709 142.942078L17.932709 116.043015L89.663544 116.043015Z" style="fill: rgb(100.000000%,100.000000%,100.000000%);stroke: none;"></path>
  <path d="M221.170074 142.942078C221.312057 145.774261,218.859573 148.046448,216.046448 147.689026C213.701050 147.391037,212.006805 145.298111,212.203720 142.942078L212.203720 142.942078C194.581833 138.220306,176.027481 138.220306,158.405594 142.942078L158.405594 142.942078C158.602524 145.298126,156.908279 147.391037,154.562866 147.689026C151.749741 148.046448,149.297256 145.774261,149.439240 142.942078L149.439240 116.043015L221.170074 116.043015Z" style="fill: rgb(100.000000%,100.000000%,100.000000%);stroke: none;"></path>
  <path d="M0.000000 537.461670L0.000000 -0.519592L239.102783 -0.519592L239.102783 537.461670Z" style="stroke:rgb(100.000000%,0.000000%,0.000000%); stroke-width: 0.199997;stroke-linecap: round;stroke-miterlimit: 10.000000;fill: none;"></path>
</svg>
