<?xml version="1.0"?>
<!-- Created by MetaPost 1.9991 on 2017.07.28:1115 -->
<svg version="1.1" xmlns="http://www.w3.org/2000/svg" xmlns:xlink="http://www.w3.org/1999/xlink" width="179.527100" height="538.181274" viewBox="0 0 179.527100 538.181274">
<!-- Original BoundingBox: -0.100006 -143.561676 179.427094 394.619598 -->
  <path d="M89.663544 420.899063L89.663544 268.471039L89.663544 116.043015" style="stroke:rgb(0.000000%,0.000000%,0.000000%); stroke-width: 53.798126;stroke-miterlimit: 10.000000;fill: none;"></path>
  <path d="M53.798126 394.000000C53.656143 391.167816,56.108627 388.895630,58.921753 389.253052C61.267151 389.551041,62.961395 391.643967,62.764481 394.000000L62.764481 394.000000C80.386368 398.721771,98.940720 398.721771,116.562607 394.000000L116.562607 394.000000C116.365677 391.643951,118.059921 389.551041,120.405334 389.253052C123.218460 388.895630,125.670944 391.167816,125.528961 394.000000L125.528961 420.899063L53.798126 420.899063Z" style="fill: rgb(100.000000%,100.000000%,100.000000%);stroke: none;"></path>
  <path d="M125.528961 142.942078C125.670944 145.774261,123.218460 148.046448,120.405334 147.689026C118.059937 147.391037,116.365692 145.298111,116.562607 142.942078L116.562607 142.942078C98.940720 138.220306,80.386368 138.220306,62.764481 142.942078L62.764481 142.942078C62.961411 145.298126,61.267166 147.391037,58.921753 147.689026C56.108627 148.046448,53.656143 145.774261,53.798126 142.942078L53.798126 116.043015L125.528961 116.043015Z" style="fill: rgb(100.000000%,100.000000%,100.000000%);stroke: none;"></path>
  <path d="M0.000000 537.461670L0.000000 -0.519592L179.327087 -0.519592L179.327087 537.461670Z" style="stroke:rgb(100.000000%,0.000000%,0.000000%); stroke-width: 0.199997;stroke-linecap: round;stroke-miterlimit: 10.000000;fill: none;"></path>
</svg>
