<?xml version="1.0"?>
<!-- Created by MetaPost 1.9991 on 2017.04.10:1254 -->
<svg version="1.1" xmlns="http://www.w3.org/2000/svg" xmlns:xlink="http://www.w3.org/1999/xlink" width="263.013062" height="370.809326" viewBox="0 0 263.013062 370.809326">
<!-- Original BoundingBox: -23.910278 -95.741119 239.102783 275.068207 -->
  <path d="M130.596252 298.910278L130.596252 173.620651L130.596252 47.852356" style="stroke:rgb(0.000000%,0.000000%,0.000000%); stroke-width: 47.820557;stroke-miterlimit: 10.000000;fill: none;"></path>
  <path d="M23.000000 47.852356C58.864777 47.581528,94.730453 47.446106,130.596252 47.446106C166.462051 47.446106,202.327728 47.581528,238.192505 47.852356" style="stroke:rgb(0.000000%,0.000000%,0.000000%); stroke-width: 47.820557;stroke-miterlimit: 10.000000;fill: none;"></path>
  <path d="M104.029327 275.000000C121.605042 271.900970,139.587463 271.900970,157.163177 275.000000L157.163177 322.820557L104.029327 322.820557Z" style="fill: rgb(100.000000%,100.000000%,100.000000%);stroke: none;"></path>
  <path d="M46.910278 21.285431C50.009308 38.861145,50.009308 56.843567,46.910278 74.419281L-0.910278 74.419281L-0.910278 21.285431Z" style="fill: rgb(100.000000%,100.000000%,100.000000%);stroke: none;"></path>
  <path d="M214.282227 74.419281C211.183197 56.843567,211.183197 38.861145,214.282227 21.285431L262.102783 21.285431L262.102783 74.419281Z" style="fill: rgb(100.000000%,100.000000%,100.000000%);stroke: none;"></path>
  <path d="M23.000000 370.641113L23.000000 0.031799L238.192505 0.031799L238.192505 370.641113Z" style="stroke:rgb(100.000000%,0.000000%,0.000000%); stroke-width: 0.199997;stroke-linecap: round;stroke-miterlimit: 10.000000;fill: none;"></path>
</svg>
