<?xml version="1.0"?>
<!-- Created by MetaPost 1.9991 on 2017.04.10:1254 -->
<svg version="1.1" xmlns="http://www.w3.org/2000/svg" xmlns:xlink="http://www.w3.org/1999/xlink" width="215.392517" height="394.619598" viewBox="0 0 215.392517 394.619598">
<!-- Original BoundingBox: -0.100006 -95.741119 215.292511 298.878479 -->
  <path d="M47.820557 321.910278C47.421661 272.098206,47.222214 222.284714,47.222214 172.471039C47.222214 122.657364,47.421661 72.843872,47.820557 23.031799" style="stroke:rgb(0.000000%,0.000000%,0.000000%); stroke-width: 47.820557;stroke-miterlimit: 10.000000;fill: none;"></path>
  <path d="M167.371948 321.910278C167.531265 272.097351,167.610916 222.284210,167.610916 172.471039C167.610916 122.657867,167.531265 72.844727,167.371948 23.031799" style="stroke:rgb(0.000000%,0.000000%,0.000000%); stroke-width: 47.820557;stroke-miterlimit: 10.000000;fill: none;"></path>
  <path d="M47.800552 172.471039L107.586060 172.471039L167.371948 172.471039" style="stroke:rgb(0.000000%,0.000000%,0.000000%); stroke-width: 47.820557;stroke-miterlimit: 10.000000;fill: none;"></path>
  <path d="M21.253632 298.000000C38.829346 294.900970,56.811768 294.900970,74.387482 298.000000L74.387482 345.820557L21.253632 345.820557Z" style="fill: rgb(100.000000%,100.000000%,100.000000%);stroke: none;"></path>
  <path d="M140.805023 298.000000C158.380737 294.900970,176.363159 294.900970,193.938873 298.000000L193.938873 345.820557L140.805023 345.820557Z" style="fill: rgb(100.000000%,100.000000%,100.000000%);stroke: none;"></path>
  <path d="M74.387482 46.942078C56.811768 50.041107,38.829346 50.041107,21.253632 46.942078L21.253632 -0.878479L74.387482 -0.878479Z" style="fill: rgb(100.000000%,100.000000%,100.000000%);stroke: none;"></path>
  <path d="M193.938873 46.942078C176.363159 50.041107,158.380737 50.041107,140.805023 46.942078L140.805023 -0.878479L193.938873 -0.878479Z" style="fill: rgb(100.000000%,100.000000%,100.000000%);stroke: none;"></path>
  <path d="M0.000000 393.641113L0.000000 23.031799L215.192505 23.031799L215.192505 393.641113Z" style="stroke:rgb(100.000000%,0.000000%,0.000000%); stroke-width: 0.199997;stroke-linecap: round;stroke-miterlimit: 10.000000;fill: none;"></path>
</svg>
