<?xml version="1.0"?>
<!-- Created by MetaPost 1.9991 on 2017.04.10:1254 -->
<svg version="1.1" xmlns="http://www.w3.org/2000/svg" xmlns:xlink="http://www.w3.org/1999/xlink" width="215.392517" height="394.619598" viewBox="0 0 215.392517 394.619598">
<!-- Original BoundingBox: -0.100006 -95.741119 215.292511 298.878479 -->
  <path d="M47.820557 321.910278C47.024780 276.166275,46.626175 230.416245,46.624786 184.665329C46.623398 138.754974,47.022003 92.845474,47.820557 46.942078L47.820557 46.942078L107.596252 172.471039L167.371948 298.000000L167.371948 298.000000C168.170502 252.096603,168.569107 206.187103,168.567719 160.276749C168.566330 114.525833,168.167725 68.775803,167.371948 23.031799" style="stroke:rgb(0.000000%,0.000000%,0.000000%); stroke-width: 47.820557;stroke-miterlimit: 10.000000;fill: none;"></path>
  <path d="M74.387482 70.852356C56.811768 73.951385,38.829346 73.951385,21.253632 70.852356L21.253632 23.031799L74.387482 23.031799Z" style="fill: rgb(100.000000%,100.000000%,100.000000%);stroke: none;"></path>
  <path d="M133.105881 287.834274C147.641968 277.479904,163.877625 269.748703,181.078445 264.990341L201.638016 308.165726L153.665451 331.009659Z" style="fill: rgb(100.000000%,100.000000%,100.000000%);stroke: none;"></path>
  <path d="M193.938873 46.942078C176.363159 50.041107,158.380737 50.041107,140.805023 46.942078L140.805023 -0.878479L193.938873 -0.878479Z" style="fill: rgb(100.000000%,100.000000%,100.000000%);stroke: none;"></path>
  <path d="M0.000000 393.641113L0.000000 23.031799L215.192505 23.031799L215.192505 393.641113Z" style="stroke:rgb(100.000000%,0.000000%,0.000000%); stroke-width: 0.199997;stroke-linecap: round;stroke-miterlimit: 10.000000;fill: none;"></path>
</svg>
