<?xml version="1.0"?>
<!-- Created by MetaPost 1.9991 on 2017.04.10:1254 -->
<svg version="1.1" xmlns="http://www.w3.org/2000/svg" xmlns:xlink="http://www.w3.org/1999/xlink" width="211.307465" height="370.809326" viewBox="0 0 211.307465 370.809326">
<!-- Original BoundingBox: -0.100006 -95.741119 211.207458 275.068207 -->
  <path d="M187.297180 251.089722C164.261505 252.433884,141.191757 253.111786,118.116898 253.122528C94.669937 253.133453,71.227707 252.455566,47.820557 251.089722L47.820557 251.089722C47.541336 217.217545,47.401718 183.344360,47.401718 149.471039C47.401718 115.597717,47.541336 81.724533,47.820557 47.852356L47.820557 47.852356C71.102844 47.581085,94.386520 47.445679,117.670395 47.446106C140.879913 47.446533,164.089233 47.581955,187.297180 47.852356" style="stroke:rgb(0.000000%,0.000000%,0.000000%); stroke-width: 47.820557;stroke-miterlimit: 10.000000;fill: none;"></path>
  <path d="M47.810959 137.515900C71.244293 137.355179,94.678116 137.275467,118.112000 137.276749C141.173935 137.278015,164.235794 137.357727,187.297180 137.515900" style="stroke:rgb(0.000000%,0.000000%,0.000000%); stroke-width: 47.820557;stroke-miterlimit: 10.000000;fill: none;"></path>
  <path d="M163.386902 277.656647C160.287872 260.080933,160.287872 242.098511,163.386902 224.522797L211.207458 224.522797L211.207458 277.656647Z" style="fill: rgb(100.000000%,100.000000%,100.000000%);stroke: none;"></path>
  <path d="M163.386902 164.082825C160.287872 146.507111,160.287872 128.524689,163.386902 110.948975L211.207458 110.948975L211.207458 164.082825Z" style="fill: rgb(100.000000%,100.000000%,100.000000%);stroke: none;"></path>
  <path d="M163.386902 74.419281C160.287872 56.843567,160.287872 38.861145,163.386902 21.285431L211.207458 21.285431L211.207458 74.419281Z" style="fill: rgb(100.000000%,100.000000%,100.000000%);stroke: none;"></path>
  <path d="M0.000000 370.641113L0.000000 0.031799L179.327087 0.031799L179.327087 370.641113Z" style="stroke:rgb(100.000000%,0.000000%,0.000000%); stroke-width: 0.199997;stroke-linecap: round;stroke-miterlimit: 10.000000;fill: none;"></path>
</svg>
