<?xml version="1.0"?>
<!-- Created by MetaPost 1.9991 on 2017.04.10:1254 -->
<svg version="1.1" xmlns="http://www.w3.org/2000/svg" xmlns:xlink="http://www.w3.org/1999/xlink" width="235.080490" height="370.809326" viewBox="0 0 235.080490 370.809326">
<!-- Original BoundingBox: -0.100006 -95.741119 234.980484 275.068207 -->
  <path d="M47.820557 298.910278C47.581848 257.115509,47.462372 215.320160,47.462097 173.524704C47.461823 131.633667,47.581314 89.742706,47.820557 47.852356L47.820557 47.852356L89.663544 47.852356C134.831116 47.852356,187.719498 44.493332,191.157227 84.695343C191.299362 86.357559,191.292892 88.027359,191.282227 89.695343C191.271561 91.362778,191.256744 93.030762,191.157227 94.695343C188.417068 140.529770,138.146057 161.274200,89.663544 170.112244L47.820557 177.740082" style="stroke:rgb(0.000000%,0.000000%,0.000000%); stroke-width: 47.820557;stroke-miterlimit: 10.000000;fill: none;"></path>
  <path d="M89.663544 170.112244C108.189423 193.666351,127.195602 216.838715,146.670105 239.614761C163.839325 259.694687,181.369583 279.463089,199.252319 298.910278" style="stroke:rgb(0.000000%,0.000000%,0.000000%); stroke-width: 47.820557;stroke-miterlimit: 10.000000;fill: none;"></path>
  <path d="M21.253632 275.000000C38.829346 271.900970,56.811768 271.900970,74.387482 275.000000L74.387482 322.820557L21.253632 322.820557Z" style="fill: rgb(100.000000%,100.000000%,100.000000%);stroke: none;"></path>
  <path d="M163.524155 297.915970C174.901794 284.166199,188.597412 272.513123,203.991531 263.483871L234.980484 299.904587L194.513107 334.336685Z" style="fill: rgb(100.000000%,100.000000%,100.000000%);stroke: none;"></path>
  <path d="M0.000000 370.641113L0.000000 0.031799L215.192505 0.031799L215.192505 370.641113Z" style="stroke:rgb(100.000000%,0.000000%,0.000000%); stroke-width: 0.199997;stroke-linecap: round;stroke-miterlimit: 10.000000;fill: none;"></path>
</svg>
