<?xml version="1.0"?>
<!-- Created by MetaPost 1.999 on 2016.03.30:1253 -->
<svg version="1.1" xmlns="http://www.w3.org/2000/svg" xmlns:xlink="http://www.w3.org/1999/xlink" width="957.411133" height="1196.513916" viewBox="0 0 957.411133 1196.513916">
<!-- Original BoundingBox: -120.051392 -239.602783 837.359741 956.911133 -->
  <g transform="matrix(1.000000,-0.000000,-0.000000,0.899994,0.000000,0.000000)">
    <path d="M478.654175 192.154662C562.205841 192.154662,661.576340 192.170498,704.605316 256.980068C747.634308 321.789656,747.644806 479.217129,747.644806 597.304210C747.644806 715.391290,747.634308 872.818764,704.605316 937.628351C661.576340 1002.437922,562.205841 1002.453757,478.654175 1002.453757" style="stroke:rgb(60.000610%,60.000610%,60.000610%); stroke-width: 119.551392;stroke-linecap: round;stroke-miterlimit: 10.000000;fill: none;"></path>
  </g>
  <g transform="matrix(1.000000,-0.000000,-0.000000,0.899994,0.000000,0.000000)">
    <path d="M478.654175 1002.453757L239.551392 1002.453757L239.551392 192.154662L478.654175 192.154662" style="stroke:rgb(60.000610%,60.000610%,60.000610%); stroke-width: 119.551392;stroke-miterlimit: 10.000000;fill: none;"></path>
  </g>
  <path d="M0.448608 1195.102783L956.859741 1195.102783L956.859741 -0.411133L0.448608 -0.411133Z" style="stroke:rgb(100.000000%,100.000000%,100.000000%); stroke-width: 1.000000;stroke-linecap: round;stroke-miterlimit: 10.000000;fill: none;"></path>
  <path d="M120.000000 119.140259L120.000000 956.000000" style="stroke:rgb(0.000000%,0.000000%,100.000000%); stroke-width: 1.199997;stroke-linecap: round;stroke-miterlimit: 10.000000;fill: none;"></path>
  <path d="M239.551392 119.140259L239.551392 956.000000" style="stroke:rgb(0.000000%,0.000000%,100.000000%); stroke-width: 1.199997;stroke-linecap: round;stroke-miterlimit: 10.000000;fill: none;"></path>
  <path d="M359.102783 119.140259L359.102783 956.000000" style="stroke:rgb(0.000000%,0.000000%,100.000000%); stroke-width: 1.199997;stroke-linecap: round;stroke-miterlimit: 10.000000;fill: none;"></path>
  <path d="M478.654175 119.140259L478.654175 956.000000" style="stroke:rgb(0.000000%,0.000000%,100.000000%); stroke-width: 1.199997;stroke-linecap: round;stroke-miterlimit: 10.000000;fill: none;"></path>
  <path d="M598.205566 119.140259L598.205566 956.000000" style="stroke:rgb(0.000000%,0.000000%,100.000000%); stroke-width: 1.199997;stroke-linecap: round;stroke-miterlimit: 10.000000;fill: none;"></path>
  <path d="M717.756958 119.140259L717.756958 956.000000" style="stroke:rgb(0.000000%,0.000000%,100.000000%); stroke-width: 1.199997;stroke-linecap: round;stroke-miterlimit: 10.000000;fill: none;"></path>
  <path d="M837.308350 119.140259L837.308350 956.000000" style="stroke:rgb(0.000000%,0.000000%,100.000000%); stroke-width: 1.199997;stroke-linecap: round;stroke-miterlimit: 10.000000;fill: none;"></path>
  <path d="M120.000000 956.000000L837.308350 956.000000" style="stroke:rgb(0.000000%,0.000000%,100.000000%); stroke-width: 1.199997;stroke-linecap: round;stroke-miterlimit: 10.000000;fill: none;"></path>
  <path d="M120.000000 836.448608L837.308350 836.448608" style="stroke:rgb(0.000000%,0.000000%,100.000000%); stroke-width: 1.199997;stroke-linecap: round;stroke-miterlimit: 10.000000;fill: none;"></path>
  <path d="M120.000000 716.897217L837.308350 716.897217" style="stroke:rgb(0.000000%,0.000000%,100.000000%); stroke-width: 1.199997;stroke-linecap: round;stroke-miterlimit: 10.000000;fill: none;"></path>
  <path d="M120.000000 597.345825L837.308350 597.345825" style="stroke:rgb(0.000000%,0.000000%,100.000000%); stroke-width: 1.199997;stroke-linecap: round;stroke-miterlimit: 10.000000;fill: none;"></path>
  <path d="M120.000000 477.794434L837.308350 477.794434" style="stroke:rgb(0.000000%,0.000000%,100.000000%); stroke-width: 1.199997;stroke-linecap: round;stroke-miterlimit: 10.000000;fill: none;"></path>
  <path d="M120.000000 358.243042L837.308350 358.243042" style="stroke:rgb(0.000000%,0.000000%,100.000000%); stroke-width: 1.199997;stroke-linecap: round;stroke-miterlimit: 10.000000;fill: none;"></path>
  <path d="M120.000000 238.691650L837.308350 238.691650" style="stroke:rgb(0.000000%,0.000000%,100.000000%); stroke-width: 1.199997;stroke-linecap: round;stroke-miterlimit: 10.000000;fill: none;"></path>
  <path d="M120.000000 119.140259L837.308350 119.140259" style="stroke:rgb(0.000000%,0.000000%,100.000000%); stroke-width: 1.199997;stroke-linecap: round;stroke-miterlimit: 10.000000;fill: none;"></path>
  <g transform="matrix(2.199997,-0.000000,-0.000000,2.199997,234.071930 899.202240)" style="fill: rgb(0.000000%,0.000000%,0.000000%);">
    <text font-size="9.962646">1</text>
  </g>
  <path d="M239.551392 902.202240l0 0" style="stroke:rgb(0.000000%,0.000000%,0.000000%); stroke-width: 3.000000;stroke-linecap: round;stroke-miterlimit: 10.000000;fill: none;"></path>
  <g transform="matrix(2.199997,-0.000000,-0.000000,2.199997,234.071930 169.938019)" style="fill: rgb(0.000000%,0.000000%,0.000000%);">
    <text font-size="9.962646">2</text>
  </g>
  <path d="M239.551392 172.938019l0 0" style="stroke:rgb(0.000000%,0.000000%,0.000000%); stroke-width: 3.000000;stroke-linecap: round;stroke-miterlimit: 10.000000;fill: none;"></path>
  <g transform="matrix(2.199997,-0.000000,-0.000000,2.199997,473.174713 169.938019)" style="fill: rgb(0.000000%,0.000000%,0.000000%);">
    <text font-size="9.962646">3</text>
  </g>
  <path d="M478.654175 172.938019l0 0" style="stroke:rgb(0.000000%,0.000000%,0.000000%); stroke-width: 3.000000;stroke-linecap: round;stroke-miterlimit: 10.000000;fill: none;"></path>
  <g transform="matrix(2.199997,-0.000000,-0.000000,2.199997,742.165344 534.570129)" style="fill: rgb(0.000000%,0.000000%,0.000000%);">
    <text font-size="9.962646">4</text>
  </g>
  <path d="M747.644806 537.570129l0 0" style="stroke:rgb(0.000000%,0.000000%,0.000000%); stroke-width: 3.000000;stroke-linecap: round;stroke-miterlimit: 10.000000;fill: none;"></path>
  <g transform="matrix(2.199997,-0.000000,-0.000000,2.199997,473.174713 899.202240)" style="fill: rgb(0.000000%,0.000000%,0.000000%);">
    <text font-size="9.962646">5</text>
  </g>
  <path d="M478.654175 902.202240l0 0" style="stroke:rgb(0.000000%,0.000000%,0.000000%); stroke-width: 3.000000;stroke-linecap: round;stroke-miterlimit: 10.000000;fill: none;"></path>
</svg>
