<?xml version="1.0"?>
<!-- Created by MetaPost 1.999 on 2016.03.30:1323 -->
<svg version="1.1" xmlns="http://www.w3.org/2000/svg" xmlns:xlink="http://www.w3.org/1999/xlink" width="837.859741" height="1196.513916" viewBox="0 0 837.859741 1196.513916">
<!-- Original BoundingBox: -120.051392 -239.602783 717.808350 956.911133 -->
  <g transform="matrix(1.000000,-0.000000,-0.000000,0.899994,0.000000,0.000000)">
    <path d="M598.205566 132.378966L598.205566 796.557885" style="stroke:rgb(60.000610%,60.000610%,60.000610%); stroke-width: 119.551392;stroke-miterlimit: 10.000000;fill: none;"></path>
  </g>
  <path d="M657.981262 657.121521L538.429871 657.121521C538.429871 712.375656,538.422867 783.134811,509.736877 812.777069C481.050903 842.419312,412.939621 842.426544,359.102783 842.426544L478.654175 842.426544C424.817337 842.426544,356.706055 842.419312,328.020081 812.777069C299.334091 783.134811,299.327087 712.375656,299.327087 657.121521L299.327087 657.121521L179.775696 776.672913C179.775696 831.927048,179.782700 902.686203,208.468689 932.328461C237.154663 961.970703,305.265945 961.977936,359.102783 961.977936L478.654175 961.977936L478.654175 961.977936C532.491013 961.977936,600.602295 961.970703,629.288269 932.328461C657.974258 902.686203,657.981262 831.927048,657.981262 776.672913L657.981262 657.121521Z" style="fill: rgb(60.000610%,60.000610%,60.000610%);stroke: none;"></path>
  <path d="M0.448608 1195.102783L837.308350 1195.102783L837.308350 -0.411133L0.448608 -0.411133Z" style="stroke:rgb(100.000000%,100.000000%,100.000000%); stroke-width: 1.000000;stroke-linecap: round;stroke-miterlimit: 10.000000;fill: none;"></path>
  <path d="M120.000000 119.140259L120.000000 956.000000" style="stroke:rgb(0.000000%,0.000000%,100.000000%); stroke-width: 1.199997;stroke-linecap: round;stroke-miterlimit: 10.000000;fill: none;"></path>
  <path d="M239.551392 119.140259L239.551392 956.000000" style="stroke:rgb(0.000000%,0.000000%,100.000000%); stroke-width: 1.199997;stroke-linecap: round;stroke-miterlimit: 10.000000;fill: none;"></path>
  <path d="M359.102783 119.140259L359.102783 956.000000" style="stroke:rgb(0.000000%,0.000000%,100.000000%); stroke-width: 1.199997;stroke-linecap: round;stroke-miterlimit: 10.000000;fill: none;"></path>
  <path d="M478.654175 119.140259L478.654175 956.000000" style="stroke:rgb(0.000000%,0.000000%,100.000000%); stroke-width: 1.199997;stroke-linecap: round;stroke-miterlimit: 10.000000;fill: none;"></path>
  <path d="M598.205566 119.140259L598.205566 956.000000" style="stroke:rgb(0.000000%,0.000000%,100.000000%); stroke-width: 1.199997;stroke-linecap: round;stroke-miterlimit: 10.000000;fill: none;"></path>
  <path d="M717.756958 119.140259L717.756958 956.000000" style="stroke:rgb(0.000000%,0.000000%,100.000000%); stroke-width: 1.199997;stroke-linecap: round;stroke-miterlimit: 10.000000;fill: none;"></path>
  <path d="M120.000000 956.000000L717.756958 956.000000" style="stroke:rgb(0.000000%,0.000000%,100.000000%); stroke-width: 1.199997;stroke-linecap: round;stroke-miterlimit: 10.000000;fill: none;"></path>
  <path d="M120.000000 836.448608L717.756958 836.448608" style="stroke:rgb(0.000000%,0.000000%,100.000000%); stroke-width: 1.199997;stroke-linecap: round;stroke-miterlimit: 10.000000;fill: none;"></path>
  <path d="M120.000000 716.897217L717.756958 716.897217" style="stroke:rgb(0.000000%,0.000000%,100.000000%); stroke-width: 1.199997;stroke-linecap: round;stroke-miterlimit: 10.000000;fill: none;"></path>
  <path d="M120.000000 597.345825L717.756958 597.345825" style="stroke:rgb(0.000000%,0.000000%,100.000000%); stroke-width: 1.199997;stroke-linecap: round;stroke-miterlimit: 10.000000;fill: none;"></path>
  <path d="M120.000000 477.794434L717.756958 477.794434" style="stroke:rgb(0.000000%,0.000000%,100.000000%); stroke-width: 1.199997;stroke-linecap: round;stroke-miterlimit: 10.000000;fill: none;"></path>
  <path d="M120.000000 358.243042L717.756958 358.243042" style="stroke:rgb(0.000000%,0.000000%,100.000000%); stroke-width: 1.199997;stroke-linecap: round;stroke-miterlimit: 10.000000;fill: none;"></path>
  <path d="M120.000000 238.691650L717.756958 238.691650" style="stroke:rgb(0.000000%,0.000000%,100.000000%); stroke-width: 1.199997;stroke-linecap: round;stroke-miterlimit: 10.000000;fill: none;"></path>
  <path d="M120.000000 119.140259L717.756958 119.140259" style="stroke:rgb(0.000000%,0.000000%,100.000000%); stroke-width: 1.199997;stroke-linecap: round;stroke-miterlimit: 10.000000;fill: none;"></path>
  <g transform="matrix(2.199997,-0.000000,-0.000000,2.199997,592.726105 116.140259)" style="fill: rgb(0.000000%,0.000000%,0.000000%);">
    <text font-size="9.962646">1</text>
  </g>
  <path d="M598.205566 119.140259l0 0" style="stroke:rgb(0.000000%,0.000000%,0.000000%); stroke-width: 3.000000;stroke-linecap: round;stroke-miterlimit: 10.000000;fill: none;"></path>
</svg>
