<?xml version="1.0"?>
<!-- Created by MetaPost 1.999 on 2016.02.23:0118 -->
<svg version="1.1" xmlns="http://www.w3.org/2000/svg" xmlns:xlink="http://www.w3.org/1999/xlink" width="766.128174" height="1196.513916" viewBox="0 0 766.128174 1196.513916">
<!-- Original BoundingBox: -24.409912 -239.602783 741.718262 956.911133 -->
  <g transform="matrix(1.000000,-0.000000,-0.000000,0.476513,0.000000,0.000000)">
    <path d="M113.663544 1128.133598C113.663544 893.557661,113.672729 559.995293,151.322067 449.556848C188.971390 339.118371,297.314331 339.091409,382.654175 339.091409C467.994019 339.091409,576.336960 339.118371,613.986282 449.556848C651.635620 559.995293,651.644806 893.557661,651.644806 1128.133598" style="stroke:rgb(0.000000%,0.000000%,0.000000%); stroke-width: 178.132233;stroke-miterlimit: 10.000000;fill: none;"></path>
  </g>
  <g transform="matrix(1.000000,-0.000000,-0.000000,0.476513,0.000000,0.000000)">
    <path d="M113.663544 1128.133598C113.663544 1362.709534,113.672729 1696.271902,151.322067 1806.710347C188.971390 1917.148824,297.314331 1917.175786,382.654175 1917.175786C467.994019 1917.175786,576.336960 1917.148824,613.986282 1806.710347C651.635620 1696.271902,651.644806 1362.709534,651.644806 1128.133598" style="stroke:rgb(0.000000%,0.000000%,0.000000%); stroke-width: 178.132233;stroke-miterlimit: 10.000000;fill: none;"></path>
  </g>
  <g transform="matrix(1.000000,-0.000000,-0.000000,0.476513,0.000000,0.000000)">
    <path d="M382.654175 1504.465728L621.756958 2181.862795" style="stroke:rgb(0.000000%,0.000000%,0.000000%); stroke-width: 178.132233;stroke-miterlimit: 10.000000;fill: none;"></path>
  </g>
  <path d="M0.090088 1195.102783L765.218262 1195.102783L765.218262 -0.411133L0.090088 -0.411133Z" style="stroke:rgb(100.000000%,100.000000%,100.000000%); stroke-width: 1.000000;stroke-linecap: round;stroke-miterlimit: 10.000000;fill: none;"></path>
</svg>
