<?xml version="1.0"?>
<!-- Created by MetaPost 1.999 on 2016.03.22:1610 -->
<svg version="1.1" xmlns="http://www.w3.org/2000/svg" xmlns:xlink="http://www.w3.org/1999/xlink" width="957.411133" height="1196.513916" viewBox="0 0 957.411133 1196.513916">
<!-- Original BoundingBox: -120.051392 -239.602783 837.359741 956.911133 -->
  <g transform="matrix(1.000000,-0.000000,-0.000000,0.899994,0.000000,0.000000)">
    <path d="M717.756958 398.050534C717.756958 334.536765,717.747620 258.034797,679.499634 225.098748C641.251663 192.162699,548.590942 192.154662,478.654175 192.154662C408.717407 192.154662,316.056686 192.162699,277.808716 225.098748C239.560730 258.034797,239.551392 334.536765,239.551392 398.050534" style="stroke:rgb(60.000610%,60.000610%,60.000610%); stroke-width: 119.551392;stroke-miterlimit: 10.000000;fill: none;"></path>
  </g>
  <g transform="matrix(1.000000,-0.000000,-0.000000,0.899994,0.000000,0.000000)">
    <path d="M239.551392 398.050534C239.551392 457.098533,281.789322 501.737221,329.214935 530.886318C431.880783 593.987588,555.315414 600.620832,657.981262 663.722102C705.406876 692.871199,747.644806 737.509886,747.644806 796.557885" style="stroke:rgb(60.000610%,60.000610%,60.000610%); stroke-width: 119.551392;stroke-linecap: round;stroke-miterlimit: 10.000000;fill: none;"></path>
  </g>
  <g transform="matrix(1.000000,-0.000000,-0.000000,0.899994,0.000000,0.000000)">
    <path d="M747.644806 796.557885C747.644806 861.161529,747.634308 936.573623,704.605316 969.509672C661.576340 1002.445721,556.703903 1002.453757,478.654175 1002.453757C399.785538 1002.453757,295.731995 1002.444415,252.703033 964.196118C209.674057 925.947821,209.663544 836.792314,209.663544 763.348939" style="stroke:rgb(60.000610%,60.000610%,60.000610%); stroke-width: 119.551392;stroke-miterlimit: 10.000000;fill: none;"></path>
  </g>
  <path d="M0.448608 1195.102783L956.859741 1195.102783L956.859741 -0.411133L0.448608 -0.411133Z" style="stroke:rgb(100.000000%,100.000000%,100.000000%); stroke-width: 1.000000;stroke-linecap: round;stroke-miterlimit: 10.000000;fill: none;"></path>
  <path d="M120.000000 119.140259L120.000000 956.000000" style="stroke:rgb(0.000000%,0.000000%,100.000000%); stroke-width: 1.199997;stroke-linecap: round;stroke-miterlimit: 10.000000;fill: none;"></path>
  <path d="M239.551392 119.140259L239.551392 956.000000" style="stroke:rgb(0.000000%,0.000000%,100.000000%); stroke-width: 1.199997;stroke-linecap: round;stroke-miterlimit: 10.000000;fill: none;"></path>
  <path d="M359.102783 119.140259L359.102783 956.000000" style="stroke:rgb(0.000000%,0.000000%,100.000000%); stroke-width: 1.199997;stroke-linecap: round;stroke-miterlimit: 10.000000;fill: none;"></path>
  <path d="M478.654175 119.140259L478.654175 956.000000" style="stroke:rgb(0.000000%,0.000000%,100.000000%); stroke-width: 1.199997;stroke-linecap: round;stroke-miterlimit: 10.000000;fill: none;"></path>
  <path d="M598.205566 119.140259L598.205566 956.000000" style="stroke:rgb(0.000000%,0.000000%,100.000000%); stroke-width: 1.199997;stroke-linecap: round;stroke-miterlimit: 10.000000;fill: none;"></path>
  <path d="M717.756958 119.140259L717.756958 956.000000" style="stroke:rgb(0.000000%,0.000000%,100.000000%); stroke-width: 1.199997;stroke-linecap: round;stroke-miterlimit: 10.000000;fill: none;"></path>
  <path d="M837.308350 119.140259L837.308350 956.000000" style="stroke:rgb(0.000000%,0.000000%,100.000000%); stroke-width: 1.199997;stroke-linecap: round;stroke-miterlimit: 10.000000;fill: none;"></path>
  <path d="M120.000000 956.000000L837.308350 956.000000" style="stroke:rgb(0.000000%,0.000000%,100.000000%); stroke-width: 1.199997;stroke-linecap: round;stroke-miterlimit: 10.000000;fill: none;"></path>
  <path d="M120.000000 836.448608L837.308350 836.448608" style="stroke:rgb(0.000000%,0.000000%,100.000000%); stroke-width: 1.199997;stroke-linecap: round;stroke-miterlimit: 10.000000;fill: none;"></path>
  <path d="M120.000000 716.897217L837.308350 716.897217" style="stroke:rgb(0.000000%,0.000000%,100.000000%); stroke-width: 1.199997;stroke-linecap: round;stroke-miterlimit: 10.000000;fill: none;"></path>
  <path d="M120.000000 597.345825L837.308350 597.345825" style="stroke:rgb(0.000000%,0.000000%,100.000000%); stroke-width: 1.199997;stroke-linecap: round;stroke-miterlimit: 10.000000;fill: none;"></path>
  <path d="M120.000000 477.794434L837.308350 477.794434" style="stroke:rgb(0.000000%,0.000000%,100.000000%); stroke-width: 1.199997;stroke-linecap: round;stroke-miterlimit: 10.000000;fill: none;"></path>
  <path d="M120.000000 358.243042L837.308350 358.243042" style="stroke:rgb(0.000000%,0.000000%,100.000000%); stroke-width: 1.199997;stroke-linecap: round;stroke-miterlimit: 10.000000;fill: none;"></path>
  <path d="M120.000000 238.691650L837.308350 238.691650" style="stroke:rgb(0.000000%,0.000000%,100.000000%); stroke-width: 1.199997;stroke-linecap: round;stroke-miterlimit: 10.000000;fill: none;"></path>
  <path d="M120.000000 119.140259L837.308350 119.140259" style="stroke:rgb(0.000000%,0.000000%,100.000000%); stroke-width: 1.199997;stroke-linecap: round;stroke-miterlimit: 10.000000;fill: none;"></path>
  <g transform="matrix(2.199997,-0.000000,-0.000000,2.199997,712.277496 355.243042)" style="fill: rgb(0.000000%,0.000000%,0.000000%);">
    <text font-size="9.962646">1</text>
  </g>
  <path d="M717.756958 358.243042l0 0" style="stroke:rgb(0.000000%,0.000000%,0.000000%); stroke-width: 3.000000;stroke-linecap: round;stroke-miterlimit: 10.000000;fill: none;"></path>
  <g transform="matrix(2.199997,-0.000000,-0.000000,2.199997,473.174713 169.938019)" style="fill: rgb(0.000000%,0.000000%,0.000000%);">
    <text font-size="9.962646">2</text>
  </g>
  <path d="M478.654175 172.938019l0 0" style="stroke:rgb(0.000000%,0.000000%,0.000000%); stroke-width: 3.000000;stroke-linecap: round;stroke-miterlimit: 10.000000;fill: none;"></path>
  <g transform="matrix(2.199997,-0.000000,-0.000000,2.199997,234.071930 355.243042)" style="fill: rgb(0.000000%,0.000000%,0.000000%);">
    <text font-size="9.962646">3</text>
  </g>
  <path d="M239.551392 358.243042l0 0" style="stroke:rgb(0.000000%,0.000000%,0.000000%); stroke-width: 3.000000;stroke-linecap: round;stroke-miterlimit: 10.000000;fill: none;"></path>
  <g transform="matrix(2.199997,-0.000000,-0.000000,2.199997,323.735474 474.794434)" style="fill: rgb(0.000000%,0.000000%,0.000000%);">
    <text font-size="9.962646">4</text>
  </g>
  <path d="M329.214935 477.794434l0 0" style="stroke:rgb(0.000000%,0.000000%,0.000000%); stroke-width: 3.000000;stroke-linecap: round;stroke-miterlimit: 10.000000;fill: none;"></path>
  <g transform="matrix(2.199997,-0.000000,-0.000000,2.199997,652.501801 594.345825)" style="fill: rgb(0.000000%,0.000000%,0.000000%);">
    <text font-size="9.962646">5</text>
  </g>
  <path d="M657.981262 597.345825l0 0" style="stroke:rgb(0.000000%,0.000000%,0.000000%); stroke-width: 3.000000;stroke-linecap: round;stroke-miterlimit: 10.000000;fill: none;"></path>
  <g transform="matrix(2.199997,-0.000000,-0.000000,2.199997,742.165344 713.897217)" style="fill: rgb(0.000000%,0.000000%,0.000000%);">
    <text font-size="9.962646">6</text>
  </g>
  <path d="M747.644806 716.897217l0 0" style="stroke:rgb(0.000000%,0.000000%,0.000000%); stroke-width: 3.000000;stroke-linecap: round;stroke-miterlimit: 10.000000;fill: none;"></path>
  <g transform="matrix(2.199997,-0.000000,-0.000000,2.199997,473.174713 899.202240)" style="fill: rgb(0.000000%,0.000000%,0.000000%);">
    <text font-size="9.962646">7</text>
  </g>
  <path d="M478.654175 902.202240l0 0" style="stroke:rgb(0.000000%,0.000000%,0.000000%); stroke-width: 3.000000;stroke-linecap: round;stroke-miterlimit: 10.000000;fill: none;"></path>
  <g transform="matrix(2.199997,-0.000000,-0.000000,2.199997,204.184082 684.009369)" style="fill: rgb(0.000000%,0.000000%,0.000000%);">
    <text font-size="9.962646">8</text>
  </g>
  <path d="M209.663544 687.009369l0 0" style="stroke:rgb(0.000000%,0.000000%,0.000000%); stroke-width: 3.000000;stroke-linecap: round;stroke-miterlimit: 10.000000;fill: none;"></path>
</svg>
