<?xml version="1.0"?>
<!-- Created by MetaPost 1.999 on 2016.02.23:0118 -->
<svg version="1.1" xmlns="http://www.w3.org/2000/svg" xmlns:xlink="http://www.w3.org/1999/xlink" width="766.128174" height="1196.513916" viewBox="0 0 766.128174 1196.513916">
<!-- Original BoundingBox: -24.409912 -239.602783 741.718262 956.911133 -->
  <g transform="matrix(1.000000,-0.000000,-0.000000,0.476513,0.000000,0.000000)">
    <path d="M143.551392 1379.021685C143.551392 1542.218543,143.559555 1766.511677,177.025635 1841.834525C210.491714 1917.157374,309.160980 1917.175786,382.654175 1917.175786C456.147369 1917.175786,554.816635 1917.157374,588.282715 1841.834525C621.748795 1766.511677,621.756958 1542.218543,621.756958 1379.021685" style="stroke:rgb(0.000000%,0.000000%,0.000000%); stroke-width: 178.132233;stroke-miterlimit: 10.000000;fill: none;"></path>
  </g>
  <g transform="matrix(2.098579,-0.000000,-0.000000,1.000000,0.000000,0.000000)">
    <path d="M68.404079 119.140259L68.404079 657.121521" style="stroke:rgb(0.000000%,0.000000%,0.000000%); stroke-width: 84.882294;stroke-miterlimit: 10.000000;fill: none;"></path>
  </g>
  <g transform="matrix(1.000000,-0.000000,-0.000000,0.476513,0.000000,0.000000)">
    <path d="M621.756958 1379.021685L621.756958 250.025292" style="stroke:rgb(0.000000%,0.000000%,0.000000%); stroke-width: 178.132233;stroke-miterlimit: 10.000000;fill: none;"></path>
  </g>
  <path d="M0.090088 1195.102783L765.218262 1195.102783L765.218262 -0.411133L0.090088 -0.411133Z" style="stroke:rgb(100.000000%,100.000000%,100.000000%); stroke-width: 1.000000;stroke-linecap: round;stroke-miterlimit: 10.000000;fill: none;"></path>
</svg>
