<?xml version="1.0"?>
<!-- Created by MetaPost 1.9991 on 2017.04.13:1434 -->
<svg version="1.1" xmlns="http://www.w3.org/2000/svg" xmlns:xlink="http://www.w3.org/1999/xlink" width="143.661682" height="397.010590" viewBox="0 0 143.661682 397.010590">
<!-- Original BoundingBox: -0.100006 -95.741119 143.561676 301.269470 -->
  <path d="M71.730835 24.836304L71.730835 149.863037L71.730835 275.894226"  id="stroke1" style="stroke:rgb(0.000000%,0.000000%,0.000000%); stroke-width: 50.211548;stroke-linejoin: round;stroke-miterlimit: 10.000000;fill: none;"></path>
  <path d="M71.730835 326.105774L71.730835 303.511108L71.730835 275.894226"  id="stroke2" style="stroke:rgb(0.000000%,0.000000%,0.000000%); stroke-width: 50.211548;stroke-linejoin: round;stroke-miterlimit: 10.000000;fill: none;"></path>
  <path d="M105.205200 49.942078L96.836609 49.942078C82.316727 37.758255,61.144943 37.758255,46.625061 49.942078L46.625061 -0.269470L105.205200 -0.269470Z" style="fill: rgb(100.000000%,0.000000%,0.000000%);stroke: none;"></path>
  <path d="M38.256470 250.788452L46.625061 250.788452C61.144943 262.972275,82.316727 262.972275,96.836609 250.788452L96.836609 301.000000L38.256470 301.000000Z" style="fill: rgb(100.000000%,0.000000%,0.000000%);stroke: none;"></path>
  <path d="M38.256470 301.000000L46.625061 301.000000C61.144943 313.183823,82.316727 313.183823,96.836609 301.000000L96.836609 351.211548L38.256470 351.211548Z" style="fill: rgb(100.000000%,0.000000%,0.000000%);stroke: none;"></path>
  <path d="M0.000000 396.641113L0.000000 26.031799L143.461670 26.031799L143.461670 396.641113Z" style="stroke:rgb(100.000000%,100.000000%,100.000000%); stroke-width: 0.199997;stroke-linecap: round;stroke-linejoin: round;stroke-miterlimit: 10.000000;fill: none;"></path>
</svg>
