<?xml version="1.0"?>
<!-- Created by MetaPost 1.9991 on 2017.04.13:1434 -->
<svg version="1.1" xmlns="http://www.w3.org/2000/svg" xmlns:xlink="http://www.w3.org/1999/xlink" width="191.483643" height="397.010590" viewBox="0 0 191.483643 397.010590">
<!-- Original BoundingBox: -12.056549 -95.741119 179.427094 301.269470 -->
  <path d="M141.115540 326.105774C142.417572 284.693985,143.075241 243.264435,143.088257 201.832184C143.101532 159.562973,142.443878 117.296188,141.115540 75.047852L128.562653 75.047852C115.132736 82.028809,101.772202 89.142395,88.482971 96.387573C71.234421 105.791351,54.107285 115.416107,37.105774 125.259491"  id="stroke1" style="stroke:rgb(0.000000%,0.000000%,0.000000%); stroke-width: 50.211548;stroke-linejoin: round;stroke-miterlimit: 10.000000;fill: none;"></path>
  <path d="M107.641174 301.000000L116.009766 301.000000C130.529648 313.183823,151.701431 313.183823,166.221313 301.000000L166.221313 351.211548L107.641174 351.211548Z" style="fill: rgb(100.000000%,0.000000%,0.000000%);stroke: none;"></path>
  <path d="M45.161896 84.199036L48.800171 91.735443C44.140503 110.108414,53.345001 129.174850,70.629822 136.953888L25.411377 158.783539L-0.056549 106.028687Z" style="fill: rgb(100.000000%,0.000000%,0.000000%);stroke: none;"></path>
  <path d="M174.589905 49.942078L166.221313 49.942078C151.701431 37.758255,130.529648 37.758255,116.009766 49.942078L116.009766 -0.269470L174.589905 -0.269470Z" style="fill: rgb(100.000000%,0.000000%,0.000000%);stroke: none;"></path>
  <path d="M12.000000 396.641113L12.000000 26.031799L191.327087 26.031799L191.327087 396.641113Z" style="stroke:rgb(100.000000%,100.000000%,100.000000%); stroke-width: 0.199997;stroke-linecap: round;stroke-linejoin: round;stroke-miterlimit: 10.000000;fill: none;"></path>
</svg>
