<?xml version="1.0"?>
<!-- Created by MetaPost 1.9991 on 2017.04.13:1434 -->
<svg version="1.1" xmlns="http://www.w3.org/2000/svg" xmlns:xlink="http://www.w3.org/1999/xlink" width="298.878418" height="390.030548" viewBox="0 0 298.878418 390.030548">
<!-- Original BoundingBox: -50.211548 -95.741119 248.666870 294.289429 -->
  <path d="M174.333435 34.573486C155.963562 60.297775,137.412674 85.892303,118.682144 111.355194C101.517288 134.689667,84.201935 157.913055,66.737183 181.023926L66.737183 193.576813C101.410660 194.418808,136.093124 194.837296,170.776825 194.832184C205.042053 194.827133,239.305969 194.408646,273.561096 193.576813"  id="stroke1" style="stroke:rgb(0.000000%,0.000000%,0.000000%); stroke-width: 50.211548;stroke-linejoin: round;stroke-miterlimit: 10.000000;fill: none;"></path>
  <path d="M165.964844 118.259491C166.250961 152.570023,166.390457 186.881638,166.383301 221.193359C166.376495 253.831268,166.237015 286.468994,165.964844 319.105774"  id="stroke2" style="stroke:rgb(0.000000%,0.000000%,0.000000%); stroke-width: 50.211548;stroke-linejoin: round;stroke-miterlimit: 10.000000;fill: none;"></path>
  <path d="M187.986664 74.126495L181.055786 69.436401C175.858704 51.208221,158.324219 39.342712,139.470520 41.295837L167.611084 -0.289429L216.127228 32.541229Z" style="fill: rgb(100.000000%,0.000000%,0.000000%);stroke: none;"></path>
  <path d="M132.490479 294.000000L140.859070 294.000000C155.378952 306.183823,176.550735 306.183823,191.070618 294.000000L191.070618 344.211548L132.490479 344.211548Z" style="fill: rgb(100.000000%,0.000000%,0.000000%);stroke: none;"></path>
  <path d="M248.455322 227.051178L248.455322 218.682587C260.639145 204.162704,260.639145 182.990921,248.455322 168.471039L298.666870 168.471039L298.666870 227.051178Z" style="fill: rgb(100.000000%,0.000000%,0.000000%);stroke: none;"></path>
  <path d="M50.000000 160.102448L50.000000 168.471039C37.816177 182.990921,37.816177 204.162704,50.000000 218.682587L-0.211548 218.682587L-0.211548 160.102448Z" style="fill: rgb(100.000000%,0.000000%,0.000000%);stroke: none;"></path>
  <path d="M50.000000 389.641113L50.000000 19.031799L265.192505 19.031799L265.192505 389.641113Z" style="stroke:rgb(100.000000%,100.000000%,100.000000%); stroke-width: 0.199997;stroke-linecap: round;stroke-linejoin: round;stroke-miterlimit: 10.000000;fill: none;"></path>
</svg>
