<?xml version="1.0"?>
<!-- Created by MetaPost 1.9991 on 2017.04.13:1434 -->
<svg version="1.1" xmlns="http://www.w3.org/2000/svg" xmlns:xlink="http://www.w3.org/1999/xlink" width="273.772644" height="380.273407" viewBox="0 0 273.772644 380.273407">
<!-- Original BoundingBox: -25.105774 -95.741119 248.666870 284.532288 -->
  <path d="M25.000000 32.942078C60.841003 31.268234,96.716187 30.430969,132.596252 30.430969C168.476318 30.430969,204.351501 31.268234,240.192505 32.942078L240.192505 45.494965C206.279587 83.813141,173.250793 122.904785,141.132248 162.739044C106.949814 205.132980,73.808228 248.355728,41.737183 292.368591"  id="stroke1" style="stroke:rgb(0.000000%,0.000000%,0.000000%); stroke-width: 50.211548;stroke-linejoin: round;stroke-miterlimit: 10.000000;fill: none;"></path>
  <path d="M223.455322 66.416443L223.455322 58.047852C235.639145 43.527969,235.639145 22.356186,223.455322 7.836304L273.666870 7.836304L273.666870 66.416443Z" style="fill: rgb(100.000000%,0.000000%,0.000000%);stroke: none;"></path>
  <path d="M30.404160 252.089630L37.050919 257.174301C41.180573 275.673447,57.996277 288.537216,76.931473 287.682327L46.423447 327.562881L-0.103867 291.970184Z" style="fill: rgb(100.000000%,0.000000%,0.000000%);stroke: none;"></path>
  <path d="M50.105774 -0.532288L50.105774 7.836304C37.921951 22.356186,37.921951 43.527969,50.105774 58.047852L-0.105774 58.047852L-0.105774 -0.532288Z" style="fill: rgb(100.000000%,0.000000%,0.000000%);stroke: none;"></path>
  <path d="M25.000000 379.641113L25.000000 9.031799L240.192505 9.031799L240.192505 379.641113Z" style="stroke:rgb(100.000000%,100.000000%,100.000000%); stroke-width: 0.199997;stroke-linecap: round;stroke-linejoin: round;stroke-miterlimit: 10.000000;fill: none;"></path>
</svg>
