<?xml version="1.0" encoding="UTF-8" standalone="no"?>
<!-- Created by MetaPost 1.9991 on 2017.07.28:1115 -->

<svg
   xmlns:dc="http://purl.org/dc/elements/1.1/"
   xmlns:cc="http://creativecommons.org/ns#"
   xmlns:rdf="http://www.w3.org/1999/02/22-rdf-syntax-ns#"
   xmlns:svg="http://www.w3.org/2000/svg"
   xmlns="http://www.w3.org/2000/svg"
   xmlns:sodipodi="http://sodipodi.sourceforge.net/DTD/sodipodi-0.dtd"
   xmlns:inkscape="http://www.inkscape.org/namespaces/inkscape"
   version="1.1"
   width="337.649368"
   height="586.626755"
   viewBox="0 0 337.649368 586.626755"
   id="svg3"
   sodipodi:docname="63.svg"
   inkscape:version="0.92.1 r">
  <metadata
     id="metadata9">
    <rdf:RDF>
      <cc:Work
         rdf:about="">
        <dc:format>image/svg+xml</dc:format>
        <dc:type
           rdf:resource="http://purl.org/dc/dcmitype/StillImage" />
      </cc:Work>
    </rdf:RDF>
  </metadata>
  <defs
     id="defs7" />
  <sodipodi:namedview
     pagecolor="#ffffff"
     bordercolor="#666666"
     borderopacity="1"
     objecttolerance="10"
     gridtolerance="10"
     guidetolerance="10"
     inkscape:pageopacity="0"
     inkscape:pageshadow="2"
     inkscape:window-width="1364"
     inkscape:window-height="730"
     id="namedview5"
     showgrid="false"
     inkscape:zoom="0.40230009"
     inkscape:cx="168.82468"
     inkscape:cy="293.31339"
     inkscape:window-x="0"
     inkscape:window-y="18"
     inkscape:window-maximized="0"
     inkscape:current-layer="svg3" />
  <!-- Original BoundingBox: -7.928375 -143.561676 329.720993 443.065079 -->
  <path
     style="color:#000000;font-style:normal;font-variant:normal;font-weight:normal;font-stretch:normal;font-size:medium;line-height:normal;font-family:sans-serif;font-variant-ligatures:normal;font-variant-position:normal;font-variant-caps:normal;font-variant-numeric:normal;font-variant-alternates:normal;font-feature-settings:normal;text-indent:0;text-align:start;text-decoration:none;text-decoration-line:none;text-decoration-style:solid;text-decoration-color:#000000;letter-spacing:normal;word-spacing:normal;text-transform:none;writing-mode:lr-tb;direction:ltr;text-orientation:mixed;dominant-baseline:auto;baseline-shift:baseline;text-anchor:start;white-space:normal;shape-padding:0;clip-rule:nonzero;display:inline;overflow:visible;visibility:visible;opacity:1;isolation:auto;mix-blend-mode:normal;color-interpolation:sRGB;color-interpolation-filters:linearRGB;solid-color:#000000;solid-opacity:1;vector-effect:none;fill:#000000;fill-opacity:1;fill-rule:nonzero;stroke:none;stroke-width:53.79812622;stroke-linecap:butt;stroke-linejoin:miter;stroke-miterlimit:10;stroke-dasharray:none;stroke-dashoffset:0;stroke-opacity:1;color-rendering:auto;image-rendering:auto;shape-rendering:auto;text-rendering:auto;enable-background:accumulate"
     d="M 117.65039 -0.076171875 C 115.66561 -0.073960299 113.67229 -0.010368145 111.67188 0.1171875 C 79.665102 2.1580779 49.99414 24.167139 32.863281 59.449219 C 15.732423 94.731299 7.1391837 143.49108 6.9023438 211.13477 C 6.8942638 213.44263 6.9867548 215.02719 7.0097656 215.89062 C 7.0327716 216.75367 7.0318326 217.57821 7.0097656 218.36328 C 6.4709312 237.53324 1.4820961 262.43703 -0.80859375 286.66602 L 52.75 291.73047 C 54.612294 272.03269 60.048844 246.14007 60.787109 219.875 C 60.838959 218.03046 60.836112 216.22368 60.789062 214.45703 C 60.741973 212.69021 60.698079 211.64569 60.699219 211.32227 C 60.919513 148.40419 69.846977 106.4486 81.257812 82.947266 C 92.668649 59.445933 102.55935 54.603936 115.09375 53.804688 C 127.62815 53.005438 147.13195 59.847724 168.24219 76.083984 C 189.35242 92.320245 211.45075 116.93602 230.20117 145.58008 C 267.70202 202.8682 290.46669 276.29882 280.35938 327.67578 C 275.3057 353.36426 263.71497 373.54113 241.14648 389.19336 C 218.578 404.84559 183.32169 415.96948 130.42969 416.10156 C 129.44814 416.10356 128.03334 416.07832 126.18555 416.10352 C 125.54503 416.11223 124.49945 416.08919 123.85352 416.08008 C 123.85551 416.06395 123.86305 416.05355 123.84766 416.01953 C 122.54442 413.13387 120.74969 403.49151 119.5625 391.76953 C 118.37531 380.04755 117.72505 366.32015 111.61133 351.33398 C 105.49761 336.34782 88.137432 319.81671 67.472656 317.70898 C 64.40258 317.39586 61.903712 317.42626 60.003906 317.48242 C 58.689012 317.52132 52.94132 317.50212 57.298828 317.57422 L 56.408203 371.36328 C 61.545649 371.44828 60.278396 371.29668 61.59375 371.25781 C 61.873265 371.24981 61.64711 371.24479 61.753906 371.24609 C 61.800066 371.42432 61.701368 371.41736 61.798828 371.65625 C 63.226109 375.15485 64.827964 385.23137 66.039062 397.18945 C 67.250163 409.14753 67.997747 423.0597 74.818359 438.16211 C 81.638972 453.26452 100.31406 468.6721 121.07617 469.85547 C 124.93462 470.07539 125.60253 469.91438 126.91797 469.89648 C 127.70015 469.88588 128.91581 469.90244 130.56445 469.89844 C 190.92107 469.74771 237.63555 457.09623 271.80469 433.39844 C 305.97382 409.70065 325.88649 374.95422 333.14453 338.06055 C 347.66071 264.27311 318.28183 181.90944 275.21289 116.11523 C 253.67842 83.218133 228.38636 54.471248 201.04102 33.439453 C 177.11384 15.036633 151.14141 1.7631429 123.58008 0.099609375 C 121.61141 -0.019214445 119.63517 -0.078383451 117.65039 -0.076171875 z M 123.85742 416.125 C 123.98033 416.13285 123.94504 416.13361 124.13672 416.14453 C 123.95372 416.13413 123.99981 416.19682 123.85352 416.19922 C 123.83942 416.15869 123.84975 416.14264 123.85742 416.125 z "
     id="stroke1" />
</svg>
