<?xml version="1.0"?>
<!-- Created by MetaPost 1.9991 on 2017.04.13:1434 -->
<svg version="1.1" xmlns="http://www.w3.org/2000/svg" xmlns:xlink="http://www.w3.org/1999/xlink" width="253.263611" height="397.010590" viewBox="0 0 253.263611 397.010590">
<!-- Original BoundingBox: -23.000854 -95.741119 230.262756 301.269470 -->
  <path d="M39.737183 326.105774C52.715637 284.446274,66.166153 242.935303,80.086121 201.580872C94.340347 159.233383,109.085907 117.052872,124.319809 75.047852L136.872696 75.047852C152.106613 117.052872,166.852158 159.233383,181.106400 201.580872C195.026367 242.935303,208.476868 284.446274,221.455322 326.105774"  id="stroke1" style="stroke:rgb(0.000000%,0.000000%,0.000000%); stroke-width: 50.211548;stroke-linejoin: round;stroke-miterlimit: 10.000000;fill: none;"></path>
  <path d="M73.546509 225.682587L187.645996 225.682587"  id="stroke2" style="stroke:rgb(0.000000%,0.000000%,0.000000%); stroke-width: 50.211548;stroke-linejoin: round;stroke-miterlimit: 10.000000;fill: none;"></path>
  <path d="M16.030426 291.626450L23.961029 294.298340C33.830994 310.480316,53.894684 317.239929,71.544617 310.329620L55.513336 357.913208L-0.000854 339.210037Z" style="fill: rgb(100.000000%,0.000000%,0.000000%);stroke: none;"></path>
  <path d="M181.717285 313.001511L189.647888 310.329620C207.297821 317.239929,227.361511 310.480316,237.231476 294.298340L253.262756 341.881927L197.748566 360.585098Z" style="fill: rgb(100.000000%,0.000000%,0.000000%);stroke: none;"></path>
  <path d="M164.070618 49.942078L155.702026 49.942078C141.182144 37.758255,120.010361 37.758255,105.490479 49.942078L105.490479 -0.269470L164.070618 -0.269470Z" style="fill: rgb(100.000000%,0.000000%,0.000000%);stroke: none;"></path>
  <path d="M23.000000 396.641113L23.000000 26.031799L238.192505 26.031799L238.192505 396.641113Z" style="stroke:rgb(100.000000%,100.000000%,100.000000%); stroke-width: 0.199997;stroke-linecap: round;stroke-linejoin: round;stroke-miterlimit: 10.000000;fill: none;"></path>
</svg>
