<?xml version="1.0"?>
<!-- Created by MetaPost 1.9991 on 2017.04.13:1434 -->
<svg version="1.1" xmlns="http://www.w3.org/2000/svg" xmlns:xlink="http://www.w3.org/1999/xlink" width="239.202789" height="370.809326" viewBox="0 0 239.202789 370.809326">
<!-- Original BoundingBox: -0.100006 -95.741119 239.102783 275.068207 -->
  <path d="M50.211548 249.894226C49.758179 233.361633,49.528748 216.823654,49.523315 200.284836C49.517746 183.344528,49.747177 166.404968,50.211548 149.471039L50.211548 149.471039L96.836792 149.471039C146.322220 149.471039,206.004730 138.378098,213.597000 183.682632C213.996918 186.068985,213.997009 194.336899,213.997009 199.682632C213.997009 205.028366,213.996918 213.296280,213.597000 215.682632C206.004700 260.987152,146.322205 249.894226,96.836792 249.894226L50.211548 249.894226Z" style="stroke:rgb(0.000000%,100.000000%,0.000000%); stroke-width: 50.211548;stroke-linejoin: round;stroke-miterlimit: 10.000000;fill: none;"></path>
  <path d="M50.211548 149.471039C49.747177 132.537109,49.517746 115.597549,49.523315 98.657242C49.528748 82.118423,49.758179 65.580444,50.211548 49.047852L50.211548 49.047852L96.836792 49.047852C149.473083 49.047852,210.371918 47.726120,213.872009 94.259445C213.996979 95.920883,213.997009 97.591690,213.997009 99.259445C213.997009 100.927200,213.996979 102.598007,213.872009 104.259445C210.371994 150.792786,149.473114 149.471039,96.836792 149.471039L50.211548 149.471039"  id="stroke1" style="stroke:rgb(0.000000%,0.000000%,0.000000%); stroke-width: 50.211548;stroke-linejoin: round;stroke-miterlimit: 10.000000;fill: none;"></path>
  <path d="M0.000000 370.641113L0.000000 0.031799L215.192505 0.031799L215.192505 370.641113Z" style="stroke:rgb(100.000000%,100.000000%,100.000000%); stroke-width: 0.199997;stroke-linecap: round;stroke-linejoin: round;stroke-miterlimit: 10.000000;fill: none;"></path>
</svg>
