<?xml version="1.0"?>
<!-- Created by MetaPost 1.9991 on 2017.04.13:1434 -->
<svg version="1.1" xmlns="http://www.w3.org/2000/svg" xmlns:xlink="http://www.w3.org/1999/xlink" width="212.901459" height="370.809326" viewBox="0 0 212.901459 370.809326">
<!-- Original BoundingBox: -0.100006 -95.741119 212.801453 275.068207 -->
  <path d="M187.695679 249.894226C165.254272 252.526215,142.680206 253.867188,120.085022 253.910477C96.734924 253.955215,73.402740 252.614105,50.211548 249.894226L50.211548 249.894226C49.685410 216.422409,49.422333 182.946991,49.422333 149.471039C49.422333 115.995087,49.685410 82.519669,50.211548 49.047852L50.211548 49.047852C73.296127 47.697372,96.415482 47.027451,119.539536 47.038956C142.272888 47.050262,165.001129 47.720184,187.695679 49.047852"  id="stroke1" style="stroke:rgb(0.000000%,0.000000%,0.000000%); stroke-width: 50.211548;stroke-linejoin: round;stroke-miterlimit: 10.000000;fill: none;"></path>
  <path d="M50.190292 155.448608l0 0"  id="stroke2" style="stroke:rgb(0.000000%,0.000000%,0.000000%); stroke-width: 50.211548;stroke-linejoin: round;stroke-miterlimit: 10.000000;fill: none;"></path>
  <path d="M162.589905 283.368591L162.589905 275.000000C174.773727 260.480118,174.773727 239.308334,162.589905 224.788452L212.801453 224.788452L212.801453 283.368591Z" style="fill: rgb(100.000000%,0.000000%,0.000000%);stroke: none;"></path>
  <path d="M162.589905 188.922974L162.589905 180.554382C174.773727 166.034500,174.773727 144.862717,162.589905 130.342834L212.801453 130.342834L212.801453 188.922974Z" style="fill: rgb(100.000000%,0.000000%,0.000000%);stroke: none;"></path>
  <path d="M162.589905 82.522217L162.589905 74.153625C174.773727 59.633743,174.773727 38.461960,162.589905 23.942078L212.801453 23.942078L212.801453 82.522217Z" style="fill: rgb(100.000000%,0.000000%,0.000000%);stroke: none;"></path>
  <path d="M0.000000 370.641113L0.000000 0.031799L179.327087 0.031799L179.327087 370.641113Z" style="stroke:rgb(100.000000%,100.000000%,100.000000%); stroke-width: 0.199997;stroke-linecap: round;stroke-linejoin: round;stroke-miterlimit: 10.000000;fill: none;"></path>
</svg>
