<?xml version="1.0" encoding="UTF-8" standalone="no"?>
<!-- Created by MetaPost 1.9991 on 2017.07.28:1115 -->

<svg
   xmlns:dc="http://purl.org/dc/elements/1.1/"
   xmlns:cc="http://creativecommons.org/ns#"
   xmlns:rdf="http://www.w3.org/1999/02/22-rdf-syntax-ns#"
   xmlns:svg="http://www.w3.org/2000/svg"
   xmlns="http://www.w3.org/2000/svg"
   xmlns:sodipodi="http://sodipodi.sourceforge.net/DTD/sodipodi-0.dtd"
   xmlns:inkscape="http://www.inkscape.org/namespaces/inkscape"
   version="1.1"
   width="215.292511"
   height="538.181274"
   viewBox="0 0 215.292511 538.181274"
   id="svg7"
   sodipodi:docname="70.svg"
   inkscape:version="0.92.1 r">
  <metadata
     id="metadata13">
    <rdf:RDF>
      <cc:Work
         rdf:about="">
        <dc:format>image/svg+xml</dc:format>
        <dc:type
           rdf:resource="http://purl.org/dc/dcmitype/StillImage" />
      </cc:Work>
    </rdf:RDF>
  </metadata>
  <defs
     id="defs11" />
  <sodipodi:namedview
     pagecolor="#ffffff"
     bordercolor="#666666"
     borderopacity="1"
     objecttolerance="10"
     gridtolerance="10"
     guidetolerance="10"
     inkscape:pageopacity="0"
     inkscape:pageshadow="2"
     inkscape:window-width="1364"
     inkscape:window-height="730"
     id="namedview9"
     showgrid="false"
     inkscape:zoom="0.43851396"
     inkscape:cx="107.64626"
     inkscape:cy="269.09064"
     inkscape:window-x="0"
     inkscape:window-y="18"
     inkscape:window-maximized="0"
     inkscape:current-layer="svg7" />
  <!-- Original BoundingBox: -0.100006 -143.561676 215.192505 394.619598 -->
  <path
     style="color:#000000;font-style:normal;font-variant:normal;font-weight:normal;font-stretch:normal;font-size:medium;line-height:normal;font-family:sans-serif;font-variant-ligatures:normal;font-variant-position:normal;font-variant-caps:normal;font-variant-numeric:normal;font-variant-alternates:normal;font-feature-settings:normal;text-indent:0;text-align:start;text-decoration:none;text-decoration-line:none;text-decoration-style:solid;text-decoration-color:#000000;letter-spacing:normal;word-spacing:normal;text-transform:none;writing-mode:lr-tb;direction:ltr;text-orientation:mixed;dominant-baseline:auto;baseline-shift:baseline;text-anchor:start;white-space:normal;shape-padding:0;clip-rule:nonzero;display:inline;overflow:visible;visibility:visible;opacity:1;isolation:auto;mix-blend-mode:normal;color-interpolation:sRGB;color-interpolation-filters:linearRGB;solid-color:#000000;solid-opacity:1;vector-effect:none;fill:#000000;fill-opacity:1;fill-rule:nonzero;stroke:none;stroke-width:53.79812622;stroke-linecap:butt;stroke-linejoin:miter;stroke-miterlimit:10;stroke-dasharray:none;stroke-dashoffset:0;stroke-opacity:1;color-rendering:auto;image-rendering:auto;shape-rendering:auto;text-rendering:auto;enable-background:accumulate"
     d="M 119.56445 133.06055 C 94.670849 133.2032 69.916241 136.91283 46.058594 144.08008 L 28.019531 149.49805 L 26.943359 168.30469 C 24.470446 211.52299 23.259506 254.80477 23.3125 298.09375 C 23.350121 328.82598 24.026961 359.55216 25.337891 390.25391 C 26.399336 391.14655 27.022133 392.52 26.898438 394 C 44.08164 398.60423 62.149607 398.70507 79.376953 394.33008 C 77.913334 362.25081 77.150641 330.14185 77.111328 298.02734 C 77.107668 295.03752 77.121583 292.04823 77.132812 289.05859 C 92.794809 288.87536 108.4578 288.78193 124.12109 288.79492 C 136.57723 288.80525 149.03301 288.88508 161.48828 289.01953 C 166.11085 271.50869 166.08308 253.09165 161.39453 235.59375 C 160.60939 235.65938 159.86141 235.49993 159.19141 235.19141 C 147.51696 235.07387 135.84149 235.00579 124.16602 234.99609 C 108.80209 234.98336 93.437346 235.07429 78.074219 235.24805 C 78.521536 220.52962 79.10505 205.8147 79.8125 191.10547 C 94.280732 188.16062 109.02453 186.67693 123.82422 186.875 C 136.91033 187.05013 149.93527 188.46936 162.72656 191.10156 C 166.05202 175.19082 165.61544 158.69407 161.39453 142.94141 C 159.03848 143.13834 156.94447 141.44502 156.64648 139.09961 C 156.48093 137.79663 156.88549 136.57471 157.64258 135.64844 C 146.68855 134.09453 135.63439 133.22849 124.54492 133.08008 C 122.88434 133.05785 121.22403 133.05104 119.56445 133.06055 z M 188.29297 141.89062 L 188.29297 169.83984 L 196.03516 144.08008 C 193.46532 143.30779 190.88293 142.58254 188.29297 141.89062 z M 188.29297 235.5918 L 188.29297 262.49414 L 188.77148 235.59961 C 188.61198 235.59677 188.45247 235.59462 188.29297 235.5918 z M 26.861328 420.89844 C 26.890286 421.41074 26.914046 421.92326 26.943359 422.43555 L 53.814453 420.89844 L 26.861328 420.89844 z "
     id="stroke1" />
</svg>
