<?xml version="1.0"?>
<!-- Created by MetaPost 1.9991 on 2017.04.13:1434 -->
<svg version="1.1" xmlns="http://www.w3.org/2000/svg" xmlns:xlink="http://www.w3.org/1999/xlink" width="212.901459" height="370.809326" viewBox="0 0 212.901459 370.809326">
<!-- Original BoundingBox: -0.100006 -95.741119 212.801453 275.068207 -->
  <path d="M50.211548 300.105774C49.687515 258.432251,49.424438 216.755859,49.422333 175.079041C49.420227 133.067413,49.683304 91.056168,50.211548 49.047852L50.211548 49.047852C73.296127 47.697372,96.415482 47.027451,119.539536 47.038956C142.272888 47.050262,165.001129 47.720184,187.695679 49.047852"  id="stroke1" style="stroke:rgb(0.000000%,0.000000%,0.000000%); stroke-width: 50.211548;stroke-linejoin: round;stroke-miterlimit: 10.000000;fill: none;"></path>
  <path d="M50.195450 143.493469C73.307327 143.413055,96.419327 143.373199,119.531342 143.373886C142.252838 143.374557,164.974319 143.414413,187.695679 143.493469"  id="stroke2" style="stroke:rgb(0.000000%,0.000000%,0.000000%); stroke-width: 50.211548;stroke-linejoin: round;stroke-miterlimit: 10.000000;fill: none;"></path>
  <path d="M16.737183 275.000000L25.105774 275.000000C39.625656 287.183823,60.797440 287.183823,75.317322 275.000000L75.317322 325.211548L16.737183 325.211548Z" style="fill: rgb(100.000000%,0.000000%,0.000000%);stroke: none;"></path>
  <path d="M162.589905 82.522217L162.589905 74.153625C174.773727 59.633743,174.773727 38.461960,162.589905 23.942078L212.801453 23.942078L212.801453 82.522217Z" style="fill: rgb(100.000000%,0.000000%,0.000000%);stroke: none;"></path>
  <path d="M162.589905 176.967834L162.589905 168.599243C174.773727 154.079361,174.773727 132.907578,162.589905 118.387695L212.801453 118.387695L212.801453 176.967834Z" style="fill: rgb(100.000000%,0.000000%,0.000000%);stroke: none;"></path>
  <path d="M0.000000 370.641113L0.000000 0.031799L179.327087 0.031799L179.327087 370.641113Z" style="stroke:rgb(100.000000%,100.000000%,100.000000%); stroke-width: 0.199997;stroke-linecap: round;stroke-linejoin: round;stroke-miterlimit: 10.000000;fill: none;"></path>
</svg>
