<?xml version="1.0" encoding="UTF-8" standalone="no"?>
<!-- Created by MetaPost 1.9991 on 2017.07.28:1115 -->

<svg
   xmlns:dc="http://purl.org/dc/elements/1.1/"
   xmlns:cc="http://creativecommons.org/ns#"
   xmlns:rdf="http://www.w3.org/1999/02/22-rdf-syntax-ns#"
   xmlns:svg="http://www.w3.org/2000/svg"
   xmlns="http://www.w3.org/2000/svg"
   xmlns:sodipodi="http://sodipodi.sourceforge.net/DTD/sodipodi-0.dtd"
   xmlns:inkscape="http://www.inkscape.org/namespaces/inkscape"
   version="1.1"
   width="239.302795"
   height="538.181274"
   viewBox="0 0 239.302795 538.181274"
   id="svg5"
   sodipodi:docname="71.svg"
   inkscape:version="0.92.1 r">
  <metadata
     id="metadata11">
    <rdf:RDF>
      <cc:Work
         rdf:about="">
        <dc:format>image/svg+xml</dc:format>
        <dc:type
           rdf:resource="http://purl.org/dc/dcmitype/StillImage" />
      </cc:Work>
    </rdf:RDF>
  </metadata>
  <defs
     id="defs9" />
  <sodipodi:namedview
     pagecolor="#ffffff"
     bordercolor="#666666"
     borderopacity="1"
     objecttolerance="10"
     gridtolerance="10"
     guidetolerance="10"
     inkscape:pageopacity="0"
     inkscape:pageshadow="2"
     inkscape:window-width="1364"
     inkscape:window-height="730"
     id="namedview7"
     showgrid="false"
     inkscape:zoom="0.43851396"
     inkscape:cx="119.6514"
     inkscape:cy="269.09064"
     inkscape:window-x="0"
     inkscape:window-y="18"
     inkscape:window-maximized="0"
     inkscape:current-layer="svg5" />
  <!-- Original BoundingBox: -0.100006 -143.561676 239.202789 394.619598 -->
  <path
     style="color:#000000;font-style:normal;font-variant:normal;font-weight:normal;font-stretch:normal;font-size:medium;line-height:normal;font-family:sans-serif;font-variant-ligatures:normal;font-variant-position:normal;font-variant-caps:normal;font-variant-numeric:normal;font-variant-alternates:normal;font-feature-settings:normal;text-indent:0;text-align:start;text-decoration:none;text-decoration-line:none;text-decoration-style:solid;text-decoration-color:#000000;letter-spacing:normal;word-spacing:normal;text-transform:none;writing-mode:lr-tb;direction:ltr;text-orientation:mixed;dominant-baseline:auto;baseline-shift:baseline;text-anchor:start;white-space:normal;shape-padding:0;clip-rule:nonzero;display:inline;overflow:visible;visibility:visible;opacity:1;isolation:auto;mix-blend-mode:normal;color-interpolation:sRGB;color-interpolation-filters:linearRGB;solid-color:#000000;solid-opacity:1;vector-effect:none;fill:#000000;fill-opacity:1;fill-rule:nonzero;stroke:none;stroke-width:53.79812622;stroke-linecap:butt;stroke-linejoin:miter;stroke-miterlimit:10;stroke-dasharray:none;stroke-dashoffset:0;stroke-opacity:1;color-rendering:auto;image-rendering:auto;shape-rendering:auto;text-rendering:auto;enable-background:accumulate"
     d="M 119.55078 139.27539 C 117.78108 139.27539 116.02176 139.31929 114.27148 139.40625 C 52.295444 142.48737 4.2131778 193.58321 0.3515625 254.82227 C 0.02819527 259.9503 0.051325845 264.38821 0.001953125 268.11523 C -0.047391985 271.84131 -0.1902121 276.31456 0.0234375 281.52734 C 2.5674525 343.60002 52.060969 394.46866 114.28125 397.53516 C 116.01619 397.62066 117.77339 397.66797 119.55078 397.66797 C 121.32817 397.66797 123.08537 397.62067 124.82031 397.53516 C 180.51341 394.79033 226.06886 353.88915 236.7793 300.67773 L 243.26172 268.4707 L 119.55078 268.4707 C 114.82901 286.09259 114.82901 304.64764 119.55078 322.26953 L 167.53125 322.26758 C 156.14018 334.72478 140.25702 342.91141 122.17188 343.80273 C 121.27863 343.84673 120.40477 343.86914 119.55078 343.86914 C 118.69679 343.86914 117.82292 343.84673 116.92969 343.80273 C 82.328675 342.09744 55.211266 314.35884 53.775391 279.32422 C 53.662564 276.5714 53.738712 273.07295 53.794922 268.82812 C 53.851172 264.58202 53.864472 261.0396 54.042969 258.20898 C 56.282275 222.69715 82.997799 194.82617 116.94141 193.13867 C 117.81924 193.09507 118.6891 193.07227 119.55078 193.07227 C 120.41246 193.07227 121.28232 193.09507 122.16016 193.13867 C 136.30348 193.8418 148.88085 198.99474 159.2832 207.42969 L 193.16797 165.64258 C 174.37947 150.40757 150.65569 140.69006 124.83203 139.40625 C 123.08175 139.31925 121.32048 139.27539 119.55078 139.27539 z "
     id="stroke1" />
</svg>
