<?xml version="1.0"?>
<!-- Created by MetaPost 1.9991 on 2017.04.13:1434 -->
<svg version="1.1" xmlns="http://www.w3.org/2000/svg" xmlns:xlink="http://www.w3.org/1999/xlink" width="239.302795" height="397.010590" viewBox="0 0 239.302795 397.010590">
<!-- Original BoundingBox: -0.100006 -95.741119 239.202789 301.269470 -->
  <path d="M50.211548 326.105774C49.286835 275.899521,48.824448 225.685806,48.824448 175.471039C48.824448 125.256271,49.286835 75.042557,50.211548 24.836304"  id="stroke1" style="stroke:rgb(0.000000%,0.000000%,0.000000%); stroke-width: 50.211548;stroke-linejoin: round;stroke-miterlimit: 10.000000;fill: none;"></path>
  <path d="M188.891235 326.105774C189.815948 275.899521,190.278336 225.685806,190.278336 175.471039C190.278336 125.256271,189.815948 75.042557,188.891235 24.836304"  id="stroke2" style="stroke:rgb(0.000000%,0.000000%,0.000000%); stroke-width: 50.211548;stroke-linejoin: round;stroke-miterlimit: 10.000000;fill: none;"></path>
  <path d="M50.192245 175.471039L119.541550 175.471039L188.891235 175.471039"  id="stroke3" style="stroke:rgb(0.000000%,0.000000%,0.000000%); stroke-width: 50.211548;stroke-linejoin: round;stroke-miterlimit: 10.000000;fill: none;"></path>
  <path d="M16.737183 301.000000L25.105774 301.000000C39.625656 313.183823,60.797440 313.183823,75.317322 301.000000L75.317322 351.211548L16.737183 351.211548Z" style="fill: rgb(100.000000%,0.000000%,0.000000%);stroke: none;"></path>
  <path d="M155.416870 301.000000L163.785461 301.000000C178.305344 313.183823,199.477127 313.183823,213.997009 301.000000L213.997009 351.211548L155.416870 351.211548Z" style="fill: rgb(100.000000%,0.000000%,0.000000%);stroke: none;"></path>
  <path d="M83.685913 49.942078L75.317322 49.942078C60.797440 37.758255,39.625656 37.758255,25.105774 49.942078L25.105774 -0.269470L83.685913 -0.269470Z" style="fill: rgb(100.000000%,0.000000%,0.000000%);stroke: none;"></path>
  <path d="M222.365601 49.942078L213.997009 49.942078C199.477127 37.758255,178.305344 37.758255,163.785461 49.942078L163.785461 -0.269470L222.365601 -0.269470Z" style="fill: rgb(100.000000%,0.000000%,0.000000%);stroke: none;"></path>
  <path d="M0.000000 396.641113L0.000000 26.031799L239.102783 26.031799L239.102783 396.641113Z" style="stroke:rgb(100.000000%,100.000000%,100.000000%); stroke-width: 0.199997;stroke-linecap: round;stroke-linejoin: round;stroke-miterlimit: 10.000000;fill: none;"></path>
</svg>
