<?xml version="1.0"?>
<!-- Created by MetaPost 1.9991 on 2017.04.13:1434 -->
<svg version="1.1" xmlns="http://www.w3.org/2000/svg" xmlns:xlink="http://www.w3.org/1999/xlink" width="257.793213" height="397.010590" viewBox="0 0 257.793213 397.010590">
<!-- Original BoundingBox: -0.100006 -95.741119 257.693207 301.269470 -->
  <path d="M50.211548 326.105774C48.362946 275.915466,47.438416 225.695374,47.438416 175.471039C47.438416 125.246704,48.362946 75.026611,50.211548 24.836304"  id="stroke1" style="stroke:rgb(0.000000%,0.000000%,0.000000%); stroke-width: 50.211548;stroke-linejoin: round;stroke-miterlimit: 10.000000;fill: none;"></path>
  <path d="M58.580139 175.471039C84.336227 151.849258,110.465454 128.637573,136.957947 105.844757C162.310883 84.032349,187.993530 62.606125,213.997009 41.573486"  id="stroke2" style="stroke:rgb(0.000000%,0.000000%,0.000000%); stroke-width: 50.211548;stroke-linejoin: round;stroke-miterlimit: 10.000000;fill: none;"></path>
  <path d="M58.580139 175.471039C85.808807 199.089966,113.388351 222.301315,141.309586 245.097321C168.021072 266.905655,195.042496 288.331589,222.365601 309.368591"  id="stroke3" style="stroke:rgb(0.000000%,0.000000%,0.000000%); stroke-width: 50.211548;stroke-linejoin: round;stroke-miterlimit: 10.000000;fill: none;"></path>
  <path d="M16.737183 301.000000L25.105774 301.000000C39.625656 313.183823,60.797440 313.183823,75.317322 301.000000L75.317322 351.211548L16.737183 351.211548Z" style="fill: rgb(100.000000%,0.000000%,0.000000%);stroke: none;"></path>
  <path d="M83.685913 49.942078L75.317322 49.942078C60.797440 37.758255,39.625656 37.758255,25.105774 49.942078L25.105774 -0.269470L83.685913 -0.269470Z" style="fill: rgb(100.000000%,0.000000%,0.000000%);stroke: none;"></path>
  <path d="M216.825562 83.320938L211.363312 76.980774C211.116669 58.027786,197.297638 41.987747,178.589722 38.939789L216.630707 6.166199L254.866547 50.547348Z" style="fill: rgb(100.000000%,0.000000%,0.000000%);stroke: none;"></path>
  <path d="M181.741226 319.394653L187.037994 312.915558C205.661041 309.385605,219.061401 292.994064,218.818634 274.040985L257.693207 305.821625L220.615799 351.175293Z" style="fill: rgb(100.000000%,0.000000%,0.000000%);stroke: none;"></path>
  <path d="M0.000000 396.641113L0.000000 26.031799L239.102783 26.031799L239.102783 396.641113Z" style="stroke:rgb(100.000000%,100.000000%,100.000000%); stroke-width: 0.199997;stroke-linecap: round;stroke-linejoin: round;stroke-miterlimit: 10.000000;fill: none;"></path>
</svg>
