<?xml version="1.0" encoding="UTF-8" standalone="no"?>
<!-- Created by MetaPost 1.9991 on 2017.07.28:1115 -->

<svg
   xmlns:dc="http://purl.org/dc/elements/1.1/"
   xmlns:cc="http://creativecommons.org/ns#"
   xmlns:rdf="http://www.w3.org/1999/02/22-rdf-syntax-ns#"
   xmlns:svg="http://www.w3.org/2000/svg"
   xmlns="http://www.w3.org/2000/svg"
   xmlns:sodipodi="http://sodipodi.sourceforge.net/DTD/sodipodi-0.dtd"
   xmlns:inkscape="http://www.inkscape.org/namespaces/inkscape"
   version="1.1"
   width="248.169144"
   height="538.181274"
   viewBox="0 0 248.169144 538.181274"
   id="svg9"
   sodipodi:docname="75.svg"
   inkscape:version="0.92.1 r">
  <metadata
     id="metadata15">
    <rdf:RDF>
      <cc:Work
         rdf:about="">
        <dc:format>image/svg+xml</dc:format>
        <dc:type
           rdf:resource="http://purl.org/dc/dcmitype/StillImage" />
      </cc:Work>
    </rdf:RDF>
  </metadata>
  <defs
     id="defs13" />
  <sodipodi:namedview
     pagecolor="#ffffff"
     bordercolor="#666666"
     borderopacity="1"
     objecttolerance="10"
     gridtolerance="10"
     guidetolerance="10"
     inkscape:pageopacity="0"
     inkscape:pageshadow="2"
     inkscape:window-width="1364"
     inkscape:window-height="730"
     id="namedview11"
     showgrid="false"
     inkscape:zoom="0.43851396"
     inkscape:cx="124.08457"
     inkscape:cy="269.09064"
     inkscape:window-x="0"
     inkscape:window-y="18"
     inkscape:window-maximized="0"
     inkscape:current-layer="svg9" />
  <!-- Original BoundingBox: -0.100006 -143.561676 248.069138 394.619598 -->
  <path
     style="color:#000000;font-style:normal;font-variant:normal;font-weight:normal;font-stretch:normal;font-size:medium;line-height:normal;font-family:sans-serif;font-variant-ligatures:normal;font-variant-position:normal;font-variant-caps:normal;font-variant-numeric:normal;font-variant-alternates:normal;font-feature-settings:normal;text-indent:0;text-align:start;text-decoration:none;text-decoration-line:none;text-decoration-style:solid;text-decoration-color:#000000;letter-spacing:normal;word-spacing:normal;text-transform:none;writing-mode:lr-tb;direction:ltr;text-orientation:mixed;dominant-baseline:auto;baseline-shift:baseline;text-anchor:start;white-space:normal;shape-padding:0;clip-rule:nonzero;display:inline;overflow:visible;visibility:visible;opacity:1;isolation:auto;mix-blend-mode:normal;color-interpolation:sRGB;color-interpolation-filters:linearRGB;solid-color:#000000;solid-opacity:1;vector-effect:none;fill:#000000;fill-opacity:1;fill-rule:nonzero;stroke:none;stroke-width:53.79812622;stroke-linecap:butt;stroke-linejoin:miter;stroke-miterlimit:10;stroke-dasharray:none;stroke-dashoffset:0;stroke-opacity:1;color-rendering:auto;image-rendering:auto;shape-rendering:auto;text-rendering:auto;enable-background:accumulate"
     d="M 27.296875 111.43555 C 27.030084 112.97024 26.780425 114.5071 26.521484 116.04297 L 53.796875 116.04297 L 27.296875 111.43555 z M 197.46484 111.47461 C 196.31054 112.23069 195.1711 113.00854 194.02148 113.77148 L 212.20703 133.98047 L 197.46484 111.47461 z M 174.21484 131.97656 C 172.59534 133.69904 169.90572 133.83893 168.11523 132.29492 C 168.01572 132.20911 167.92603 132.11731 167.83594 132.02539 C 152.55829 143.22051 137.73931 155.03807 123.43164 167.46484 C 104.27806 184.10049 86.076456 201.78516 68.892578 220.41992 C 70.355666 194.177 73.030107 168.01309 76.880859 142.00391 C 60.410596 138.25189 43.253192 138.55916 26.898438 142.94141 C 27.095367 145.29745 25.402055 147.39146 23.056641 147.68945 C 22.609495 147.74627 22.173858 147.72986 21.753906 147.66211 C 16.431896 187.69892 13.748047 228.05509 13.748047 268.4707 C 13.748047 308.88696 16.431727 349.24381 21.753906 389.28125 C 22.173899 389.21348 22.609447 389.19709 23.056641 389.25391 C 25.402039 389.5519 27.09535 391.64397 26.898438 394 C 43.253808 398.38241 60.41198 398.68997 76.882812 394.9375 C 72.927454 368.23208 70.207785 341.36184 68.771484 314.41211 C 87.946323 334.00734 108.17858 352.55246 129.38477 369.95898 C 144.79422 382.60744 160.69469 394.63704 177.04883 406.02148 C 177.08341 405.98785 177.11254 405.95078 177.14844 405.91797 C 178.8936 404.32295 181.58731 404.38556 183.25586 406.06055 C 197.37733 396.29443 208.84209 383.19142 216.65039 367.9375 C 198.32995 355.59674 180.59825 342.39718 163.51758 328.37695 C 140.61348 309.57674 118.9345 289.34271 98.599609 267.81055 C 117.27638 246.58956 137.35284 226.63068 158.70898 208.08203 C 174.67999 194.21058 191.33782 181.15559 208.60938 168.95703 C 200.36804 154.00509 188.56043 141.29741 174.21484 131.97656 z M 221.16992 402.9668 L 203.59961 423.66016 C 204.69005 424.35276 205.77117 425.05904 206.86523 425.74609 L 221.16992 402.9668 z M 26.521484 420.89844 C 26.780425 422.43431 27.030084 423.97117 27.296875 425.50586 L 53.802734 420.89844 L 26.521484 420.89844 z "
     id="stroke1" />
</svg>
