<?xml version="1.0"?>
<!-- Created by MetaPost 1.9991 on 2017.04.13:1434 -->
<svg version="1.1" xmlns="http://www.w3.org/2000/svg" xmlns:xlink="http://www.w3.org/1999/xlink" width="212.901459" height="397.010590" viewBox="0 0 212.901459 397.010590">
<!-- Original BoundingBox: -0.100006 -95.741119 212.801453 301.269470 -->
  <path d="M187.695679 275.894226C165.267517 278.524719,142.706863 279.865677,120.125015 279.910477C96.761566 279.956833,73.415985 278.615707,50.211548 275.894226L50.211548 275.894226C49.683304 233.885910,49.420227 191.874664,49.422333 149.863037C49.424423 108.186218,49.687500 66.509827,50.211548 24.836304"  id="stroke1" style="stroke:rgb(0.000000%,0.000000%,0.000000%); stroke-width: 50.211548;stroke-linejoin: round;stroke-miterlimit: 10.000000;fill: none;"></path>
  <path d="M162.589905 309.368591L162.589905 301.000000C174.773727 286.480118,174.773727 265.308334,162.589905 250.788452L212.801453 250.788452L212.801453 309.368591Z" style="fill: rgb(100.000000%,0.000000%,0.000000%);stroke: none;"></path>
  <path d="M83.685913 49.942078L75.317322 49.942078C60.797440 37.758255,39.625656 37.758255,25.105774 49.942078L25.105774 -0.269470L83.685913 -0.269470Z" style="fill: rgb(100.000000%,0.000000%,0.000000%);stroke: none;"></path>
  <path d="M0.000000 396.641113L0.000000 26.031799L179.327087 26.031799L179.327087 396.641113Z" style="stroke:rgb(100.000000%,100.000000%,100.000000%); stroke-width: 0.199997;stroke-linecap: round;stroke-linejoin: round;stroke-miterlimit: 10.000000;fill: none;"></path>
</svg>
