<?xml version="1.0" encoding="UTF-8" standalone="no"?>
<!-- Created by MetaPost 1.9991 on 2017.07.28:1115 -->

<svg
   xmlns:dc="http://purl.org/dc/elements/1.1/"
   xmlns:cc="http://creativecommons.org/ns#"
   xmlns:rdf="http://www.w3.org/1999/02/22-rdf-syntax-ns#"
   xmlns:svg="http://www.w3.org/2000/svg"
   xmlns="http://www.w3.org/2000/svg"
   xmlns:sodipodi="http://sodipodi.sourceforge.net/DTD/sodipodi-0.dtd"
   xmlns:inkscape="http://www.inkscape.org/namespaces/inkscape"
   version="1.1"
   width="215.292511"
   height="538.181274"
   viewBox="0 0 215.292511 538.181274"
   id="svg5"
   sodipodi:docname="76.svg"
   inkscape:version="0.92.1 r">
  <metadata
     id="metadata11">
    <rdf:RDF>
      <cc:Work
         rdf:about="">
        <dc:format>image/svg+xml</dc:format>
        <dc:type
           rdf:resource="http://purl.org/dc/dcmitype/StillImage" />
      </cc:Work>
    </rdf:RDF>
  </metadata>
  <defs
     id="defs9" />
  <sodipodi:namedview
     pagecolor="#ffffff"
     bordercolor="#666666"
     borderopacity="1"
     objecttolerance="10"
     gridtolerance="10"
     guidetolerance="10"
     inkscape:pageopacity="0"
     inkscape:pageshadow="2"
     inkscape:window-width="1364"
     inkscape:window-height="730"
     id="namedview7"
     showgrid="false"
     inkscape:zoom="0.43851396"
     inkscape:cx="107.64626"
     inkscape:cy="269.09064"
     inkscape:window-x="0"
     inkscape:window-y="18"
     inkscape:window-maximized="0"
     inkscape:current-layer="svg5" />
  <!-- Original BoundingBox: -0.100006 -143.561676 215.192505 394.619598 -->
  <path
     style="color:#000000;font-style:normal;font-variant:normal;font-weight:normal;font-stretch:normal;font-size:medium;line-height:normal;font-family:sans-serif;font-variant-ligatures:normal;font-variant-position:normal;font-variant-caps:normal;font-variant-numeric:normal;font-variant-alternates:normal;font-feature-settings:normal;text-indent:0;text-align:start;text-decoration:none;text-decoration-line:none;text-decoration-style:solid;text-decoration-color:#000000;letter-spacing:normal;word-spacing:normal;text-transform:none;writing-mode:lr-tb;direction:ltr;text-orientation:mixed;dominant-baseline:auto;baseline-shift:baseline;text-anchor:start;white-space:normal;shape-padding:0;clip-rule:nonzero;display:inline;overflow:visible;visibility:visible;opacity:1;isolation:auto;mix-blend-mode:normal;color-interpolation:sRGB;color-interpolation-filters:linearRGB;solid-color:#000000;solid-opacity:1;vector-effect:none;fill:#000000;fill-opacity:1;fill-rule:nonzero;stroke:none;stroke-width:53.79812622;stroke-linecap:butt;stroke-linejoin:miter;stroke-miterlimit:10;stroke-dasharray:none;stroke-dashoffset:0;stroke-opacity:1;color-rendering:auto;image-rendering:auto;shape-rendering:auto;text-rendering:auto;enable-background:accumulate"
     d="M 26.943359 114.50586 C 26.914046 115.01815 26.890286 115.53066 26.861328 116.04297 L 53.796875 116.04297 L 26.943359 114.50586 z M 53.798828 139.40039 C 44.754768 139.40039 35.709381 140.58052 26.898438 142.94141 C 27.022145 144.42143 26.399352 145.79681 25.337891 146.68945 C 24.027015 177.39111 23.35012 208.11803 23.3125 238.84961 C 23.25952 282.13858 24.470446 325.41841 26.943359 368.63672 L 27.722656 382.26758 L 39.185547 389.68359 C 65.753054 406.87469 97.063262 415.27555 128.66797 413.69141 C 145.43985 412.85073 161.879 409.19744 177.33008 402.9668 L 161.39453 402.9668 C 158.56235 403.10878 156.28906 400.65492 156.64648 397.8418 C 156.94447 395.4964 159.0385 393.80308 161.39453 394 C 165.22737 379.69564 165.94828 364.77789 163.55859 350.24219 C 151.85282 355.97554 139.07365 359.30436 125.97461 359.96094 C 110.07537 360.75787 94.323315 357.57942 80.027344 350.89062 C 78.146385 313.59391 77.065623 276.25981 77.111328 238.91406 C 77.150641 206.79891 77.913275 174.69074 79.376953 142.61133 C 70.983186 140.47968 62.392597 139.40039 53.798828 139.40039 z M 188.29297 367.10156 L 188.29297 398.01758 C 193.31033 395.51049 198.20543 392.73544 202.9375 389.66406 L 188.29297 367.10156 z "
     id="stroke1" />
</svg>
