<?xml version="1.0" encoding="UTF-8" standalone="no"?>
<!-- Created by MetaPost 1.9991 on 2017.07.28:1115 -->

<svg
   xmlns:dc="http://purl.org/dc/elements/1.1/"
   xmlns:cc="http://creativecommons.org/ns#"
   xmlns:rdf="http://www.w3.org/1999/02/22-rdf-syntax-ns#"
   xmlns:svg="http://www.w3.org/2000/svg"
   xmlns="http://www.w3.org/2000/svg"
   xmlns:sodipodi="http://sodipodi.sourceforge.net/DTD/sodipodi-0.dtd"
   xmlns:inkscape="http://www.inkscape.org/namespaces/inkscape"
   version="1.1"
   width="263.213074"
   height="538.181274"
   viewBox="0 0 263.213074 538.181274"
   id="svg9"
   sodipodi:docname="77.svg"
   inkscape:version="0.92.1 r">
  <metadata
     id="metadata15">
    <rdf:RDF>
      <cc:Work
         rdf:about="">
        <dc:format>image/svg+xml</dc:format>
        <dc:type
           rdf:resource="http://purl.org/dc/dcmitype/StillImage" />
      </cc:Work>
    </rdf:RDF>
  </metadata>
  <defs
     id="defs13" />
  <sodipodi:namedview
     pagecolor="#ffffff"
     bordercolor="#666666"
     borderopacity="1"
     objecttolerance="10"
     gridtolerance="10"
     guidetolerance="10"
     inkscape:pageopacity="0"
     inkscape:pageshadow="2"
     inkscape:window-width="1364"
     inkscape:window-height="730"
     id="namedview11"
     showgrid="false"
     inkscape:zoom="0.43851396"
     inkscape:cx="131.60654"
     inkscape:cy="269.09064"
     inkscape:window-x="0"
     inkscape:window-y="18"
     inkscape:window-maximized="0"
     inkscape:current-layer="svg9" />
  <!-- Original BoundingBox: -0.100006 -143.561676 263.113068 394.619598 -->
  <path
     style="color:#000000;font-style:normal;font-variant:normal;font-weight:normal;font-stretch:normal;font-size:medium;line-height:normal;font-family:sans-serif;font-variant-ligatures:normal;font-variant-position:normal;font-variant-caps:normal;font-variant-numeric:normal;font-variant-alternates:normal;font-feature-settings:normal;text-indent:0;text-align:start;text-decoration:none;text-decoration-line:none;text-decoration-style:solid;text-decoration-color:#000000;letter-spacing:normal;word-spacing:normal;text-transform:none;writing-mode:lr-tb;direction:ltr;text-orientation:mixed;dominant-baseline:auto;baseline-shift:baseline;text-anchor:start;white-space:normal;shape-padding:0;clip-rule:nonzero;display:inline;overflow:visible;visibility:visible;opacity:1;isolation:auto;mix-blend-mode:normal;color-interpolation:sRGB;color-interpolation-filters:linearRGB;solid-color:#000000;solid-opacity:1;vector-effect:none;fill:#000000;fill-opacity:1;fill-rule:nonzero;stroke:none;stroke-width:53.79812622;stroke-linecap:butt;stroke-linejoin:miter;stroke-miterlimit:10;stroke-dasharray:none;stroke-dashoffset:0;stroke-opacity:1;color-rendering:auto;image-rendering:auto;shape-rendering:auto;text-rendering:auto;enable-background:accumulate"
     d="M 53.798828 139.40039 C 44.754768 139.40039 35.709381 140.58052 26.898438 142.94141 C 27.014921 144.33501 26.459999 145.62706 25.509766 146.51953 C 15.922604 191.95051 11.159186 238.27521 11.357422 284.72461 C 11.507748 319.9476 14.506281 355.07947 20.292969 389.7832 C 21.102347 389.3371 22.054967 389.12664 23.056641 389.25391 C 25.402039 389.5519 27.09535 391.64397 26.898438 394 C 42.931178 398.29596 59.734295 398.66958 75.90625 395.14844 C 68.924475 358.68792 65.314808 321.64779 65.15625 284.49609 C 65.083873 267.53732 65.730063 250.59609 67.085938 233.7168 C 80.100069 259.18669 93.840229 284.27993 108.29492 308.96289 L 131.50586 348.59961 L 154.71875 308.96289 C 169.17419 284.27868 182.91342 259.18413 195.92773 233.71289 C 197.28382 250.59347 197.92981 267.53601 197.85742 284.49609 C 197.69887 321.64779 194.08767 358.68792 187.10547 395.14844 C 203.278 398.67001 220.07992 398.29613 236.11328 394 C 235.91635 391.64395 237.61162 389.5519 239.95703 389.25391 C 240.95871 389.12664 241.91132 389.3371 242.7207 389.7832 C 248.50683 355.07947 251.50397 319.9476 251.6543 284.72461 C 251.85254 238.27521 247.08898 191.95046 237.50195 146.51953 C 236.55234 145.62708 235.99685 144.33451 236.11328 142.94141 C 218.49139 138.21963 199.93829 138.21963 182.31641 142.94141 C 182.51334 145.29745 180.81807 147.39146 178.47266 147.68945 C 178.19014 147.72535 177.9136 147.72794 177.64062 147.71289 C 170.09705 164.38186 162.23793 180.90678 154.06445 197.27734 C 146.79344 211.84039 139.26696 226.27178 131.50781 240.57812 C 123.74851 226.27149 116.21842 211.84067 108.94727 197.27734 C 100.77377 180.90676 92.914662 164.38185 85.371094 147.71289 C 85.098738 147.72779 84.820905 147.72526 84.539062 147.68945 C 82.193664 147.39146 80.500352 145.29744 80.697266 142.94141 C 71.886322 140.58052 62.842888 139.40039 53.798828 139.40039 z M 27.441406 426.2793 C 27.483805 426.46719 27.521888 426.65589 27.564453 426.84375 L 30.054688 426.2793 L 27.441406 426.2793 z M 232.95898 426.2793 L 235.44922 426.84375 C 235.49178 426.65589 235.52987 426.46719 235.57227 426.2793 L 232.95898 426.2793 z "
     id="stroke1" />
</svg>
