<?xml version="1.0"?>
<!-- Created by MetaPost 1.9991 on 2017.04.13:1434 -->
<svg version="1.1" xmlns="http://www.w3.org/2000/svg" xmlns:xlink="http://www.w3.org/1999/xlink" width="263.213074" height="397.010590" viewBox="0 0 263.213074 397.010590">
<!-- Original BoundingBox: -0.100006 -95.741119 263.113068 301.269470 -->
  <path d="M50.211548 326.105774C48.052200 280.277557,46.968140 234.405014,46.960297 188.525955C46.952393 142.312164,48.036438 96.104645,50.211548 49.942078"  id="stroke1" style="stroke:rgb(0.000000%,0.000000%,0.000000%); stroke-width: 50.211548;stroke-linecap: round;stroke-linejoin: round;stroke-miterlimit: 10.000000;fill: none;"></path>
  <path d="M50.211548 49.942078C63.086517 74.448700,76.093994 98.885468,89.233414 123.251312C103.176331 149.107178,117.267609 174.882767,131.506531 200.576813L131.506531 200.576813C145.745453 174.882767,159.836731 149.107178,173.779648 123.251312C186.919067 98.885468,199.926544 74.448700,212.801514 49.942078"  id="stroke2" style="stroke:rgb(0.000000%,0.000000%,0.000000%); stroke-width: 50.211548;stroke-linecap: round;stroke-linejoin: round;stroke-miterlimit: 10.000000;fill: none;"></path>
  <path d="M212.801514 49.942078C214.976624 96.104645,216.060669 142.312164,216.052765 188.525955C216.044922 234.405014,214.960861 280.277557,212.801514 326.105774"  id="stroke3" style="stroke:rgb(0.000000%,0.000000%,0.000000%); stroke-width: 50.211548;stroke-linecap: round;stroke-linejoin: round;stroke-miterlimit: 10.000000;fill: none;"></path>
  <path d="M16.737183 301.000000L25.105774 301.000000C39.625656 313.183823,60.797440 313.183823,75.317322 301.000000L75.317322 351.211548L16.737183 351.211548Z" style="fill: rgb(100.000000%,0.000000%,0.000000%);stroke: none;"></path>
  <path d="M246.275879 49.942078L237.907288 49.942078C223.387405 37.758255,202.215622 37.758255,187.695740 49.942078L187.695740 -0.269470L246.275879 -0.269470Z" style="fill: rgb(100.000000%,0.000000%,0.000000%);stroke: none;"></path>
  <path d="M179.327148 301.000000L187.695740 301.000000C202.215622 313.183823,223.387405 313.183823,237.907288 301.000000L237.907288 351.211548L179.327148 351.211548Z" style="fill: rgb(100.000000%,0.000000%,0.000000%);stroke: none;"></path>
  <path d="M83.685913 49.942078L75.317322 49.942078C60.797440 37.758255,39.625656 37.758255,25.105774 49.942078L25.105774 -0.269470L83.685913 -0.269470Z" style="fill: rgb(100.000000%,0.000000%,0.000000%);stroke: none;"></path>
  <path d="M0.000000 396.641113L0.000000 26.031799L263.013062 26.031799L263.013062 396.641113Z" style="stroke:rgb(100.000000%,100.000000%,100.000000%); stroke-width: 0.199997;stroke-linecap: round;stroke-linejoin: round;stroke-miterlimit: 10.000000;fill: none;"></path>
</svg>
