<?xml version="1.0"?>
<!-- Created by MetaPost 1.9991 on 2017.04.13:1434 -->
<svg version="1.1" xmlns="http://www.w3.org/2000/svg" xmlns:xlink="http://www.w3.org/1999/xlink" width="215.392517" height="397.010590" viewBox="0 0 215.392517 397.010590">
<!-- Original BoundingBox: -0.100006 -95.741119 215.292511 301.269470 -->
  <path d="M50.211548 326.105774C48.687195 280.261642,47.922089 234.395416,47.916550 188.525955C47.910965 142.321777,48.676071 96.120728,50.211548 49.942078L50.211548 49.942078C65.708847 94.173660,83.262436 137.657715,102.815002 180.252289C121.710678 221.415878,142.453766 261.706070,164.980957 301.000000L164.980957 301.000000C166.516434 254.821350,167.281540 208.620300,167.275955 162.416122C167.270416 116.546661,166.505310 70.680435,164.980957 24.836304"  id="stroke1" style="stroke:rgb(0.000000%,0.000000%,0.000000%); stroke-width: 50.211548;stroke-linejoin: bevel;stroke-miterlimit: 10.000000;fill: none;"></path>
  <path d="M16.737183 301.000000L25.105774 301.000000C39.625656 313.183823,60.797440 313.183823,75.317322 301.000000L75.317322 351.211548L16.737183 351.211548Z" style="fill: rgb(100.000000%,0.000000%,0.000000%);stroke: none;"></path>
  <path d="M83.685913 49.942078L75.317322 49.942078C60.797440 37.758255,39.625656 37.758255,25.105774 49.942078L25.105774 -0.269470L83.685913 -0.269470Z" style="fill: rgb(100.000000%,0.000000%,0.000000%);stroke: none;"></path>
  <path d="M131.506592 301.000000L139.875183 301.000000C154.395065 313.183823,175.566849 313.183823,190.086731 301.000000L190.086731 351.211548L131.506592 351.211548Z" style="fill: rgb(100.000000%,0.000000%,0.000000%);stroke: none;"></path>
  <path d="M198.455322 49.942078L190.086731 49.942078C175.566849 37.758255,154.395065 37.758255,139.875183 49.942078L139.875183 -0.269470L198.455322 -0.269470Z" style="fill: rgb(100.000000%,0.000000%,0.000000%);stroke: none;"></path>
  <path d="M0.000000 396.641113L0.000000 26.031799L215.192505 26.031799L215.192505 396.641113Z" style="stroke:rgb(100.000000%,100.000000%,100.000000%); stroke-width: 0.199997;stroke-linecap: round;stroke-linejoin: bevel;stroke-miterlimit: 10.000000;fill: none;"></path>
</svg>
