<?xml version="1.0"?>
<!-- Created by MetaPost 1.9991 on 2017.04.13:1434 -->
<svg version="1.1" xmlns="http://www.w3.org/2000/svg" xmlns:xlink="http://www.w3.org/1999/xlink" width="239.302795" height="370.809326" viewBox="0 0 239.302795 370.809326">
<!-- Original BoundingBox: -0.100006 -95.741119 239.202789 275.068207 -->
  <path d="M123.551392 253.337234C122.219055 253.402786,120.885345 253.437241,119.551392 253.437241C118.217438 253.437241,116.883728 253.402786,115.551392 253.337234C66.202560 250.909500,27.107346 210.899719,25.105774 161.426178C24.944641 157.443314,25.053040 153.456467,25.105774 149.471039C25.158524 145.484482,25.155609 141.495331,25.404648 137.515900C28.489609 88.222137,66.661987 48.030869,115.551392 45.604843C116.883713 45.538727,118.217438 45.504837,119.551392 45.504837C120.885345 45.504837,122.219070 45.538727,123.551392 45.604843C172.440796 48.030853,210.613174 88.222122,213.698135 137.515900C213.947174 141.495331,213.944260 145.484482,213.997009 149.471039C214.049744 153.456467,214.158142 157.443314,213.997009 161.426178C211.995453 210.899734,172.900238 250.909531,123.551392 253.337234Z"  id="stroke1" style="stroke:rgb(0.000000%,0.000000%,0.000000%); stroke-width: 50.211548;stroke-linejoin: round;stroke-miterlimit: 10.000000;fill: none;"></path>
  <path d="M0.000000 370.641113L0.000000 0.031799L239.102783 0.031799L239.102783 370.641113Z" style="stroke:rgb(100.000000%,100.000000%,100.000000%); stroke-width: 0.199997;stroke-linecap: round;stroke-linejoin: round;stroke-miterlimit: 10.000000;fill: none;"></path>
</svg>
