<?xml version="1.0"?>
<!-- Created by MetaPost 1.9991 on 2017.04.13:1434 -->
<svg version="1.1" xmlns="http://www.w3.org/2000/svg" xmlns:xlink="http://www.w3.org/1999/xlink" width="239.302795" height="373.100311" viewBox="0 0 239.302795 373.100311">
<!-- Original BoundingBox: -0.100006 -98.032104 239.202789 275.068207 -->
  <path d="M123.551392 253.337234C122.219055 253.402786,120.885345 253.437241,119.551392 253.437241C118.217438 253.437241,116.883728 253.402786,115.551392 253.337234C66.202560 250.909500,27.107346 210.899719,25.105774 161.426178C24.944641 157.443314,25.053040 153.456467,25.105774 149.471039C25.158524 145.484482,25.155609 141.495331,25.404648 137.515900C28.489609 88.222137,66.661987 48.030869,115.551392 45.604843C116.883713 45.538727,118.217438 45.504837,119.551392 45.504837C120.885345 45.504837,122.219070 45.538727,123.551392 45.604843C172.440796 48.030853,210.613174 88.222122,213.698135 137.515900C213.947174 141.495331,213.944260 145.484482,213.997009 149.471039C214.049744 153.456467,214.158142 157.443314,213.997009 161.426178C211.995453 210.899734,172.900238 250.909531,123.551392 253.337234Z"  id="stroke1" style="stroke:rgb(0.000000%,0.000000%,0.000000%); stroke-width: 50.211548;stroke-linejoin: round;stroke-miterlimit: 10.000000;fill: none;"></path>
  <path d="M119.551392 159.868286L119.551392 258.073654L119.551392 347.926331"  id="stroke2" style="stroke:rgb(0.000000%,0.000000%,0.000000%); stroke-width: 50.211548;stroke-linejoin: round;stroke-miterlimit: 10.000000;fill: none;"></path>
  <path d="M86.077026 322.820557L94.445618 322.820557C108.965500 335.004379,130.137283 335.004379,144.657166 322.820557L144.657166 373.032104L86.077026 373.032104Z" style="fill: rgb(100.000000%,0.000000%,0.000000%);stroke: none;"></path>
  <path d="M153.025757 184.974060L144.657166 184.974060C130.137283 172.790237,108.965500 172.790237,94.445618 184.974060L94.445618 134.762512L153.025757 134.762512Z" style="fill: rgb(100.000000%,0.000000%,0.000000%);stroke: none;"></path>
  <path d="M0.000000 370.641113L0.000000 0.031799L239.102783 0.031799L239.102783 370.641113Z" style="stroke:rgb(100.000000%,100.000000%,100.000000%); stroke-width: 0.199997;stroke-linecap: round;stroke-linejoin: round;stroke-miterlimit: 10.000000;fill: none;"></path>
</svg>
