<?xml version="1.0" encoding="UTF-8" standalone="no"?>
<!-- Created by MetaPost 1.9991 on 2017.07.28:1115 -->

<svg
   xmlns:dc="http://purl.org/dc/elements/1.1/"
   xmlns:cc="http://creativecommons.org/ns#"
   xmlns:rdf="http://www.w3.org/1999/02/22-rdf-syntax-ns#"
   xmlns:svg="http://www.w3.org/2000/svg"
   xmlns="http://www.w3.org/2000/svg"
   xmlns:sodipodi="http://sodipodi.sourceforge.net/DTD/sodipodi-0.dtd"
   xmlns:inkscape="http://www.inkscape.org/namespaces/inkscape"
   version="1.1"
   width="239.302795"
   height="538.181274"
   viewBox="0 0 239.302795 538.181274"
   id="svg6"
   sodipodi:docname="81.svg"
   inkscape:version="0.92.1 r">
  <metadata
     id="metadata12">
    <rdf:RDF>
      <cc:Work
         rdf:about="">
        <dc:format>image/svg+xml</dc:format>
        <dc:type
           rdf:resource="http://purl.org/dc/dcmitype/StillImage" />
      </cc:Work>
    </rdf:RDF>
  </metadata>
  <defs
     id="defs10" />
  <sodipodi:namedview
     pagecolor="#ffffff"
     bordercolor="#666666"
     borderopacity="1"
     objecttolerance="10"
     gridtolerance="10"
     guidetolerance="10"
     inkscape:pageopacity="0"
     inkscape:pageshadow="2"
     inkscape:window-width="1364"
     inkscape:window-height="730"
     id="namedview8"
     showgrid="false"
     inkscape:zoom="0.43851396"
     inkscape:cx="119.6514"
     inkscape:cy="269.09064"
     inkscape:window-x="0"
     inkscape:window-y="18"
     inkscape:window-maximized="0"
     inkscape:current-layer="svg6" />
  <!-- Original BoundingBox: -0.100006 -143.561676 239.202789 394.619598 -->
  <path
     style="color:#000000;font-style:normal;font-variant:normal;font-weight:normal;font-stretch:normal;font-size:medium;line-height:normal;font-family:sans-serif;font-variant-ligatures:normal;font-variant-position:normal;font-variant-caps:normal;font-variant-numeric:normal;font-variant-alternates:normal;font-feature-settings:normal;text-indent:0;text-align:start;text-decoration:none;text-decoration-line:none;text-decoration-style:solid;text-decoration-color:#000000;letter-spacing:normal;word-spacing:normal;text-transform:none;writing-mode:lr-tb;direction:ltr;text-orientation:mixed;dominant-baseline:auto;baseline-shift:baseline;text-anchor:start;white-space:normal;shape-padding:0;clip-rule:nonzero;display:inline;overflow:visible;visibility:visible;opacity:1;isolation:auto;mix-blend-mode:normal;color-interpolation:sRGB;color-interpolation-filters:linearRGB;solid-color:#000000;solid-opacity:1;vector-effect:none;fill:#000000;fill-opacity:1;fill-rule:nonzero;stroke:none;stroke-width:53.79812622;stroke-linecap:butt;stroke-linejoin:miter;stroke-miterlimit:10;stroke-dasharray:none;stroke-dashoffset:0;stroke-opacity:1;color-rendering:auto;image-rendering:auto;shape-rendering:auto;text-rendering:auto;enable-background:accumulate"
     d="M 119.55078 139.27539 C 117.76615 139.27539 115.98616 139.31959 114.21094 139.4082 C 52.249092 142.4998 4.2103867 193.60732 0.3515625 254.82422 C 0.02836661 259.95144 0.051331335 264.38779 0.001953125 268.11523 C -0.047397405 271.84172 -0.19005964 276.31538 0.0234375 281.52734 C 2.2632965 336.20613 40.932281 382.20399 92.652344 394.46875 L 92.652344 394.75781 L 92.652344 441.82031 C 110.27423 446.54208 128.82928 446.54208 146.45117 441.82031 L 146.45117 394.75781 L 146.45117 394.46875 C 198.17128 382.20408 236.84024 336.20616 239.08008 281.52734 C 239.29358 276.31538 239.14901 271.84172 239.09961 268.11523 C 239.05021 264.38779 239.07321 259.95144 238.75 254.82422 C 234.89112 193.60738 186.85434 142.49996 124.89258 139.4082 C 123.11735 139.3196 121.33541 139.27539 119.55078 139.27539 z M 119.55078 193.07227 C 120.43406 193.07227 121.32155 193.09427 122.21094 193.13867 C 156.1301 194.83116 182.8204 222.70255 185.05859 258.20898 C 185.23708 261.04045 185.2504 264.58242 185.30664 268.82812 C 185.36284 273.07254 185.44091 276.57253 185.32812 279.32617 C 184.25165 305.60496 168.73489 327.78049 146.45117 337.94141 L 146.45117 305.59961 C 128.82928 300.87784 110.27423 300.87784 92.652344 305.59961 L 92.652344 337.94141 C 70.368622 327.78046 54.851872 305.60492 53.775391 279.32617 C 53.662594 276.57253 53.738712 273.07253 53.794922 268.82812 C 53.851162 264.58243 53.864482 261.04045 54.042969 258.20898 C 56.281129 222.70252 82.973458 194.83107 116.89258 193.13867 C 117.78196 193.09427 118.6675 193.07227 119.55078 193.07227 z "
     id="stroke1" />
</svg>
