<?xml version="1.0" encoding="UTF-8" standalone="no"?>
<!-- Created by MetaPost 1.9991 on 2017.07.28:1115 -->

<svg
   xmlns:dc="http://purl.org/dc/elements/1.1/"
   xmlns:cc="http://creativecommons.org/ns#"
   xmlns:rdf="http://www.w3.org/1999/02/22-rdf-syntax-ns#"
   xmlns:svg="http://www.w3.org/2000/svg"
   xmlns="http://www.w3.org/2000/svg"
   xmlns:sodipodi="http://sodipodi.sourceforge.net/DTD/sodipodi-0.dtd"
   xmlns:inkscape="http://www.inkscape.org/namespaces/inkscape"
   version="1.1"
   width="242.191574"
   height="538.181274"
   viewBox="0 0 242.191574 538.181274"
   id="svg6"
   sodipodi:docname="82.svg"
   inkscape:version="0.92.1 r">
  <metadata
     id="metadata12">
    <rdf:RDF>
      <cc:Work
         rdf:about="">
        <dc:format>image/svg+xml</dc:format>
        <dc:type
           rdf:resource="http://purl.org/dc/dcmitype/StillImage" />
      </cc:Work>
    </rdf:RDF>
  </metadata>
  <defs
     id="defs10" />
  <sodipodi:namedview
     pagecolor="#ffffff"
     bordercolor="#666666"
     borderopacity="1"
     objecttolerance="10"
     gridtolerance="10"
     guidetolerance="10"
     inkscape:pageopacity="0"
     inkscape:pageshadow="2"
     inkscape:window-width="1364"
     inkscape:window-height="730"
     id="namedview8"
     showgrid="false"
     inkscape:zoom="0.43851396"
     inkscape:cx="121.09579"
     inkscape:cy="269.09064"
     inkscape:window-x="0"
     inkscape:window-y="18"
     inkscape:window-maximized="0"
     inkscape:current-layer="svg6" />
  <!-- Original BoundingBox: -0.100006 -143.561676 242.091568 394.619598 -->
  <path
     style="color:#000000;font-style:normal;font-variant:normal;font-weight:normal;font-stretch:normal;font-size:medium;line-height:normal;font-family:sans-serif;font-variant-ligatures:normal;font-variant-position:normal;font-variant-caps:normal;font-variant-numeric:normal;font-variant-alternates:normal;font-feature-settings:normal;text-indent:0;text-align:start;text-decoration:none;text-decoration-line:none;text-decoration-style:solid;text-decoration-color:#000000;letter-spacing:normal;word-spacing:normal;text-transform:none;writing-mode:lr-tb;direction:ltr;text-orientation:mixed;dominant-baseline:auto;baseline-shift:baseline;text-anchor:start;white-space:normal;shape-padding:0;clip-rule:nonzero;display:inline;overflow:visible;visibility:visible;opacity:1;isolation:auto;mix-blend-mode:normal;color-interpolation:sRGB;color-interpolation-filters:linearRGB;solid-color:#000000;solid-opacity:1;vector-effect:none;fill:#000000;fill-opacity:1;fill-rule:nonzero;stroke:none;stroke-width:53.79812622;stroke-linecap:butt;stroke-linejoin:miter;stroke-miterlimit:10;stroke-dasharray:none;stroke-dashoffset:0;stroke-opacity:1;color-rendering:auto;image-rendering:auto;shape-rendering:auto;text-rendering:auto;enable-background:accumulate"
     d="M 28.248047 142.94141 L 26.935547 168.45898 C 24.732052 211.27113 23.64355 254.13314 23.671875 297.00195 C 23.692459 328.15062 24.304778 359.29447 25.503906 390.41797 C 26.457878 391.3106 27.01516 392.60345 26.898438 394 C 44.139358 398.61969 62.271268 398.70705 79.550781 394.28711 C 78.875036 376.74033 78.399705 359.18684 78.095703 341.62891 C 96.616496 380.31256 130.67014 410.36038 172.875 423.30273 C 177.96874 424.86476 183.13665 426.15197 188.35547 427.16016 L 171.35938 412.38086 C 169.12903 410.62959 169.02501 407.2867 171.14062 405.39844 C 172.90448 403.8241 175.59546 403.91872 177.24414 405.61328 C 189.02232 397.67141 198.99943 387.41715 206.62109 375.5293 C 200.53311 374.88327 194.51274 373.66806 188.64648 371.86914 C 161.82965 363.64561 140.12373 344.99759 127.79102 320.82617 C 145.27268 318.30993 162.05215 312.42756 176.71484 302.72461 C 196.96078 289.32697 213.19081 266.745 215.00781 239.38867 C 215.18682 236.69344 215.19336 234.42881 215.19336 232.60547 C 215.19336 230.78213 215.18636 228.51749 215.00781 225.82227 C 213.1908 198.46594 196.96078 175.88396 176.71484 162.48633 C 156.46891 149.08869 132.19545 142.94141 107.5957 142.94141 L 28.248047 142.94141 z M 79.681641 196.74023 L 107.5957 196.74023 C 122.74244 196.74023 137.53312 201.07011 147.02539 207.35156 C 156.51766 213.63302 160.70005 219.93239 161.32812 229.38867 C 161.37013 230.02157 161.39453 231.09357 161.39453 232.60547 C 161.39453 234.11737 161.37013 235.18937 161.32812 235.82227 C 160.70004 245.27854 156.51766 251.57987 147.02539 257.86133 C 137.53313 264.14278 122.74245 268.4707 107.5957 268.4707 L 77.820312 268.4707 C 78.086761 244.5513 78.704724 220.64127 79.681641 196.74023 z M 215.19141 402.9668 L 193.39062 428.03906 C 200.48475 429.15961 207.65782 429.77344 214.85742 429.86328 L 215.19141 402.9668 z M 26.869141 420.89844 C 26.892604 421.35934 26.911825 421.82036 26.935547 422.28125 L 53.798828 420.89844 L 26.869141 420.89844 z "
     id="stroke1" />
</svg>
