<?xml version="1.0"?>
<!-- Created by MetaPost 1.9991 on 2017.04.13:1434 -->
<svg version="1.1" xmlns="http://www.w3.org/2000/svg" xmlns:xlink="http://www.w3.org/1999/xlink" width="250.714355" height="370.809326" viewBox="0 0 250.714355 370.809326">
<!-- Original BoundingBox: -0.100006 -95.741119 250.614349 275.068207 -->
  <path d="M50.211548 300.105774C49.753830 258.364731,49.524414 216.621475,49.523315 174.877914C49.522217 132.933624,49.751633 90.989624,50.211548 49.047852L50.211548 49.047852L107.596252 49.047852C148.044479 49.047852,187.473236 69.537491,189.961731 106.812332C190.072815 108.476364,190.086731 110.144699,190.086731 111.812332C190.086731 113.479965,190.072815 115.148300,189.961731 116.812332C187.473267 154.087173,148.044479 174.576813,107.596252 174.576813L50.211548 174.576813"  id="stroke1" style="stroke:rgb(0.000000%,0.000000%,0.000000%); stroke-width: 50.211548;stroke-linejoin: round;stroke-miterlimit: 10.000000;fill: none;"></path>
  <path d="M90.380661 174.576813C111.909088 197.006607,134.546707 218.344803,158.208527 238.511307C176.613754 254.197708,195.622803 269.161469,215.192505 283.368591"  id="stroke2" style="stroke:rgb(0.000000%,0.000000%,0.000000%); stroke-width: 50.211548;stroke-linejoin: round;stroke-miterlimit: 10.000000;fill: none;"></path>
  <path d="M16.737183 275.000000L25.105774 275.000000C39.625656 287.183823,60.797440 287.183823,75.317322 275.000000L75.317322 325.211548L16.737183 325.211548Z" style="fill: rgb(100.000000%,0.000000%,0.000000%);stroke: none;"></path>
  <path d="M174.271881 292.106216L179.770660 285.797729C198.495834 282.857880,212.407272 266.897949,212.763367 247.946747L250.614349 280.939453L212.122864 325.098923Z" style="fill: rgb(100.000000%,0.000000%,0.000000%);stroke: none;"></path>
  <path d="M0.000000 370.641113L0.000000 0.031799L215.192505 0.031799L215.192505 370.641113Z" style="stroke:rgb(100.000000%,100.000000%,100.000000%); stroke-width: 0.199997;stroke-linecap: round;stroke-linejoin: round;stroke-miterlimit: 10.000000;fill: none;"></path>
</svg>
