<?xml version="1.0"?>
<!-- Created by MetaPost 1.9991 on 2017.04.13:1434 -->
<svg version="1.1" xmlns="http://www.w3.org/2000/svg" xmlns:xlink="http://www.w3.org/1999/xlink" width="265.404053" height="370.809326" viewBox="0 0 265.404053 370.809326">
<!-- Original BoundingBox: -25.105774 -95.741119 240.298279 275.068207 -->
  <path d="M132.596252 300.105774L132.596252 175.079041L132.596252 49.047852"  id="stroke1" style="stroke:rgb(0.000000%,0.000000%,0.000000%); stroke-width: 50.211548;stroke-linejoin: round;stroke-miterlimit: 10.000000;fill: none;"></path>
  <path d="M25.000000 49.047852C60.862915 48.512558,96.729340 48.244904,132.596252 48.244904C168.463165 48.244904,204.329590 48.512558,240.192505 49.047852"  id="stroke2" style="stroke:rgb(0.000000%,0.000000%,0.000000%); stroke-width: 50.211548;stroke-linejoin: round;stroke-miterlimit: 10.000000;fill: none;"></path>
  <path d="M99.121887 275.000000L107.490479 275.000000C122.010361 287.183823,143.182144 287.183823,157.702026 275.000000L157.702026 325.211548L99.121887 325.211548Z" style="fill: rgb(100.000000%,0.000000%,0.000000%);stroke: none;"></path>
  <path d="M50.105774 15.573486L50.105774 23.942078C37.921951 38.461960,37.921951 59.633743,50.105774 74.153625L-0.105774 74.153625L-0.105774 15.573486Z" style="fill: rgb(100.000000%,0.000000%,0.000000%);stroke: none;"></path>
  <path d="M215.086731 82.522217L215.086731 74.153625C227.270554 59.633743,227.270554 38.461960,215.086731 23.942078L265.298279 23.942078L265.298279 82.522217Z" style="fill: rgb(100.000000%,0.000000%,0.000000%);stroke: none;"></path>
  <path d="M25.000000 370.641113L25.000000 0.031799L240.192505 0.031799L240.192505 370.641113Z" style="stroke:rgb(100.000000%,100.000000%,100.000000%); stroke-width: 0.199997;stroke-linecap: round;stroke-linejoin: round;stroke-miterlimit: 10.000000;fill: none;"></path>
</svg>
