<?xml version="1.0" encoding="UTF-8" standalone="no"?>
<!-- Created by MetaPost 1.9991 on 2017.07.28:1115 -->

<svg
   xmlns:dc="http://purl.org/dc/elements/1.1/"
   xmlns:cc="http://creativecommons.org/ns#"
   xmlns:rdf="http://www.w3.org/1999/02/22-rdf-syntax-ns#"
   xmlns:svg="http://www.w3.org/2000/svg"
   xmlns="http://www.w3.org/2000/svg"
   xmlns:sodipodi="http://sodipodi.sourceforge.net/DTD/sodipodi-0.dtd"
   xmlns:inkscape="http://www.inkscape.org/namespaces/inkscape"
   version="1.1"
   width="239.302795"
   height="538.181274"
   viewBox="0 0 239.302795 538.181274"
   id="svg5"
   sodipodi:docname="85.svg"
   inkscape:version="0.92.1 r">
  <metadata
     id="metadata11">
    <rdf:RDF>
      <cc:Work
         rdf:about="">
        <dc:format>image/svg+xml</dc:format>
        <dc:type
           rdf:resource="http://purl.org/dc/dcmitype/StillImage" />
      </cc:Work>
    </rdf:RDF>
  </metadata>
  <defs
     id="defs9" />
  <sodipodi:namedview
     pagecolor="#ffffff"
     bordercolor="#666666"
     borderopacity="1"
     objecttolerance="10"
     gridtolerance="10"
     guidetolerance="10"
     inkscape:pageopacity="0"
     inkscape:pageshadow="2"
     inkscape:window-width="1364"
     inkscape:window-height="730"
     id="namedview7"
     showgrid="false"
     inkscape:zoom="0.43851396"
     inkscape:cx="119.6514"
     inkscape:cy="269.09064"
     inkscape:window-x="0"
     inkscape:window-y="18"
     inkscape:window-maximized="0"
     inkscape:current-layer="svg5" />
  <!-- Original BoundingBox: -0.100006 -143.561676 239.202789 394.619598 -->
  <path
     style="color:#000000;font-style:normal;font-variant:normal;font-weight:normal;font-stretch:normal;font-size:medium;line-height:normal;font-family:sans-serif;font-variant-ligatures:normal;font-variant-position:normal;font-variant-caps:normal;font-variant-numeric:normal;font-variant-alternates:normal;font-feature-settings:normal;text-indent:0;text-align:start;text-decoration:none;text-decoration-line:none;text-decoration-style:solid;text-decoration-color:#000000;letter-spacing:normal;word-spacing:normal;text-transform:none;writing-mode:lr-tb;direction:ltr;text-orientation:mixed;dominant-baseline:auto;baseline-shift:baseline;text-anchor:start;white-space:normal;shape-padding:0;clip-rule:nonzero;display:inline;overflow:visible;visibility:visible;opacity:1;isolation:auto;mix-blend-mode:normal;color-interpolation:sRGB;color-interpolation-filters:linearRGB;solid-color:#000000;solid-opacity:1;vector-effect:none;fill:#000000;fill-opacity:1;fill-rule:nonzero;stroke:none;stroke-width:53.79812622;stroke-linecap:butt;stroke-linejoin:miter;stroke-miterlimit:10;stroke-dasharray:none;stroke-dashoffset:0;stroke-opacity:1;color-rendering:auto;image-rendering:auto;shape-rendering:auto;text-rendering:auto;enable-background:accumulate"
     d="M 182.64062 89.181641 C 181.03619 89.21929 179.62239 89.396241 178.50195 89.689453 L 178.50195 89.691406 C 170.40164 91.811448 164.5388 97.74389 161.83789 102.50977 C 161.12748 103.76331 160.56803 104.95906 160.10742 106.11914 C 160.74974 104.55828 161.49951 103.42924 162.27344 102.14648 C 160.74644 104.67733 159.8091 107.04542 159.16406 109.26367 C 159.23988 108.89454 159.32589 108.57098 159.41602 108.26562 C 159.27789 108.72195 159.1481 109.1753 159.04492 109.61914 C 158.38681 112.00276 158.1483 114.16494 158.13477 116.04297 L 185.30469 116.04297 L 193.30273 90.736328 C 190.17808 89.805677 187.04382 89.283096 184.30469 89.191406 C 183.73127 89.172211 183.17545 89.169091 182.64062 89.181641 z M 199.13672 93.068359 C 203.99806 96.079801 207.48334 100.34492 209.27148 103.9043 C 210.32554 106.00244 210.96579 107.91347 211.40234 109.74414 C 211.56382 110.19164 211.75732 111.12877 212.02344 112.5293 C 211.90423 112.03485 211.79653 111.53824 211.66992 111.04492 C 211.97957 112.76721 212.11284 114.42233 212.10352 116.04297 L 212.29688 116.04297 C 212.31326 115.62233 212.33887 115.26964 212.3457 114.81836 C 212.3733 115.20944 212.3843 115.62515 212.39258 116.04297 L 212.80273 116.04297 C 212.6474 115.29086 212.49536 114.53877 212.32422 113.78906 C 212.22288 109.90996 211.19066 104.63169 205.97266 98.421875 C 204.09228 96.184084 201.714 94.436376 199.13672 93.068359 z M 80.679688 115.04102 L 40.578125 116.04297 L 80.697266 116.04297 L 80.697266 115.70703 L 80.679688 115.04102 z M 53.703125 139.40234 C 44.690665 139.40994 35.678537 140.58878 26.898438 142.94141 C 26.949544 143.55284 26.869455 144.1461 26.6875 144.69531 C 26.482856 169.9185 26.298832 199.89737 26.898438 219.44141 C 26.764426 240.46868 26.200043 280.34583 26.902344 303.13477 C 26.705233 354.26973 67.328382 399.05974 119.39844 397.64258 C 146.50789 398.36731 165.30029 382.54064 180.51172 365.91602 C 194.62152 350.49536 205.76317 332.89927 210.5957 313.05664 C 212.03454 309.54074 212.49242 306.26322 212.53125 303.18555 C 212.55965 300.93106 212.3603 298.55882 211.76562 296.06836 C 210.14428 281.38565 212.31611 243.05727 212.20117 219.62109 C 212.57533 207.95944 214.34174 188.37789 215.15625 168.37891 C 215.43891 161.43847 215.68201 154.50109 215.6582 147.60156 C 213.52135 147.1315 212.01749 145.16246 212.20312 142.94141 C 207.09781 141.57344 201.91376 140.61439 196.69727 140.03906 C 195.2658 140.72982 193.74244 141.31249 192.12305 141.73633 C 188.8979 142.58034 183.1929 142.39209 177.50781 140.7168 L 177.83594 139.67969 C 172.31665 140.07737 166.82227 140.91103 161.4043 142.19141 C 161.70886 149.41217 161.74589 157.75416 161.40234 166.18945 C 160.66177 184.3731 158.89781 203.17962 158.42773 217.9707 L 158.42773 217.97266 C 158.42373 218.09501 158.4136 218.3799 158.4082 218.82812 C 158.4032 219.27389 158.40625 219.54351 158.40625 219.63867 C 158.50345 236.73458 154.84908 272.39703 158.05078 300.73047 C 155.92862 307.62072 149.31032 320.32085 140.82031 329.59961 C 131.35728 339.9418 120.11385 343.87113 120.76562 343.89258 C 120.65587 343.88858 120.63477 343.87014 119.57617 343.86914 C 118.68182 343.86833 118.35267 343.89053 118.24414 343.89453 C 97.523212 344.64819 80.583279 326.86329 80.697266 303.30273 C 80.697582 303.23753 80.701014 302.97442 80.695312 302.51367 C 80.689712 302.0555 80.678981 301.77632 80.675781 301.67383 L 80.675781 301.67188 C 80.058681 281.90618 80.561125 241.18668 80.697266 219.6582 L 80.697266 219.65625 C 80.697994 219.54329 80.701014 219.26372 80.695312 218.81641 C 80.689712 218.37046 80.679041 218.09517 80.675781 217.99023 C 80.118715 200.0624 80.31318 168.88046 80.511719 142.89453 C 71.728378 140.55838 62.715585 139.39474 53.703125 139.40234 z M 189.42188 276.73047 C 190.365 276.82067 191.29426 276.9345 192.13867 277.15625 C 192.43963 277.23535 192.80023 277.45404 193.11328 277.55664 C 191.88623 277.1677 190.6593 276.98421 189.42188 276.73047 z M 158.45117 300.89844 C 158.42737 301.50437 158.4502 301.9682 158.4668 302.50195 C 158.4402 302.97118 158.41547 303.38602 158.41797 303.91211 C 158.44327 304.10004 158.45838 304.29917 158.48438 304.48633 C 158.49038 304.55363 158.48033 304.66495 158.48633 304.73047 C 158.44943 304.52858 158.44376 304.40292 158.41016 304.14453 C 158.41088 304.19053 158.4033 304.21924 158.4043 304.26562 C 158.3983 304.1587 158.38741 304.04758 158.38281 303.94336 C 158.32121 303.39053 158.26851 303.39505 158.26953 302.63086 C 158.29133 302.80434 158.30768 302.98339 158.33008 303.15625 C 158.32808 302.94943 158.2794 302.66686 158.2832 302.47266 C 158.2862 302.12744 158.373 301.65049 158.39648 301.26562 C 158.41768 301.08254 158.42687 301.06133 158.45117 300.89844 z M 192.4707 328.31641 C 192.15502 328.41111 191.78933 328.6219 191.48633 328.69336 C 190.63562 328.89392 189.70219 328.98456 188.75586 329.05078 C 190.00037 328.82833 191.23317 328.67449 192.4707 328.31641 z "
     id="stroke1" />
</svg>
