<?xml version="1.0"?>
<!-- Created by MetaPost 1.9991 on 2017.04.13:1434 -->
<svg version="1.1" xmlns="http://www.w3.org/2000/svg" xmlns:xlink="http://www.w3.org/1999/xlink" width="276.422958" height="408.187576" viewBox="0 0 276.422958 408.187576">
<!-- Original BoundingBox: -32.978531 -95.741119 243.444427 312.446457 -->
  <path d="M32.000000 35.836304C47.643555 77.651154,63.390182 119.427353,79.239777 161.164536C95.170029 203.114120,111.204239 245.024139,127.342239 286.894226L139.895126 286.894226C156.033142 245.024139,172.067352 203.114120,187.997604 161.164536C203.847198 119.427353,219.593826 77.651154,235.237366 35.836304"  id="stroke1" style="stroke:rgb(0.000000%,0.000000%,0.000000%); stroke-width: 50.211548;stroke-linejoin: round;stroke-miterlimit: 10.000000;fill: none;"></path>
  <path d="M72.667145 45.685257L64.978531 48.989487C46.827805 43.528610,27.376297 51.888016,18.846817 68.814835L-0.978531 22.683121L52.841797 -0.446457Z" style="fill: rgb(100.000000%,0.000000%,0.000000%);stroke: none;"></path>
  <path d="M257.618011 71.190964L249.794540 68.219894C240.546066 51.674789,220.753403 44.158249,202.853775 50.393478L220.680191 3.452713L275.444427 24.250198Z" style="fill: rgb(100.000000%,0.000000%,0.000000%);stroke: none;"></path>
  <path d="M100.144318 286.894226L108.512909 286.894226C123.032791 299.078049,144.204575 299.078049,158.724457 286.894226L158.724457 337.105774L100.144318 337.105774Z" style="fill: rgb(100.000000%,0.000000%,0.000000%);stroke: none;"></path>
  <path d="M32.000000 407.641113L32.000000 37.031799L235.237366 37.031799L235.237366 407.641113Z" style="stroke:rgb(100.000000%,100.000000%,100.000000%); stroke-width: 0.199997;stroke-linecap: round;stroke-linejoin: round;stroke-miterlimit: 10.000000;fill: none;"></path>
</svg>
