<?xml version="1.0"?>
<!-- Created by MetaPost 1.9991 on 2017.04.13:1434 -->
<svg version="1.1" xmlns="http://www.w3.org/2000/svg" xmlns:xlink="http://www.w3.org/1999/xlink" width="369.347351" height="405.515945" viewBox="0 0 369.347351 405.515945">
<!-- Original BoundingBox: -31.223999 -95.741119 338.123352 309.774826 -->
  <path d="M31.000000 32.836304C42.899612 74.686142,55.054398 116.462997,67.463669 158.164536C79.958130 200.152359,92.710358 242.063034,105.719620 283.894226L118.272507 283.894226C127.411743 250.396576,136.635605 216.922073,145.944031 183.471039C155.265564 149.972885,164.671844 116.498398,174.162796 83.047852L186.715683 83.047852C196.206635 116.498398,205.612915 149.972885,214.934448 183.471039C224.242859 216.922073,233.466736 250.396576,242.605972 283.894226L255.158859 283.894226C268.168137 242.063034,280.920364 200.152359,293.414825 158.164536C305.824097 116.462997,317.978867 74.686142,329.878479 32.836304"  id="stroke1" style="stroke:rgb(0.000000%,0.000000%,0.000000%); stroke-width: 50.211548;stroke-linejoin: round;stroke-miterlimit: 10.000000;fill: none;"></path>
  <path d="M70.244873 47.350449L62.223999 49.737579C44.832016 42.201752,24.539902 48.240967,14.098724 64.060303L-0.223999 15.935028L55.922150 -0.774826Z" style="fill: rgb(100.000000%,0.000000%,0.000000%);stroke: none;"></path>
  <path d="M354.800629 66.447433L346.779755 64.060303C336.338577 48.240967,316.046463 42.201752,298.654480 49.737579L312.977203 1.612305L369.123352 18.322159Z" style="fill: rgb(100.000000%,0.000000%,0.000000%);stroke: none;"></path>
  <path d="M78.521698 283.894226L86.890289 283.894226C101.410172 296.078049,122.581955 296.078049,137.101837 283.894226L137.101837 334.105774L78.521698 334.105774Z" style="fill: rgb(100.000000%,0.000000%,0.000000%);stroke: none;"></path>
  <path d="M215.408066 283.894226L223.776657 283.894226C238.296539 296.078049,259.468323 296.078049,273.988205 283.894226L273.988205 334.105774L215.408066 334.105774Z" style="fill: rgb(100.000000%,0.000000%,0.000000%);stroke: none;"></path>
  <path d="M213.913620 57.942078L205.545029 57.942078C191.025146 45.758255,169.853363 45.758255,155.333481 57.942078L155.333481 7.730530L213.913620 7.730530Z" style="fill: rgb(100.000000%,0.000000%,0.000000%);stroke: none;"></path>
  <path d="M31.000000 404.641113L31.000000 34.031799L329.878479 34.031799L329.878479 404.641113Z" style="stroke:rgb(100.000000%,100.000000%,100.000000%); stroke-width: 0.199997;stroke-linecap: round;stroke-linejoin: round;stroke-miterlimit: 10.000000;fill: none;"></path>
</svg>
