<?xml version="1.0"?>
<!-- Created by MetaPost 1.9991 on 2017.04.13:1434 -->
<svg version="1.1" xmlns="http://www.w3.org/2000/svg" xmlns:xlink="http://www.w3.org/1999/xlink" width="274.714813" height="411.041931" viewBox="0 0 274.714813 411.041931">
<!-- Original BoundingBox: -41.716293 -95.741119 232.998520 315.300812 -->
  <path d="M41.000000 38.836304L136.641113 189.471039L232.282227 340.105774"  id="stroke1" style="stroke:rgb(0.000000%,0.000000%,0.000000%); stroke-width: 50.211548;stroke-linejoin: round;stroke-miterlimit: 10.000000;fill: none;"></path>
  <path d="M232.282227 38.836304L136.641113 189.471039L41.000000 340.105774"  id="stroke2" style="stroke:rgb(0.000000%,0.000000%,0.000000%); stroke-width: 50.211548;stroke-linejoin: round;stroke-miterlimit: 10.000000;fill: none;"></path>
  <path d="M26.197647 300.968658L33.262482 305.454315C38.989609 323.522812,56.862991 334.871109,75.651459 332.368256L48.737518 374.757233L-0.716293 343.357635Z" style="fill: rgb(100.000000%,0.000000%,0.000000%);stroke: none;"></path>
  <path d="M82.716293 42.088165L75.651459 46.573822C56.862991 44.070969,38.989609 55.419266,33.262482 73.487762L6.348541 31.098785L55.802353 -0.300812Z" style="fill: rgb(100.000000%,0.000000%,0.000000%);stroke: none;"></path>
  <path d="M247.084579 77.973419L240.019745 73.487762C234.292618 55.419266,216.419235 44.070969,197.630768 46.573822L224.544708 4.184845L273.998520 35.584442Z" style="fill: rgb(100.000000%,0.000000%,0.000000%);stroke: none;"></path>
  <path d="M190.565933 336.853912L197.630768 332.368256C216.419235 334.871109,234.292618 323.522812,240.019745 305.454315L266.933685 347.843292L217.479874 379.242889Z" style="fill: rgb(100.000000%,0.000000%,0.000000%);stroke: none;"></path>
  <path d="M41.000000 410.641113L41.000000 40.031799L232.282227 40.031799L232.282227 410.641113Z" style="stroke:rgb(100.000000%,100.000000%,100.000000%); stroke-width: 0.199997;stroke-linecap: round;stroke-linejoin: round;stroke-miterlimit: 10.000000;fill: none;"></path>
</svg>
