<?xml version="1.0"?>
<!-- Created by MetaPost 1.9991 on 2017.04.13:1434 -->
<svg version="1.1" xmlns="http://www.w3.org/2000/svg" xmlns:xlink="http://www.w3.org/1999/xlink" width="266.320023" height="409.519165" viewBox="0 0 266.320023 409.519165">
<!-- Original BoundingBox: -33.795639 -95.741119 232.524384 313.778046 -->
  <path d="M128.641113 338.105774L128.641113 282.586517L128.641113 223.336456"  id="stroke1" style="stroke:rgb(0.000000%,0.000000%,0.000000%); stroke-width: 50.211548;stroke-linejoin: round;stroke-miterlimit: 10.000000;fill: none;"></path>
  <path d="M33.000000 36.836304C48.774323 67.786331,64.587067 98.716782,80.438202 129.627548C96.466614 160.884003,112.534256 192.120346,128.641113 223.336456"  id="stroke2" style="stroke:rgb(0.000000%,0.000000%,0.000000%); stroke-width: 50.211548;stroke-linejoin: round;stroke-miterlimit: 10.000000;fill: none;"></path>
  <path d="M224.282227 36.836304C208.507904 67.786331,192.695160 98.716782,176.844025 129.627548C160.815613 160.884003,144.747971 192.120346,128.641113 223.336456"  id="stroke3" style="stroke:rgb(0.000000%,0.000000%,0.000000%); stroke-width: 50.211548;stroke-linejoin: round;stroke-miterlimit: 10.000000;fill: none;"></path>
  <path d="M74.242157 43.901001L66.795639 47.719711C48.315964 43.503983,29.476974 53.164963,22.116592 70.631943L-0.795639 25.952896L51.329926 -0.778046Z" style="fill: rgb(100.000000%,0.000000%,0.000000%);stroke: none;"></path>
  <path d="M242.612152 74.450653L235.165634 70.631943C227.805252 53.164963,208.966263 43.503983,190.486588 47.719711L213.398819 3.040665L265.524384 29.771606Z" style="fill: rgb(100.000000%,0.000000%,0.000000%);stroke: none;"></path>
  <path d="M95.166748 313.000000L103.535339 313.000000C118.055222 325.183823,139.227005 325.183823,153.746887 313.000000L153.746887 363.211548L95.166748 363.211548Z" style="fill: rgb(100.000000%,0.000000%,0.000000%);stroke: none;"></path>
  <path d="M33.000000 408.641113L33.000000 38.031799L224.282227 38.031799L224.282227 408.641113Z" style="stroke:rgb(100.000000%,100.000000%,100.000000%); stroke-width: 0.199997;stroke-linecap: round;stroke-linejoin: round;stroke-miterlimit: 10.000000;fill: none;"></path>
</svg>
