<?xml version="1.0"?>
<!-- Created by MetaPost 1.9991 on 2017.04.13:1434 -->
<svg version="1.1" xmlns="http://www.w3.org/2000/svg" xmlns:xlink="http://www.w3.org/1999/xlink" width="282.141235" height="380.273407" viewBox="0 0 282.141235 380.273407">
<!-- Original BoundingBox: -33.474365 -95.741119 248.666870 284.532288 -->
  <path d="M33.000000 32.942078C68.834732 31.281876,104.703079 30.451279,140.576248 30.450974C176.462753 30.450668,212.344452 31.281250,248.192505 32.942078L248.192505 45.494965L140.576248 158.491043L33.000000 271.447113L33.000000 284.000000C68.833954 285.686859,104.702621 286.530807,140.576248 286.531113C176.463226 286.531433,212.345230 285.687485,248.192505 284.000000"  id="stroke1" style="stroke:rgb(0.000000%,0.000000%,0.000000%); stroke-width: 50.211548;stroke-linejoin: round;stroke-miterlimit: 10.000000;fill: none;"></path>
  <path d="M58.105774 -0.532288L58.105774 7.836304C45.921951 22.356186,45.921951 43.527969,58.105774 58.047852L7.894226 58.047852L7.894226 -0.532288Z" style="fill: rgb(100.000000%,0.000000%,0.000000%);stroke: none;"></path>
  <path d="M231.455322 66.416443L231.455322 58.047852C243.639145 43.527969,243.639145 22.356186,231.455322 7.836304L281.666870 7.836304L281.666870 66.416443Z" style="fill: rgb(100.000000%,0.000000%,0.000000%);stroke: none;"></path>
  <path d="M49.737183 250.525635L49.737183 258.894226C37.553360 273.414108,37.553360 294.585892,49.737183 309.105774L-0.474365 309.105774L-0.474365 250.525635Z" style="fill: rgb(100.000000%,0.000000%,0.000000%);stroke: none;"></path>
  <path d="M223.086731 317.474365L223.086731 309.105774C235.270554 294.585892,235.270554 273.414108,223.086731 258.894226L273.298279 258.894226L273.298279 317.474365Z" style="fill: rgb(100.000000%,0.000000%,0.000000%);stroke: none;"></path>
  <path d="M33.000000 379.641113L33.000000 9.031799L248.192505 9.031799L248.192505 379.641113Z" style="stroke:rgb(100.000000%,100.000000%,100.000000%); stroke-width: 0.199997;stroke-linecap: round;stroke-linejoin: round;stroke-miterlimit: 10.000000;fill: none;"></path>
</svg>
